<svg width="42" height="36" viewBox="0 0 42 36" fill="none" xmlns="http://www.w3.org/2000/svg">
<path d="M12 20.35C14.08 20.35 15.7267 21.0433 16.94 22.43C18.24 23.73 18.89 25.4633 18.89 27.63C18.89 29.97 18.11 31.8333 16.55 33.22C15.0767 34.52 13.04 35.17 10.44 35.17C7.40667 35.17 5.02333 34 3.29 31.66C1.64333 29.32 0.82 25.9833 0.82 21.65C0.82 17.75 1.68667 14.1533 3.42 10.86C5.15333 7.48 7.75333 4.1 11.22 0.719998C11.3067 0.633332 11.4367 0.589999 11.61 0.589999C11.87 0.589999 12.0867 0.719998 12.26 0.979994C12.4333 1.24 12.4333 1.45666 12.26 1.62999C8.01333 5.96333 5.89 11.0767 5.89 16.97C5.89 19.3967 6.32333 21.1733 7.19 22.3C7.97 21 9.57333 20.35 12 20.35ZM34.49 20.35C36.57 20.35 38.2167 21.0433 39.43 22.43C40.73 23.73 41.38 25.4633 41.38 27.63C41.38 29.97 40.6 31.8333 39.04 33.22C37.5667 34.52 35.53 35.17 32.93 35.17C29.8967 35.17 27.5133 34 25.78 31.66C24.1333 29.32 23.31 25.9833 23.31 21.65C23.31 17.75 24.1767 14.1533 25.91 10.86C27.6433 7.48 30.2433 4.1 33.71 0.719998C33.7967 0.633332 33.9267 0.589999 34.1 0.589999C34.36 0.589999 34.5767 0.719998 34.75 0.979994C34.9233 1.24 34.9233 1.45666 34.75 1.62999C30.5033 5.96333 28.38 11.0767 28.38 16.97C28.38 19.3967 28.8133 21.1733 29.68 22.3C30.46 21 32.0633 20.35 34.49 20.35Z" fill="#D0D0D0"/>
</svg>
