<svg width="15" height="15" viewBox="0 0 15 15" fill="none" xmlns="http://www.w3.org/2000/svg">
<path d="M8.4395 0.4395C8.15826 0.158176 7.77679 8.49561e-05 7.379 0H2C1.60218 0 1.22064 0.158035 0.93934 0.43934C0.658035 0.720644 0.5 1.10218 0.5 1.5V6.879C0.500085 7.27679 0.658176 7.65826 0.9395 7.9395L6.9395 13.9395C7.22079 14.2207 7.60226 14.3787 8 14.3787C8.39775 14.3787 8.77921 14.2207 9.0605 13.9395L14.4395 8.5605C14.7207 8.27921 14.8787 7.89775 14.8787 7.5C14.8787 7.10225 14.7207 6.72079 14.4395 6.4395L8.4395 0.4395ZM4.25 5.25C3.85208 5.2499 3.47049 5.09173 3.18919 4.81029C2.90788 4.52884 2.7499 4.14717 2.75 3.74925C2.7501 3.35133 2.90827 2.96974 3.18972 2.68843C3.47116 2.40713 3.85283 2.24915 4.25075 2.24925C4.64867 2.24935 5.03026 2.40752 5.31157 2.68897C5.59287 2.97041 5.75085 3.35208 5.75075 3.75C5.75065 4.14792 5.59248 4.52951 5.31104 4.81082C5.02959 5.09212 4.64793 5.2501 4.25 5.25Z" fill="#CACACA"/>
</svg>
