<svg xmlns="http://www.w3.org/2000/svg" viewBox="0 0 135.87 210.69"><defs><style>.cls-1{fill:#dbdbdb;}</style></defs><g id="Layer_2" data-name="Layer 2"><g id="OBJECTS"><path class="cls-1" d="M58.67,165.32a102.77,102.77,0,0,1,2.95-13.09l.51.12-3.15,13Z"/><path class="cls-1" d="M66.83,132.77l4.38-6c.36.61-.12,1.22-.45,1.65-1.13,1.49-2.38,2.88-3.59,4.3a1.71,1.71,0,0,1-.25.22Z"/><path class="cls-1" d="M66.5,134.11q-.57,3.21-1.13,6.42C64.86,139.51,65.71,134.46,66.5,134.11Z"/><path class="cls-1" d="M71.26,129.43l-3.06,4.2-.31-.21,2.92-4.3Z"/><path class="cls-1" d="M88.93,43c1.85-1.49,3.71-3,5.53-4.49,4.06-3.37,8.06-6.81,12.16-10.13,3.16-2.57,6.41-5,9.66-7.48a2,2,0,0,1,1.44-.43c.69.16.61.91.54,1.46-.65,5.63-2.29,10.88-6.17,15.22-1.68,1.88-3.36,3.76-5.08,5.6a39.08,39.08,0,0,0-6.31,8.94,31.28,31.28,0,0,1-2.14,3.29c.92-.27,2.42-.7,3.9-1.16a30.39,30.39,0,0,1,8.24-1.38,8,8,0,0,0,1.88-.25c4.33-1.2,8.69-2.31,13-3.69,2.86-.93,5.58-2.28,8.38-3.42.55-.22,1.16-.8,1.73-.2s0,1.13-.27,1.64c-1.71,3.64-4.34,6.61-7,9.57a50.61,50.61,0,0,1-20.69,13.7l-4,1.41c1.29.46,2.59,1,3.9,1.4,3.71,1.25,7.41,2.51,11.12,3.73A51.05,51.05,0,0,0,132.24,79a1.22,1.22,0,0,1,.51,0c.3.16.57.37.86.56-.22.23-.4.54-.67.67-3.64,1.77-7.23,3.66-11,5.21-6.1,2.52-12.38,3.56-18.85,1.31-2.94-1-5.85-2.11-8.81-3a14.88,14.88,0,0,0-3.65-.51,24.54,24.54,0,0,1-8.42-1.66,33.1,33.1,0,0,0-4.63-1.31c-.16,0-.38.19-.58.27a4.34,4.34,0,0,1-1.51.53,3,3,0,0,0-1.93.68c-1.27.88-2.6,1.68-4,2.57a34.68,34.68,0,0,1,4.86,16.24,52.61,52.61,0,0,1-1.22,17.24,10.77,10.77,0,0,1,1.61-1.16,2.51,2.51,0,0,1,1.57-.3c.67.21.66,1,.53,1.56-.35,1.56-.77,3.1-1.14,4.65-1.89,7.92-5,15.43-7.93,23a89.55,89.55,0,0,0-2.51,8.61c-1,3.49-2,7-2.89,10.48a162.53,162.53,0,0,1-5.21,15.77c-.41,1.14-.5,2.39-.86,3.56-.64,2.1-1.47,4.15-2,6.27-.75,2.81-1.35,5.65-1.95,8.49-.73,3.42-1.4,6.85-2.07,10.29a13.64,13.64,0,0,0-.14,1.58l-.26.08a3,3,0,0,1-.28-1c.11-1.27.25-2.54.45-3.79.46-2.87,1-5.72,1.43-8.59a56.77,56.77,0,0,1,3.18-11.7c.66-1.72,1-3.56,1.59-5.32.94-2.9,2-5.77,2.9-8.69,1-3.38,1.94-6.8,2.85-10.22,1.13-4.24,2.18-8.51,3.33-12.74a20.18,20.18,0,0,1,1.37-3.42c1.86-3.83,2.91-7.93,4.24-11.94.7-2.09,1.48-4.15,2.07-6.26a32.81,32.81,0,0,0,.93-5.39c-1.17,1.6-2.32,3.21-3.5,4.79-.46.62-1,1.19-1.49,1.77-1.14,1.29-2.3,2.55-3.42,3.85a1.58,1.58,0,0,0-.31.75q-1.08,5.28-2.14,10.58c0,.08-.06.15-.22.2,0-3.61,1-7.11,1.45-10.71l-.88,0c-.5,7.37-2.73,14.39-4.11,21.37.21.31.49.55.46.71-.32,1.52-.7,3-1.05,4.55l-.32,0,.33-2.63-.15,0c-.36,1.49-.78,3-1.07,4.47a221.47,221.47,0,0,1-5.94,23,137.61,137.61,0,0,0-5.16,24.91,2,2,0,0,1-.41,1.07c0-.25-.07-.49-.08-.74a53.69,53.69,0,0,1,1.55-15c1.26-5.41,2.86-10.75,4.24-16.14,1.46-5.69,2.86-11.4,4.25-17.11,1.55-6.35,3.13-12.69,4.56-19.07.74-3.27,1.18-6.62,1.72-9.94a7,7,0,0,0,0-1.44c-.08-1.57-.29-3.17,1.22-4.29a.5.5,0,0,0,.1-.39c-.33-4.17-.47-8.37-1.05-12.52A32.41,32.41,0,0,0,57,98.68a31.46,31.46,0,0,0-8.76-8.25,89.17,89.17,0,0,1-8.74-6C32.92,79.14,27,73.22,22.54,66,18.74,59.75,15,53.51,11.35,47.17c-1.69-3-2.77-6.28-4.43-9.28C4,32.6,2.24,26.91.4,21.23a8.76,8.76,0,0,1-.4-2.1,1.13,1.13,0,0,1,.43-.91,1.24,1.24,0,0,1,1.1.08,40.16,40.16,0,0,1,3.71,3.29c3.65,3.88,7.1,7.94,10.87,11.69,3.37,3.35,7.11,6.33,10.58,9.58q6.84,6.41,13.51,13c2.54,2.48,4.94,5.1,7.38,7.67A53.46,53.46,0,0,0,56,70.37c-.24-1.78-.43-3.41-.7-5A61.58,61.58,0,0,0,51.7,52.51c-2.8-7-5.49-14-8.32-21-2.91-7.18-3.71-14.7-3.93-22.32A6.08,6.08,0,0,1,40,7a1,1,0,0,1,.84-.55,1.09,1.09,0,0,1,.77.63c.33,1.21.47,2.47.85,3.66,1.4,4.41,2.74,8.84,4.35,13.18A41.23,41.23,0,0,0,50,29.8c2.35,4.13,4.73,8.24,7.12,12.4a5.56,5.56,0,0,0,0-.58,77.52,77.52,0,0,1,.57-15.53c.54-3.54,1.57-7,2.46-10.48s2-7,2.87-10.57A20.34,20.34,0,0,0,63.31,1c0-.45,0-1,.52-1a1.2,1.2,0,0,1,.88.69c.71,2.17,1.37,4.36,2,6.55.46,1.59.85,3.19,1.2,4.5l4.22-8a1,1,0,0,1,.3-.4c.33-.18.76-.49,1-.4a1.09,1.09,0,0,1,.51.93,34.76,34.76,0,0,1-.58,4.32c-.52,2.45-1.18,4.88-1.77,7.32a39.77,39.77,0,0,0-.77,10.72C71,30,71,33.85,72.17,37.55c.13.4.26.79.45,1.33,2.93-6.06,7.58-10.64,11.59-15.68,3.39-4.25,6.54-8.69,9.79-13,.15-.21.27-.48.48-.59a1.79,1.79,0,0,1,1.11-.33c.19,0,.39.66.35,1-.18,1.41-.46,2.81-.68,4.22-.5,3.29-.89,6.61-1.52,9.89-.86,4.53-1.81,9-2.92,13.52a32.32,32.32,0,0,1-2.11,4.94ZM59,88.93c.16-1.75.86-3.45-1-4.63a3.17,3.17,0,0,1-.58-.63L48.07,73.22a4.62,4.62,0,0,1-.37-.5l.16-.13A115.45,115.45,0,0,1,59.2,84.43c0-1.16-.05-2.29-.15-3.41,0-.17-.18-.34-.31-.47l-6.29-6-.37-.37.15-.16a41.71,41.71,0,0,1,6.59,5.46,2,2,0,0,0-.75-1.84c-1.59-1.41-3.06-3-4.57-4.46a1.33,1.33,0,0,1-.18-.31l.12-.11,4.92,4.32.22-.12c-.15-.43-.17-1-.47-1.27-1.7-1.61-3.44-3.19-5.22-4.72-2.09-1.79-4.36-3.38-6.32-5.29C42.32,61.53,38.28,57.18,34.05,53,29.42,48.51,24.67,44.11,20,39.67a2.8,2.8,0,0,0-.84-.38l-.17.25L37.27,61a2.56,2.56,0,0,1-.8-.56c-3.69-4-7.44-8-11-12C19.31,41.47,13.29,34.46,7.2,27.51a3.36,3.36,0,0,0-1.45-.76c-.73-.23-1.21.22-1,1A11.43,11.43,0,0,0,5.45,30q4.16,8.7,8.36,17.38c.06.13.14.25.21.37,2.73,4.58,5.36,9.2,8.21,13.7a72.08,72.08,0,0,0,8.53,11.72c4.77,5,9.63,9.82,15.7,13.29,1.52.87,2.89,2,4.33,3l.21-.26L37.81,78.26A69,69,0,0,1,58.45,95a3.29,3.29,0,0,0-.4-1.59c-.72-1-1.65-1.74-2.37-2.69-3.55-4.66-6.94-9.44-11.06-13.63a3.42,3.42,0,0,1-.33-.51l.17-.13C50,81,54.1,86.78,58.51,92.55a18.65,18.65,0,0,0,.25-1.93,1.76,1.76,0,0,0-.28-1.07c-3.8-4.42-7.63-8.81-11.44-13.21-.17-.19-.33-.4-.49-.6l.18-.15A97.55,97.55,0,0,1,59,88.93ZM73.25,71.11a5.89,5.89,0,0,0,2.07.42,16.32,16.32,0,0,0,4.58-1.37c2.45-1.36,4.72-3,7-4.64A32,32,0,0,0,98.41,51.63a4.85,4.85,0,0,1,.74-1.24,16.08,16.08,0,0,0,1.77-2,47.41,47.41,0,0,1,5.86-7.59c2-2.29,4-4.57,5.93-6.89a12.15,12.15,0,0,0,1.29-2c.36-.68.63-1.41.87-2l-4.21,4.38-.22-.2c1.16-1.37,2.41-2.69,3.48-4.13a10,10,0,0,0,2.27-4.76c-3,4.48-6.92,8.14-10.86,11.77a1.6,1.6,0,0,1,.37-.76c2.52-3.1,5.06-6.19,7.57-9.29a19,19,0,0,0,1.31-1.91c.4-.62.74-1.28,1.11-1.92l-.22-.16C111.13,29,105.2,33.39,100,38.52c3.39-4.22,7.55-7.71,11.18-11.71A45.14,45.14,0,0,0,106.81,30C101.87,34.18,97,38.42,92,42.52c-3.65,3-7.46,5.83-11.17,8.78a16.67,16.67,0,0,0-2.33,2.27c-3,3.54-4.88,7.73-6.7,11.92a10.66,10.66,0,0,0-.36,3c1.83-1.66,3.4-3.35,5-5s3.2-3.19,4.8-4.78l.29.28-9.41,10.7.55.82,9.71-9.39A64.25,64.25,0,0,1,73.25,71.11ZM78.43,79l0,.17.71.19c1.5.42,3,.88,4.48,1.26a24,24,0,0,0,5,1.05,31.91,31.91,0,0,1,12.08,2.89,29.22,29.22,0,0,0,6,1.81c5,1,9.81,0,14.45-1.83,2.3-.9,4.49-2,6.73-3.1a3.89,3.89,0,0,0,.62-.47A56.91,56.91,0,0,1,108.83,80c6.23.16,12.46.85,18.64-.14-2.84-.69-5.69-1.32-8.51-2.11-1.76-.5-3.45-1.27-5.2-1.85-3.46-1.17-7-2.18-10.4-3.45a28.17,28.17,0,0,0-13.9-1.57A69.13,69.13,0,0,0,82,72.28c-2.14.56-4.16,1.49-6.24,2.24a1,1,0,0,0-.65,1.33A29.63,29.63,0,0,1,87,74.45a81.89,81.89,0,0,0-11.85,2.33l.33.88c2.2-.62,4.31-1.15,6.56-.64l-4.68,1,0,.19,5.76.51,0,.29ZM92.58,69.2l.76.1,6.92.82a2.45,2.45,0,0,0,.84.08c2-.51,4-1,5.89-1.61a46.91,46.91,0,0,0,19.42-12.52l4.19-4.51-.09-.07-3.76,1.77-.13-.22c.19-.13.37-.27.57-.4,1.42-.86,2.86-1.69,4.24-2.61a7.32,7.32,0,0,0,1.18-1.24l-.17-.16a49.38,49.38,0,0,1-6.17,3.7l-.2-.29,6.7-4.86c-2.08.85-3.93,1.75-5.87,2.35-4.1,1.27-8.23,2.42-12.38,3.52a24.31,24.31,0,0,1-4.49.73,30,30,0,0,0-10,2.22,11.72,11.72,0,0,0-4.31,2.88,37.9,37.9,0,0,1-8.33,7.86c-.22.14-.42.31-.63.47l.11.18c3.75-1.56,7.42-3.32,11.41-4.24L87.88,67.92l.11.31a7.39,7.39,0,0,0,.93-.22c3.15-1.19,6.28-2.42,9.45-3.57,1-.37,2.09-.56,3.14-.83l0,.13L89.62,68.62l.13.39,14.64-4,.07.21C100.61,66.82,96.6,67.94,92.58,69.2ZM66.43,118h.26q.32,3.36.63,6.75a3.08,3.08,0,0,0,1.56-3.38c-.28-3.17-.37-6.36-.53-9.54,0-.54,0-1.09.05-1.63h.3c.35,3.85.7,7.71,1.06,11.71.45-.6.8-1,1.13-1.51a1.12,1.12,0,0,0,.14-.49c.5-4.72,1.59-9.4,1.39-14.19-.09-2.16-.15-4.32-.22-6.26l-.86-.54.63-.63a32.21,32.21,0,0,0-3.51-11.39c-1.91-3.57-6.26-8.62-7.91-9,0,.18,0,.34.05.51a36.26,36.26,0,0,1-.25,12.68A20.81,20.81,0,0,0,60,93.83a15.74,15.74,0,0,0,1.18,7.62,37.81,37.81,0,0,1,3.3,12.1c.32,3.75.24,7.53.34,11.29,0,.63.07,1.26.11,1.9,1.35-.34.67-1.57,1.27-2.45l0,1.5.26,0a4.11,4.11,0,0,0,.2-1c-.08-1.53-.22-3.06-.29-4.59C66.35,119.53,66.41,118.78,66.43,118Zm-2.8-50.66q-.23-6.48-.46-13l.29,0a5.5,5.5,0,0,1,.11.69c.31,4.6.6,9.19.92,13.79a7.88,7.88,0,0,0,.31,1.32l.27,0q.18-5.11.37-10.22h.39l.28,7.18a2,2,0,0,0,.45-1c.33-2.65.82-5.29.93-7.94C67.8,51,66.66,43.91,66,36.78a72.59,72.59,0,0,1,.54-17,26,26,0,0,0-.67-9.57L64.35,18,64,17.93l1-7.39-.22,0q-1,4.27-2,8.55c-.47-3.48.89-6.72,1.19-10.12a2.14,2.14,0,0,0-.61.85q-1,3.11-1.88,6.23A63.81,63.81,0,0,0,58.6,30.24a81.82,81.82,0,0,0,.09,14,5.2,5.2,0,0,0,.52,1.51c.71,1.49,1.53,2.94,2.15,4.47a3,3,0,0,1-.79,3.61,1.13,1.13,0,0,0-.14.89c.42,2.56,1,5.1,1.25,7.68A11.14,11.14,0,0,0,63.63,67.37ZM85.47,36.61l.25.1a109.56,109.56,0,0,1-4.42,12l4.48-3.55a.49.49,0,0,0,.14-.21c1.09-2.42,2.51-4.75,3.21-7.28,1.43-5.21,2.52-10.51,3.64-15.8.49-2.3.7-4.66,1-7l-.26-.12c-2,1.82-2.23,4.75-4.12,6.68l1.8-4.11a1.25,1.25,0,0,0-.58.46c-1.74,2.23-3.45,4.49-5.22,6.7C83.91,26.4,82,28,81,30.31s-2.29,4.19-3.43,6.29c-.56,1-1.08,2.06-1.63,3.13-.07-.12-.15-.22-.13-.26C77,36.71,78.22,34,79.45,31.21c0,.14-.14.24-.23.37-1.43,1.89-2.83,3.82-4.3,5.68a5.79,5.79,0,0,0-.81,6.67,3.17,3.17,0,0,1,.14.4c.35,1.3.78,2.58,1,3.89A4.58,4.58,0,0,1,74,52.78a1.32,1.32,0,0,1-2,.07,5.19,5.19,0,0,0-.47-.36c.22,2.54.43,4.92.64,7.3A35.07,35.07,0,0,1,78.48,51a5.41,5.41,0,0,1,0-1.18c.41-1.24.87-2.47,1.31-3.71.65-1.79,1.29-3.59,2-5.38a2.25,2.25,0,0,1,.31-.51l.26.11c-1,3.32-2.09,6.65-3.19,10.13.43-.41.93-.66,1.09-1.06,1.59-3.8,3.11-7.62,4.66-11.43C85.07,37.49,85.28,37.05,85.47,36.61Zm-18,44.68c1.12.38,1.47-.91,2.51-1L68.24,82l1,1.52c2.18-1.64,4.34-3.2,7.33-3.59a4,4,0,0,1-2.7-4.54l-1.21.7-.17-.16,1.29-2c-2.38-.36-3.31-2-4-4.15a8.22,8.22,0,0,1-1.44,1.86,4.4,4.4,0,0,0-1.85,3.91c0,1.11-.18,2.32-1.5,2.92l.61.7,1.54-1.34.16.14c-.24.36-.46.73-.72,1.07-.47.63-.48.62.09,1.06l2.53-2.41.21.2L67,80.51l.18.2,2.1-1.6.18.18Zm-7-20,.25-.08c-.49-2.12-1-4.25-1.49-6.36a.68.68,0,0,0-.45-.41c-.56-.13-1.14-.21-1.78-.31Z"/><path class="cls-1" d="M33.31,68C30.24,66.28,16.22,47,15.8,43.93A236.8,236.8,0,0,0,33.31,68Z"/><path class="cls-1" d="M16.46,42.44a49.36,49.36,0,0,1-8.3-10.22L8.41,32Z"/><path class="cls-1" d="M37.44,62.94c2.36,3.15,5.41,5.77,7.22,9.34-2.32-3.19-5.42-5.77-7.6-9.08Z"/><path class="cls-1" d="M21.93,50.32q3.69,4.95,7.4,9.89C26.44,57.22,23.66,54.14,21.93,50.32Z"/><path class="cls-1" d="M41.6,71.07a35.23,35.23,0,0,1-5.18-5.8l.22-.2L41.8,70.9Z"/><path class="cls-1" d="M104.74,40.1c0,.71-5,7.52-6,8.34C98.81,47.29,103.67,40.54,104.74,40.1Z"/><path class="cls-1" d="M83.06,53l7.47-7c0,1-5.89,6.6-7.29,7.15Z"/><path class="cls-1" d="M89.56,59.78l5.2-7.07.27.2a47.78,47.78,0,0,1-5.22,7Z"/><path class="cls-1" d="M93.13,54c-1.45,2-2.75,3.84-4.15,5.81C89,58.54,91.93,54.37,93.13,54Z"/><path class="cls-1" d="M85.79,52.43l4-3.76C89.79,49.74,87.32,52.05,85.79,52.43Z"/><path class="cls-1" d="M96.92,46.81,101,42l.31.26A32.21,32.21,0,0,1,97.16,47Z"/><path class="cls-1" d="M90.33,78.83a73.62,73.62,0,0,1,11.84,1.52l0,.36a9.88,9.88,0,0,1-1.44,0c-2.93-.43-5.86-.89-8.8-1.35l-1.64-.25Z"/><path class="cls-1" d="M115.22,84.74l-10.56-1.46,0-.36,10.58,1.34Z"/><path class="cls-1" d="M98.45,72.71l-8,.24a16.32,16.32,0,0,1,8-.56Z"/><path class="cls-1" d="M93.59,77.58c2.24.29,4.53.24,6.7.94l-.07.45-6.69-1Z"/><path class="cls-1" d="M95.11,75.7c2.1-.2,5.12.38,5.63,1.27l-5.69-1Z"/><path class="cls-1" d="M91.36,73.74c1.67-.62,4-.69,4.52.07L91.36,74Z"/><path class="cls-1" d="M105.76,75l5.35,1.4-.07.28c-1.89,0-3.57-1-5.39-1.3Z"/><path class="cls-1" d="M106,76.28l4.55.87c-.7.5-3.4,0-4.61-.65Z"/><path class="cls-1" d="M106.8,55.88c-1.6.51-3.23.94-4.79,1.54s-3,1.35-4.68,2.13a3.42,3.42,0,0,1,.36-.8C99.09,57.27,104.72,55.42,106.8,55.88Z"/><path class="cls-1" d="M114.05,58.25l10.89-5.83C124.15,53.75,115.74,58.15,114.05,58.25Z"/><path class="cls-1" d="M115.69,62.1c-.29,1.27-5.58,4.36-7.63,4.42Z"/><path class="cls-1" d="M114.15,59.6l7.41-4.28C121.3,56.34,116.58,59.09,114.15,59.6Z"/><path class="cls-1" d="M105.26,57.44,101.17,59C101.31,58.42,103.49,57.54,105.26,57.44Z"/><path class="cls-1" d="M109.39,63.49l3.76-1.59.17.41-3.79,1.53Z"/><path class="cls-1" d="M62.29,88.71c.63,5.32.29,10.76,1.88,16C62,99.53,62.22,94.12,62.29,88.71Z"/><path class="cls-1" d="M69.57,94a85.45,85.45,0,0,1,1.3,11l-.25,0-1.5-11Z"/><path class="cls-1" d="M65,107.6l.48,2.26.21-1.87.35,0c0,1.47,0,2.95,0,4.42,0,.14-.39.26-.71.46-.24-1.81-.47-3.52-.69-5.23Z"/><path class="cls-1" d="M66.41,89.77l-3.27-7A10.84,10.84,0,0,1,66.41,89.77Z"/><path class="cls-1" d="M68.51,95.74a42.28,42.28,0,0,1,.74,7.78l-.22,0L68,95.8Z"/><path class="cls-1" d="M71.64,106.72l-.59,6.7-.3,0a45.7,45.7,0,0,1,.44-6.72Z"/><path class="cls-1" d="M65.08,88.71a2.76,2.76,0,0,1-1.2-2.59Z"/><path class="cls-1" d="M62.82,29q.57,9.08,1.15,18.17C63.21,46.17,62,30.32,62.82,29Z"/><path class="cls-1" d="M61.47,33.74l.41,12.32h-.4c-.1-4.1-.65-8.19-.49-12.3Z"/><path class="cls-1" d="M85.83,33.94c1.48-3.2,2.17-6.71,4-9.74C90.28,25.41,86.81,33.67,85.83,33.94Z"/><path class="cls-1" d="M76.85,49.32a2.7,2.7,0,0,1,.05-1c1.23-2.69,2.5-5.38,3.77-8.06,0,0,.09,0,.36-.1l-4,9.11Z"/><path class="cls-1" d="M87.84,26.42a22.32,22.32,0,0,1-3.57,7.17l3.22-7.33Z"/><path class="cls-1" d="M82.3,31.23,78.85,36.8l-.26-.15c.53-1,1-2.12,1.61-3.09A8.76,8.76,0,0,1,82,30.91Z"/><path class="cls-1" d="M93.45,15.7l-1.72,3.92-.28-.12c.73-1.24.7-2.8,1.7-3.93Z"/><path class="cls-1" d="M73.56,57c-.17-1.3.68-2.77,1.57-3Z"/><path class="cls-1" d="M71.67,74.71a2.92,2.92,0,0,1-2.57-1.43,1.94,1.94,0,0,1,.08-.76Z"/></g></g></svg>