<svg xmlns="http://www.w3.org/2000/svg" viewBox="0 0 161.95 137.66"><defs><style>.cls-1{fill:#dbdbdb;}</style></defs><g id="Layer_2" data-name="Layer 2"><g id="OBJECTS"><path class="cls-1" d="M67.36,123.16a15,15,0,0,1,.67-2c.67-1.36,2-1.67,3-.55,1.68,1.91,3.64,3.59,4.86,5.87A3.31,3.31,0,0,1,74.2,131a4,4,0,0,1-4.47-1.23,26,26,0,0,1-2.24-4.36A6.88,6.88,0,0,1,67.36,123.16Zm2.57-2c-.17.14-.38.24-.46.41-1.52,2.83,0,6.59,2.67,8.25a1.45,1.45,0,0,0,2.28-.89,3.68,3.68,0,0,0-.62-3.57C72.54,124,71.3,122.64,69.93,121.15Z"/><path class="cls-1" d="M81.34,122a69,69,0,0,1-5.41-9.29l.3-.18,5.44,9.28Z"/><path class="cls-1" d="M55.47,125.71a36.8,36.8,0,0,1-3.8-10.15l4.13,10Z"/><path class="cls-1" d="M51.34,118.91l3.13,6.63C53.34,124.81,51.54,121,51.34,118.91Z"/><path class="cls-1" d="M90.62,128.89a12.07,12.07,0,0,1-4.5-4.27Z"/><path class="cls-1" d="M114.53,51.22a3.1,3.1,0,0,0,3,1.36c2.45-.15,4.92-.24,7.34-.6a80.73,80.73,0,0,1,13.27-.91,7.24,7.24,0,0,1,5.35,2.08c2,2.05,4.31,3.82,5.85,6.31A20.87,20.87,0,0,1,152.13,66c.62,2.85,1.34,5.68,2,8.51a10,10,0,0,1,.26,1.41c.09,1-.12,1.39-1,1.74a20.39,20.39,0,0,1-2.47.66l-5.82,1.33a2.47,2.47,0,0,0,1.7.83c1.72.39,3.45.74,5.17,1.14A5.43,5.43,0,0,1,155.39,84c1.67,2.53,3.49,5,5.17,7.49a10.37,10.37,0,0,1,1.24,2.73,2.11,2.11,0,0,1-1.17,2.8,8.73,8.73,0,0,1-2.56.88,14.32,14.32,0,0,0-7.94,4.16c-2.75,2.67-5.53,5.32-8.45,7.8a30.9,30.9,0,0,1-5.79,4,8.63,8.63,0,0,1-8.32,0,11.34,11.34,0,0,1-3.65-2.81c-1.87-2.32-3.68-4.68-5.48-7-1.67-2.2-3.27-4.46-5-6.63a7.47,7.47,0,0,0-5.57-2.78,4.56,4.56,0,0,0-.64,0,4.07,4.07,0,0,0-.55.13,2,2,0,0,0,0,.72,29,29,0,0,0,3.26,7.75c.94,1.41,1.82,2.87,2.66,4.35a30.63,30.63,0,0,0,6.32,7.57c1.14,1,2.3,2.06,3.44,3.1a9.73,9.73,0,0,1,1,1,1.59,1.59,0,0,1-.48,2.66,5.6,5.6,0,0,1-1.16.55c-3.42,1.21-6.85,2.39-10.27,3.61a23.11,23.11,0,0,1-9.66,1,7,7,0,0,1-4.33-1.89,19.4,19.4,0,0,1-3.73-4.54,40.17,40.17,0,0,1-3.95-9.37,58.43,58.43,0,0,0-4.22-10.8,11.78,11.78,0,0,0-3.3-4.25,12.38,12.38,0,0,0-2.75-1.59c-1.28-.51-2-.1-2.46,1.21a4.12,4.12,0,0,0-.19,1.4,13.22,13.22,0,0,0,1.88,6.82A56.25,56.25,0,0,0,84.93,113c2.88,3.07,5.76,6.13,8.62,9.21,1.06,1.12,2.12,2.24,3.12,3.42a4.81,4.81,0,0,1,.89,1.67,2,2,0,0,1-1.07,2.68c-5.84,1.95-11.06,5.35-17,7a18.63,18.63,0,0,1-10.44,0,10,10,0,0,1-7-7.22,35.07,35.07,0,0,1-1.36-12.26,42.91,42.91,0,0,0-2.17-15.82,17,17,0,0,0-3.53-5.82A3.42,3.42,0,0,0,54,95c-1.23-.61-2-.35-2.34.94a11.87,11.87,0,0,0-.33,6.58,92.15,92.15,0,0,0,6.85,17.78,29.88,29.88,0,0,1,2.26,7.11,5.59,5.59,0,0,1,0,2,3.1,3.1,0,0,1-2.86,2.77,5.64,5.64,0,0,1-3.59-.55c-1-.54-2-1.1-2.89-1.71q-8.36-5.48-16.69-11a28.07,28.07,0,0,1-2.5-2,9.55,9.55,0,0,1-3.15-5.41c-.34-1.55-.61-3.12-.94-4.67A3.48,3.48,0,0,0,26,104.33c-.25.51-.48,1-.71,1.4a3.35,3.35,0,0,1-4.9,1.4,7.37,7.37,0,0,1-1.13-.89,53.69,53.69,0,0,1-9.17-11c-2.58-4-4.92-8.2-7.2-12.39A22.46,22.46,0,0,1,0,70.61a34.39,34.39,0,0,1,1.1-5.43A25.25,25.25,0,0,1,6.92,54.49a23,23,0,0,1,8.31-5.86c1.64-.74,3.25-1.58,4.86-2.41s3.15-1.72,4.83-2.64l-1.25-.93c-2.62-1.92-5.22-3.88-7.88-5.75-1.9-1.35-3.9-2.58-5.84-3.87a12.43,12.43,0,0,1-4.7-5.71,4.14,4.14,0,0,1-.09-3,20.11,20.11,0,0,1,3-5.77,5.05,5.05,0,0,1,.9-.89,1.1,1.1,0,0,1,1.47.08c.36.32.67.68,1,1L26.49,33.9c.44.45.93.86,1.58,1.47A6.69,6.69,0,0,0,28,34.15c-.38-1.6-.72-3.21-1.21-4.77-.82-2.57-.45-5.15-.18-7.72.19-1.74.54-3.46.79-5.19a13.27,13.27,0,0,1,2-5.32A29.86,29.86,0,0,1,34.67,5a14.57,14.57,0,0,1,3.49-2.22A32.81,32.81,0,0,1,52,0c4.87-.06,9.72.1,14.57.52,2.13.19,4.28.12,6.42.15A20.12,20.12,0,0,1,82.43,3a6.57,6.57,0,0,1,.95.59,1,1,0,0,1,0,1.72,6.9,6.9,0,0,1-1.7.89,29.45,29.45,0,0,0-7.43,4.06c-3.15,2.19-6.14,4.6-9.19,6.93a7.93,7.93,0,0,0-2.79,4.7A2.82,2.82,0,0,0,64,25.5a4,4,0,0,0,4.13-.08,11.55,11.55,0,0,0,2.16-1.63A64,64,0,0,0,77.16,16a30.67,30.67,0,0,1,5.6-5.67C87.38,6.43,95,6.84,99.35,9.51a74.74,74.74,0,0,1,10.7,8.09,22.54,22.54,0,0,1,4.32,4.46,1.51,1.51,0,0,0,1.07.48,18.75,18.75,0,0,1,10.19,3.84,31.08,31.08,0,0,1,11.08,14.48,9.34,9.34,0,0,1,.49,1.67c.25,1.54-.24,2.25-1.69,2.81a21.29,21.29,0,0,1-6.12,1.09,36.12,36.12,0,0,0-11.13,2.18,11,11,0,0,0-2.15,1A12.19,12.19,0,0,0,114.53,51.22Zm-82.37-.84L34,49c-2-1.29-2-1.32-3.91-.26-3,1.69-6,3.42-9,5.13-.47.26-.95.5-1.43.75a1.52,1.52,0,0,1,.66-.76l9.76-6c.37-.23.73-.47,1.17-.77a2.85,2.85,0,0,0-3.3-.32c-1.82,1-3.73,1.78-5.6,2.66l-.06-.09,6.2-3.52L27,44.87c-.6.35-1.06.62-1.53.87-1.64.89-3.27,1.78-4.92,2.64-1.42.74-2.83,1.5-4.29,2.13a20.59,20.59,0,0,0-7.57,5.25,23.22,23.22,0,0,0-5.36,9.65c-.51,2.11-1.29,4.16-1.18,6.39A24,24,0,0,0,5,82.12c1,1.78,2,3.53,3,5.29.27.48.59.94,1.06,1.66.15-.77.24-1.22.33-1.67s.17-.94.3-1.4A43.05,43.05,0,0,1,24,64.28c2.59-2.13,5.42-4,8.2-5.86,2.11-1.43,4.34-2.72,6.5-4.09a5.11,5.11,0,0,0,2.07-1.79l-1.55-.71c-1.68,1-3.24,1.91-4.83,2.77A35.58,35.58,0,0,1,29.46,57c2.82-1.94,5.88-3.5,8.82-5.58l-1.46-.79c-.83.58-1.61,1.14-2.4,1.68S32.85,53.41,32,53.9a5.84,5.84,0,0,1-2.36,1.18l6.49-4.85-1.38-.91-2.5,1.23ZM73,53.67a3.86,3.86,0,0,1-.75.71c-1.53.87-3.09,1.7-4.63,2.55-.35.19-.67.44-1.17.76.87.38,1.55.65,2.21,1a2,2,0,0,0,2.21-.16c1.53-1,3.17-1.85,4.76-2.77l.17.26-5.08,3.25c1.2,1,2.11.55,3.08-.06,4.33-2.73,8.7-5.41,13-8.11,3.44-2.14,6.94-4.2,10.31-6.44a33.64,33.64,0,0,1,12.64-5.23,83,83,0,0,1,16-1.27c2.5,0,5,.09,7.79.15l-2.17-3.74a23.19,23.19,0,0,1-7.38.12l6.61-.64c-.11-.7-.36-1-.89-.92l-1.59.2A98.59,98.59,0,0,0,111,36.12a2.94,2.94,0,0,1-.69-.1,39.7,39.7,0,0,1,9.31-2.52c3.15-.5,6.32-.89,9.71-1.35a40.77,40.77,0,0,0-5.09-4.37,76.73,76.73,0,0,0-15,4.25c2.44-1.74,6.53-3.12,14-4.85-.25-.2-.44-.37-.65-.51a13.74,13.74,0,0,0-5.06-1.93,7.42,7.42,0,0,0-6.74,1.51c-1.08,1-2.19,1.86-3.29,2.8s-2.13,1.94-3.29,2.78a78.26,78.26,0,0,1-10.7,6.41A28.3,28.3,0,0,1,90,39.7a5.28,5.28,0,0,1-1.87.37,4.66,4.66,0,0,1-4.06-2.45c-.82-1.39-.24-2.71.7-3.81a19.59,19.59,0,0,1,3-2.87C91,28.44,95,27.44,99,26.65a18.2,18.2,0,0,0,5.36-1.49,17.57,17.57,0,0,1,2.29-.9l-.06-.22-4.86.19a39.25,39.25,0,0,1,4.76-.76,4.3,4.3,0,0,0,3.42-2,49.46,49.46,0,0,0-12.2,1.41,33.92,33.92,0,0,1,12.21-2.19c-1.1-2-1.61-2.25-3.46-1.91A91.48,91.48,0,0,0,80.75,28a29.14,29.14,0,0,0-7.17,5.31c-2.75,2.75-5.51,5.48-8.27,8.22-2,2-4,3.86-5.9,5.85a19.34,19.34,0,0,1-4.94,3.77c-.35.18-.67.42-1.14.72,1.18.56,2.22,1,3.18,1.55a2.11,2.11,0,0,0,2.38,0c2.66-1.57,5.36-3.1,8-4.64l1.8-1.09a50.24,50.24,0,0,1-10,6.69,2,2,0,0,0,2.54.48c3-1.56,6-3.09,9-4.63.37-.19.76-.34,1.14-.51a39.55,39.55,0,0,1-4.88,3.13c-1.65.92-3.33,1.79-5.05,2.71a1.31,1.31,0,0,0,1.71.19l5.9-2.5,1.25-.53c-2,1.64-4.48,2.51-7,3.68l2.15,1L73,53.71ZM37.67,61.22c.28-.44.54-.9.86-1.32,1.36-1.83,2.76-3.64,4.12-5.47a6.48,6.48,0,0,0,.48-1c-1.36,1.06-2.48,2-3.71,2.86-2.6,1.77-5.26,3.45-7.88,5.2-6,4-11.3,8.7-15.16,14.87a39.2,39.2,0,0,0-5.25,12.22c-.43,1.94-.54,3.77.9,5.38a1.87,1.87,0,0,1,.25.41,52.48,52.48,0,0,0,8.55,10.49c1.1,1.1,2.38,1,3-.57,1-2.63,2.28-5.15,3.23-7.79a72,72,0,0,1,3.63-7.94,5.12,5.12,0,0,1,.54-.71A2.86,2.86,0,0,1,31,89.1c-1.33,3.83-2.51,7.67-1.59,11.8a11.19,11.19,0,0,1,.11,1.43,43.83,43.83,0,0,0,2,9.79A8.93,8.93,0,0,0,35,116.86c.53.36,1.07.7,1.6,1l3.49,2.27,9.08,6a8.59,8.59,0,0,0,1.06.44c-.82-1.85-1.63-3.46-2.27-5.14a153.31,153.31,0,0,1-6.7-23.85A31.78,31.78,0,0,1,42,81.42c.83-2.63,1.78-5.23,2.43-7.9A57.61,57.61,0,0,1,47.36,65a24.87,24.87,0,0,0,2-8.52l-1.1-.59c-.43,1.35-.82,2.6-1.22,3.85a42.68,42.68,0,0,1-3.54,8.67c-.11.18-.2.37-.32.54a4.65,4.65,0,0,1-.54.52,6.59,6.59,0,0,1,.24-.73c2-3.89,3.06-8.12,4.3-12.28a4.11,4.11,0,0,0,0-1.11l-.42-.11A36.81,36.81,0,0,0,45.09,59c-.62,1.28-1.23,2.56-1.85,3.85.75-2.73,2-5.25,2.92-8.11-.44.06-.77,0-.88.14a8.73,8.73,0,0,0-.8,1.18,53.61,53.61,0,0,1-9.29,11.3c-.41.36-.84.69-1.26,1,1.92-2.29,4-4.43,5.84-6.71a44.88,44.88,0,0,0,4.93-7.29c-.51-.63-.88-.57-1.25-.07-.62.86-1.21,1.75-1.88,2.57-1.25,1.5-2.55,3-3.83,4.43Zm96.22,50.86,0,0a1.65,1.65,0,0,0,1.71-.67,34.35,34.35,0,0,1-6.63-6.21l7.14,5.91c2-1.15,3.9-2,5.16-3.92L138.37,105l.18-.23,3.19,2.29.68-.73-3.89-2.87.17-.26L143,106l8.62-8-2.1-2,.2-.22,2.55,2,1.5-.79-4.25-3.2.18-.23,4.82,3.28c1.63-.69,3.41-.58,5-1.32-.15-.21-.2-.33-.28-.37-3.06-1.39-6.08-2.86-9.19-4.14-3.35-1.38-6.8-2.53-10.17-3.87-5.81-2.31-11.58-4.69-17.37-7-.4-.17-.83-.28-1.6-.53l4.36,6.21a.77.77,0,0,1-.7-.31c-1.31-1.68-2.69-3.3-3.88-5.06a4.74,4.74,0,0,0-3.24-2c.45,1.25,1.55,2,1.72,3.3-.89-1-1.63-2.11-2.42-3.18a2.56,2.56,0,0,0-2.63-1.09l3.9,5.55-.28.2c-1.44-1.89-2.94-3.73-4.28-5.68-.9-1.33-2.18-1.67-3.71-2a4.22,4.22,0,0,0,.24.55c2.17,3.35,4.39,6.66,6.51,10a39.35,39.35,0,0,0,7.33,8.59q6.22,5.5,12.42,11.06a8,8,0,0,1,.67.75,2.13,2.13,0,0,1-1.29-.25,43.25,43.25,0,0,1-4.86-3.06c-3.61-2.91-7.16-5.9-10.58-9a25.58,25.58,0,0,1-4-4.75c-2.3-3.45-4.42-7-6.58-10.56a18.61,18.61,0,0,0-3.13-4.2,7.32,7.32,0,0,0-4-1.65A113.49,113.49,0,0,1,107,85.4a4.34,4.34,0,0,1-.82-1.29c-.77-1.8-1.52-3.62-2.29-5.43s-1.52-3.5-2.27-5.26a2,2,0,0,0-2.11-1.22c1.6,4.93,3.16,9.75,4.73,14.56a4.94,4.94,0,0,1-1.08-1.84c-1.51-4.08-3-8.16-4.5-12.24-.16-.43-.34-1-.69-1.19a21.88,21.88,0,0,0-2.84-.95A125.09,125.09,0,0,0,101,90.23a46,46,0,0,1-4.14-9.69c-1.06-3.43-2-6.9-3-10.44l-2.65-.89c1.29,4.61,2.49,8.86,3.68,13.11-.27-.06-.37-.17-.42-.3a71,71,0,0,1-4-12.23c-.18-.85-.48-1.35-1.49-1.25a4.38,4.38,0,0,0,0,2.51c.59,2.74,1.23,5.47,1.86,8.2.4,1.7.78,3.4,1.23,5.09a88.92,88.92,0,0,0,2.63,9.16,93.59,93.59,0,0,0,7.1,14.24c1.51,2.5,3.09,5,5.65,6.63a9.25,9.25,0,0,1,1.71,1.66,6.23,6.23,0,0,1,.58,1.09c-1.47-1-2.7-1.7-3.84-2.56a28.74,28.74,0,0,1-7.3-8.16c-4-6.62-7.41-13.51-8.76-21.22-.21-1.2-.47-2.39-.77-3.57-.64-2.51-1.24-5-2-7.52-.87-2.77-3-4.61-5.23-6.35,1.55,4.28,3.32,8.46,3.75,13a1.47,1.47,0,0,1-.35-.63c-1-3-2-6-3-9-.4-1.15-1-2.24-1.46-3.36-.26-.58-.61-1-1.39-.63a32.19,32.19,0,0,1,2.32,7.35,6.28,6.28,0,0,1-.67-1.38c-.71-1.83-1.43-3.65-2.14-5.48a1.79,1.79,0,0,0-2.15-1.11c1.6,7,3.24,14,4.53,21A13.94,13.94,0,0,1,80.5,85q-2.22-8.87-4.42-17.73C75.75,66,75.75,66,74.46,66A66,66,0,0,1,76.52,80q-1.32-7.22-2.66-14.47L71,64.77c1,6.24,2,12.3,3,18.36a3.9,3.9,0,0,1-.65-1.64q-1.51-8-3-15.93c-.25-1.32-.24-1.32-1.75-1.51Q70,70.7,71.35,77.34a3.43,3.43,0,0,1-.77-1.58c-.94-3.76-1.86-7.51-2.82-11.26a2.14,2.14,0,0,0-.6-1.22,12.67,12.67,0,0,0-2.25-1c.21.78.37,1.27.47,1.76a34.21,34.21,0,0,1,.78,4.21c.28,4.22.57,8.44.49,12.7a72.49,72.49,0,0,0,2.55,19.64,88.52,88.52,0,0,0,9.17,21.3c1.07,1.88,2.48,3.57,3.73,5.35a2.56,2.56,0,0,1,.23.47,4.24,4.24,0,0,1-1.69-.92,26.5,26.5,0,0,1-5.59-6.93,72.23,72.23,0,0,1-10.27-32c-.23-3.22-.09-6.46-.17-9.68-.08-2.92-.28-5.83-.35-8.74a27.69,27.69,0,0,0-1.33-7.16,2.42,2.42,0,0,0-2.41-1.8c.93,5.86,1.56,11.61.26,17.37a.63.63,0,0,1-.21-.43c0-2.49.25-5,.09-7.46-.19-3-.69-6-1.07-9-.08-.64-.2-1.28-1.26-1.26.33,4,.84,8-.26,11.94,0-1.2.08-2.4,0-3.59-.14-2.64-.37-5.28-.57-7.91C57.46,59.35,57,58.9,56,59c.07.75.15,1.47.19,2.19s.09,1.48.1,2.22,0,1.59-.05,2.38-.19,1.31-.29,2a2.64,2.64,0,0,1-.18-1.14c-.14-2.38-.26-4.76-.46-7.13-.09-1-.17-1-1.47-1.15,0,.26,0,.52,0,.77a62.34,62.34,0,0,1-1,10.12,14.22,14.22,0,0,1-.48,1.57,102.92,102.92,0,0,0,.86-13l-1.86-.67a2.84,2.84,0,0,0-.24.4,4.21,4.21,0,0,0-.09.62A29.32,29.32,0,0,1,48.32,68a20.73,20.73,0,0,0-1,2.52c-1.07,3.67-2,7.37-3.16,11a30.4,30.4,0,0,0-.93,15.08A284.07,284.07,0,0,0,50.69,126c.14.44.21.89.33,1.41,1.11.67,2.22,1.4,3.39,2a5.52,5.52,0,0,0,1.81.6c1.62.24,2.16-.3,2.09-1.93a2.42,2.42,0,0,0-.07-.47,31.13,31.13,0,0,0-2.1-6.49,90.47,90.47,0,0,1-6.77-17.65,12.9,12.9,0,0,1,.88-9.27A2.52,2.52,0,0,1,53,92.78a5,5,0,0,1,3.36,1.66,20.28,20.28,0,0,1,4.32,7.36,46.44,46.44,0,0,1,2,16.64,32.74,32.74,0,0,0,1.36,11,8.55,8.55,0,0,0,2.21,3.64,7,7,0,0,0,4.82,2.12c-.53-1.29-1.37-2.32-1.39-3.67l2,3.87,1,0a26.71,26.71,0,0,1-2.07-3.47c.81,1,1.72,2,2.57,3.1a1.4,1.4,0,0,0,1.18.66,24.26,24.26,0,0,0,8.26-2.07c-.72-.7-1.35-1.28-1.93-1.89s-1-1.2-1.58-1.8a1.26,1.26,0,0,1,.89.42c.91.9,1.82,1.8,2.71,2.71.37.38.68.49,1.06-.11a11.82,11.82,0,0,1-4.49-5.06,22.5,22.5,0,0,0,5.47,4.93l8-3.77c-.61-.57-1.11-1-1.6-1.5s-.91-.9-1.36-1.35-1-1-1.44-1.49a17.09,17.09,0,0,1-1.29-1.41c-.37-.49-1-.79-1.1-1.7l7.45,7.33,2.26-.85a12.75,12.75,0,0,0-1.09-1.69c-1-1.07-1.94-2.13-3-3.11a100.62,100.62,0,0,1-9-9.65A53.1,53.1,0,0,1,76,103.15a13,13,0,0,1-1.15-6.35c.16-3.68,2.69-5.17,6.07-3.7a13,13,0,0,1,6.24,6.17,56.69,56.69,0,0,1,4.65,11.49,40.64,40.64,0,0,0,3.25,7.94,17.9,17.9,0,0,0,3.79,4.9c1.57,1.44,3.44,1.63,5.58,1.34-1.52-2.21-3.24-4.09-4.07-6.54.31.13.34.46.5.7q1.74,2.48,3.54,4.91c.92,1.24,1,1.23,2.79.72-1.07-1.29-2.14-2.52-3.13-3.81a13.57,13.57,0,0,1-2.71-4.23c2,2.45,4,4.79,6,7.18a1.63,1.63,0,0,0,2.07.63c2.62-.94,5.25-1.81,7.88-2.72a9.72,9.72,0,0,0,1-.49l-3.86-3.48c1.8.89,3.2,2.3,5,3.2a55,55,0,0,1-5.23-5.35,16.75,16.75,0,0,1,2.32,1.65c1.21,1,2.4,2,3.6,2.92.43.35.87.66,1.45-.06-.58-.52-1.18-1-1.76-1.57-1.57-1.45-3.21-2.82-4.68-4.36-3.87-4.06-6.41-9-8.87-13.93a24.2,24.2,0,0,1-1.53-4.51,2.33,2.33,0,0,1,2.27-3.21,8.8,8.8,0,0,1,1.92.08,9.42,9.42,0,0,1,6.3,3.47c1.76,2.2,3.39,4.5,5.11,6.73s3.51,4.54,5.31,6.78a8.45,8.45,0,0,0,3.61,2.57A5,5,0,0,0,133.89,112.08ZM108.76,66.47l.08.27L106.06,68c-.93.4-1.88.78-2.78,1.23a7.83,7.83,0,0,0-2.65,1.49,4.4,4.4,0,0,0,.94.13c4.26-.41,8.5-.91,12.47-2.69,2-.91,4.13-1.75,6.22-2.58,8.38-3.36,16.73-2.77,25,.26a6.41,6.41,0,0,1,.9.53c-.42.06-.58.14-.72.1A48.75,48.75,0,0,0,135,65.28c-4-.1-8,0-11.87,1.43A79.7,79.7,0,0,0,113,71c-1.22.65-2.55,1.08-3.84,1.61l-1.19.45c1.52.73,2.73,1.31,4.29.81,3.21-1,6.46-1.88,9.7-2.81.29-.08.6-.12.91-.18a16.41,16.41,0,0,1-3.34,1.64c-1.1.41-2.23.74-3.33,1.16s-2.34.47-3.41,1.19a2.28,2.28,0,0,0,2.1.32l8.42-2c.38-.09.77-.14,1.15-.21l.08.3c-1.46.49-2.9,1-4.38,1.45s-3,.78-4.76,1.24c.78.35,1.2.56,1.64.74,2.92,1.18,5.84,2.34,8.74,3.56a3.31,3.31,0,0,0,1.86.16c2.59-.38,5.18-.76,7.78-1.12a6,6,0,0,1,1,0v.23l-8.11,1.48c1,.45,1.7,1.31,3,1.07,2.54-.48,5.12-.77,7.69-1.14l0,.34-7,1.23a33.43,33.43,0,0,0,3.88,1.85,6.55,6.55,0,0,0,3.57.63,26.5,26.5,0,0,1,2.82,0v.26l-2.82.35c2.26,1.15,4.6,2,6.9,2.9s4.62,1.95,6.93,2.93,4.26,2.48,6.7,3.17a7.34,7.34,0,0,0-.94-2c-1.68-2.45-3.44-4.86-5.1-7.33a3.9,3.9,0,0,0-2.54-1.75c-1.73-.37-3.47-.69-5.17-1.13a10.05,10.05,0,0,1-2.79-1.14,1.42,1.42,0,0,1,0-2.51,7.76,7.76,0,0,1,2.43-1.15c1.65-.45,3.34-.75,5-1.12.55-.12,1.09-.27,1.66-.42-.89-3.85-1.71-7.51-2.59-11.17A17.3,17.3,0,0,0,149,62.6l-4.74-.71c1.42-.53,2.7-.18,3.93-.29.07-.83-.44-.92-1-1l-3.52-.53v-.14l3.77,0c-.55-.66-.88-1.12-1.28-1.52-1.24-1.24-2.54-2.43-3.76-3.69A5.5,5.5,0,0,0,138.19,53a81.31,81.31,0,0,0-12.94.93c-2.53.37-5.11.46-7.67.59a5.28,5.28,0,0,1-4-1.34,2.35,2.35,0,0,1-.6-3,5.62,5.62,0,0,1,3-2.76,23.84,23.84,0,0,1,7.18-2.21c3.07-.37,6.16-.67,9.24-1a6.89,6.89,0,0,0,3.06-1,14.61,14.61,0,0,0-1.76-4.49c-1.42.11-2.69.23-4,.32a163.65,163.65,0,0,0-19.1,2.27,33.42,33.42,0,0,0-12.48,5.2c-3.27,2.2-6.67,4.21-10,6.25a50.4,50.4,0,0,0-9.65,7.61c-.43.43-.77.94-1.15,1.39.66.62,1,.17,1.43,0,2.78-1.49,5.54-3,8.31-4.5.33-.18.67-.34,1-.51l.17.31L79.07,62.6a2.78,2.78,0,0,0,3.66.3c4.22-2.62,8.5-5.13,12.76-7.68.65-.4,1.27-.84,1.9-1.26a.49.49,0,0,1-.14.46c-.44.38-.89.76-1.36,1.12A100.17,100.17,0,0,1,83.83,63.4c-.38.21-.73.48-1.17.78,1.58.78,1.57.77,2.82.18l13.86-6.65c.36-.17.73-.3,1.09-.45l.13.28L85.34,65.3c.85.34,1.4.53,1.92.78a3.54,3.54,0,0,0,3.33-.1c4.87-2.31,9.79-4.54,14.7-6.78a1.39,1.39,0,0,1,1.47-.21L91,66.92c1.14,1.17,1.77,1.3,3.16.78q8.47-3.17,17-6.29a4,4,0,0,1,.78-.14l.07.24-17.74,6.9c.79.31,1.28.48,1.74.7A2.55,2.55,0,0,0,98.52,69a32.56,32.56,0,0,1,3.93-1.51l.1.29-4.29,1.86a1.66,1.66,0,0,0,2.13.32c2.4-1.05,4.81-2.07,7.22-3.08A11.9,11.9,0,0,1,108.76,66.47Zm-58.37-16c.79.64,1.37.24,1.91-.06a20,20,0,0,0,5.45-4.14c.91-1,1.9-2,2.87-3,3.54-3.54,7.13-7,10.6-10.63a33.62,33.62,0,0,1,9.2-6.82,87.63,87.63,0,0,1,12-4.92,56.47,56.47,0,0,1,13.32-2.7c.44,0,.89-.14,1.51-.23a7.57,7.57,0,0,0-.81-.81c-2.22-1.66-4.46-3.29-6.67-5A13.78,13.78,0,0,0,90.89,9.6,10.11,10.11,0,0,0,85.71,11,22.85,22.85,0,0,0,79,17.28a72.54,72.54,0,0,1-7,8,13.2,13.2,0,0,1-2.51,1.95,6.3,6.3,0,0,1-7.1-.15A4.79,4.79,0,0,1,60,21.8a11.19,11.19,0,0,1,4.44-6.94A122.56,122.56,0,0,1,76.48,6.47a5.74,5.74,0,0,0,1.59-1.3c.9-1.1.68-1.6-.7-2-2-.54-4.14-.36-6.21-.51a4.75,4.75,0,0,0-4.42,1.55c-.08.09-.25.1-.37.15l-.13-.15,1.4-1.43c-1.22-.2-1.24-.22-1.93.39-1,.94-2.06,1.9-3.1,2.85l-.21-.2,3-3.22a42.47,42.47,0,0,0-8.16-.5,1.64,1.64,0,0,0-1,.65c-.6.75-1.13,1.55-1.65,2.34a34.29,34.29,0,0,0-6.06,19.29,102.37,102.37,0,0,0,.76,10.93,25.89,25.89,0,0,1,.11,4.9,14.33,14.33,0,0,1-3.18,8.35,5.16,5.16,0,0,0,.6.43c.38.18.77.34,1.26.55,2.64-3.3,4.53-7,6.65-10.56a47.26,47.26,0,0,1-5.81,10.8c.62.62,1,.33,1.4-.13,1.17-1.45,2.33-2.89,3.47-4.36.53-.68,1-1.42,1.47-2.12A25.08,25.08,0,0,1,50.39,50.49ZM54.29,2.2l-3,0A27.45,27.45,0,0,0,39,4.77a9.33,9.33,0,0,0-2.8,1.82,70.16,70.16,0,0,0-4.74,5.58,9.5,9.5,0,0,0-1.82,4.69c-.22,1.74-.59,3.45-.78,5.19a18.79,18.79,0,0,0-.19,4.42,56.43,56.43,0,0,0,3.12,11.8A1.55,1.55,0,0,0,33,39.44c0-.71,0-1.29,0-1.86s.09-1.07.14-1.61c.33,4.08.33,4.08,1.26,4.77L35,35.25a36.22,36.22,0,0,1,0,5.21,1.33,1.33,0,0,0,1.22,1.65,65.28,65.28,0,0,0,1-8c.48,2.9-.22,5.73-.54,8.66l1.66,1.13a84.83,84.83,0,0,0,1.36-9.11,6.76,6.76,0,0,1,.14,1.89c-.21,2.21-.45,4.42-.74,6.63-.15,1.14-.2,1.13,1.09,1.82.52-2.76,1-5.48,1.55-8.2l.31,0-1.34,8.8c1.12.62,2.13,1.2,3.16,1.76a8.3,8.3,0,0,0,.94.34c.23-.34.46-.63.63-.94a17.12,17.12,0,0,0,1.81-10.78,76.09,76.09,0,0,1-.94-11.07,37.23,37.23,0,0,1,1.22-9.75A39.87,39.87,0,0,1,53.19,3.84ZM105.74,28l-.07-.36c-.79,0-1.58-.12-2.36-.09a31.43,31.43,0,0,0-12.13,3.31,12.35,12.35,0,0,0-4.82,3.87c-.46.63-1.1,1.32-.5,2.14a2.6,2.6,0,0,0,2.61,1.21,5.22,5.22,0,0,0,1.23-.34c1.23-.52,2.46-1,3.65-1.63S95.91,34.8,97.13,34q3.45-2.17,6.82-4.46A17.54,17.54,0,0,0,105.74,28Z"/><path class="cls-1" d="M142.22,102a3.07,3.07,0,0,1-.56-.16c-3.76-1.51-7.6-2.84-10.95-5.17A15.29,15.29,0,0,1,128,94.22a4.79,4.79,0,0,1-1-2,3,3,0,0,1,3.81-3.7,5.1,5.1,0,0,1,1.06.36A80.61,80.61,0,0,0,141,92a19.76,19.76,0,0,1,4.27,2.12,8,8,0,0,1,2,1.84c1.27,1.55,1.07,3-.21,4.55S144.22,102.26,142.22,102Zm3.88-3.9c.35-1.8.15-2.48-1.47-3.38a23.53,23.53,0,0,0-4.52-2,61.62,61.62,0,0,1-8.05-2.65,5.71,5.71,0,0,0-2-.49,1.57,1.57,0,0,0-1.81,1.88,3.38,3.38,0,0,0,.8,1.84A20.51,20.51,0,0,0,132.18,96c2.83,2,6.16,2.91,9.28,4.26a6.79,6.79,0,0,0,2.52.36,2,2,0,0,0,2-1.59A4.73,4.73,0,0,0,146.1,98.12Z"/><path class="cls-1" d="M59.73,95.63c-1.84-2.61-3.86-4.53-7.07-5.07,1.28-.92,2.4-.47,3.46,0C58.28,91.69,59.76,93.68,59.73,95.63Z"/><path class="cls-1" d="M65.35,116.11l-2.46-12C64.12,105.93,65.79,113.7,65.35,116.11Z"/><path class="cls-1" d="M92.24,105.11a32.59,32.59,0,0,0-6.51-10.48C88.2,95.84,92,101.94,92.24,105.11Z"/><path class="cls-1" d="M76.14,91a3.53,3.53,0,0,0-1.5,2.34,31.25,31.25,0,0,0-.65,7.23c-.09-.41-.21-.82-.28-1.24a16.6,16.6,0,0,1,.47-6.73C74.42,91.68,74.87,90.82,76.14,91Z"/><path class="cls-1" d="M95.82,105.85l7.33,8.1C101.34,113.17,97.85,109.28,95.82,105.85Z"/><path class="cls-1" d="M113.18,92.78A40.25,40.25,0,0,0,109,91.35a40.53,40.53,0,0,0-4.31-.55c.32-.58.89-.59,1.43-.57A10.9,10.9,0,0,1,113.18,92.78Z"/><path class="cls-1" d="M79.94,112.64a35.39,35.39,0,0,1-4.59-6.84A26.14,26.14,0,0,1,79.94,112.64Z"/><path class="cls-1" d="M133.89,112.08a18.83,18.83,0,0,1-1.93-1.33c-1.55-1.35-3.06-2.75-4.58-4.14l.2-.24c.31.23.63.45.93.7,1.49,1.27,3,2.54,4.45,3.84a7,7,0,0,1,.89,1.2Z"/><path class="cls-1" d="M104.5,104.26A16.27,16.27,0,0,1,100.66,99l4.19,5Z"/><path class="cls-1" d="M127,94.55c-2.3-2.57-2.8-4.3-1.48-5.35C125.25,91.28,126.41,92.83,127,94.55Z"/><path class="cls-1" d="M49.89,80.7l-.92,6A11.2,11.2,0,0,1,49.89,80.7Z"/><path class="cls-1" d="M97,119a38.36,38.36,0,0,1-3-6.94C95.05,113.49,97,117.86,97,119Z"/><path class="cls-1" d="M142,90.74a15.74,15.74,0,0,1-6-1.85l6,1.53Z"/><path class="cls-1" d="M71.27,95a14.38,14.38,0,0,1-1.5-6.6Z"/><path class="cls-1" d="M101.86,97.64l3.29,4.54-.31.2a24.85,24.85,0,0,1-3.25-4.56Z"/><path class="cls-1" d="M88.26,94.51a11.36,11.36,0,0,1,3.17,4l-.26.18Z"/><path class="cls-1" d="M47.85,80l-1,6.5-.2,0,1-6.47Z"/><path class="cls-1" d="M52.36,81c-.12,1.42.13,2.87-.47,4.24A11.29,11.29,0,0,1,52.36,81Z"/><path class="cls-1" d="M66.4,110.93a4.91,4.91,0,0,1,.86,4Z"/><path class="cls-1" d="M76.38,109.33l2.15,3.17c-1.33-.61-1.67-1.93-2.44-2.94Z"/><path class="cls-1" d="M71.52,88.6l.58,3-.31.06-.54-3Z"/><path class="cls-1" d="M141.8,77.23c-.74-.19-1.17-.27-1.57-.41a25.11,25.11,0,0,0-6.95-1,31.22,31.22,0,0,1-4.92-.62c-1.76-.39-2.12-1.45-1.12-3a6.66,6.66,0,0,1,1.48-1.65,12.18,12.18,0,0,1,8.63-2.78,15.85,15.85,0,0,1,7.33,2.09,9.74,9.74,0,0,1,1.43,1,2.91,2.91,0,0,1,1.06,3.38A3.69,3.69,0,0,1,144.34,77,22.18,22.18,0,0,1,141.8,77.23ZM128,73.65a3.78,3.78,0,0,0,.82.34c1.48.2,3,.42,4.46.52a30.17,30.17,0,0,1,7.12,1,9.55,9.55,0,0,0,3.16.3,2.57,2.57,0,0,0,2.39-2.4c.24-1.29-.1-2-1.47-2.62a17.61,17.61,0,0,0-2.8-1.17c-3.92-1.18-7.71-1-11.24,1.26A5.72,5.72,0,0,0,128,73.65Z"/><path class="cls-1" d="M123.7,57.7c4.25-1.8,15-3.26,17.91-2.39-3.26.31-6.22.5-9.15.89S126.62,57.19,123.7,57.7Z"/><path class="cls-1" d="M96.8,51.38c3.5-2.92,7.07-5.73,11.7-6.69A66.05,66.05,0,0,0,96.8,51.38Z"/><path class="cls-1" d="M114.66,45.73c-2.85,2.14-4.71,4.72-3.78,8.6C108.5,51.66,110.76,46.6,114.66,45.73Z"/><path class="cls-1" d="M139.33,60.07l-13,1.09C129,60.28,137.53,59.49,139.33,60.07Z"/><path class="cls-1" d="M127.83,58.68a43.37,43.37,0,0,1,11.39-1.37c.16,0,.31.2.61.41Z"/><path class="cls-1" d="M120.37,43.05a33.82,33.82,0,0,1,11.44-.56Z"/><path class="cls-1" d="M121,62.7a36,36,0,0,1-8.43,3.46l8.22-3.88Z"/><path class="cls-1" d="M100.6,50.73l5.51-3.4C105.44,48.48,102.2,50.43,100.6,50.73Z"/><path class="cls-1" d="M146.19,68.6l-5.88-1.7C142.39,67,144.45,67.24,146.19,68.6Z"/><path class="cls-1" d="M119,61.8,114.57,64A6.93,6.93,0,0,1,119,61.8Z"/><path class="cls-1" d="M149.42,87.1l1.78-.74.11.32a2.84,2.84,0,0,1-1.91.39Z"/><path class="cls-1" d="M147.53,86.26l1-.27.05.2-1.05.25Z"/><path class="cls-1" d="M149.4,87.07a1.07,1.07,0,0,1-1.39.17l1.41-.14Z"/><path class="cls-1" d="M32.63,108.6c-2-2.64-.89-16.2,1-19.56-.42,3.24-1,6.52-1.21,9.83S32.55,105.38,32.63,108.6Z"/><path class="cls-1" d="M24.73,91.75C26.09,85.3,29.26,79.69,33,74.36c-1.54,2.84-3.21,5.61-4.6,8.52S26,88.79,24.73,91.75Z"/><path class="cls-1" d="M17.44,84.29a32.86,32.86,0,0,1,7-11.65A90.88,90.88,0,0,0,17.44,84.29Z"/><path class="cls-1" d="M35.87,104.42l2,10.91-.32.06A32.11,32.11,0,0,1,35.87,104.42Z"/><path class="cls-1" d="M24.33,77.17l-3.18,6.24C21,82.08,22.5,79,24.33,77.17Z"/><path class="cls-1" d="M19.85,92.83,18.9,99A10.46,10.46,0,0,1,19.85,92.83Z"/><path class="cls-1" d="M27.19,80.62a17.46,17.46,0,0,1-2.3,5.32A17.35,17.35,0,0,1,27.19,80.62Z"/><path class="cls-1" d="M20.65,94.48a20,20,0,0,1-.24,6l-.36,0Z"/><path class="cls-1" d="M29.65,100.94a30.92,30.92,0,0,1,1.59-7.45L30.08,101Z"/><path class="cls-1" d="M16.14,94.75l.78-3.3.09,0-.51,3.38Z"/><path class="cls-1" d="M15.59,89.86a5,5,0,0,1-.93,3.7Z"/><path class="cls-1" d="M17.45,96.61,18,92.83A6.33,6.33,0,0,1,17.45,96.61Z"/><path class="cls-1" d="M37.74,61.3l-.91,1.28-.26-.2,1.1-1.16Z"/><path class="cls-1" d="M32.84,69.18l-.54.57-.14-.14.56-.54Z"/><path class="cls-1" d="M91.59,27.07c-3.83,2.52-7.45,4.74-9.89,8.49a2.46,2.46,0,0,1,.5-2A20.64,20.64,0,0,1,90.77,27C90.88,26.9,91.05,27,91.59,27.07Z"/><path class="cls-1" d="M63.06,48.25c4.06-5.18,8.84-9.68,13.47-14.37a4.63,4.63,0,0,1-.47.81c-.65.77-1.3,1.55-2,2.27Q68.57,42.61,63.06,48.25Z"/><path class="cls-1" d="M105.83,38.6,94.91,43.78c-.06-.06-.11-.09-.13-.14s0-.09,0-.11c1.71-1,3.4-2,5.16-2.85s3.4-1.52,5.11-2.26a2.35,2.35,0,0,1,.6-.09Z"/><path class="cls-1" d="M102,35.5a34.14,34.14,0,0,1-7.76,4.34C95,39,100.89,35.64,102,35.5Z"/><path class="cls-1" d="M89.85,40.68a8.34,8.34,0,0,1-6.44.46,1.79,1.79,0,0,1-1.36-1.75c1.69,2,3.93,1.67,6.11,1.54A16,16,0,0,0,89.85,40.68Z"/><path class="cls-1" d="M125.26,29.54,117,31.45C120,30,123.64,29.11,125.26,29.54Z"/><path class="cls-1" d="M74.48,39.06l-4.24,4.26a18.08,18.08,0,0,1,4-4.54Z"/><path class="cls-1" d="M84.76,29.05,81.67,32.1a7.54,7.54,0,0,1,2.88-3.29Z"/><path class="cls-1" d="M84.8,46.45a6.17,6.17,0,0,1,2.34-1.89l.19.3Z"/><path class="cls-1" d="M98,38.84l2.61-1.23a5.31,5.31,0,0,1-2.37,1.58Z"/><path class="cls-1" d="M83.41,45.36,85.59,44l.2.32-2.18,1.37Z"/><path class="cls-1" d="M82.5,46.35l-1.92,1.3C81.27,46.75,81.27,46.75,82.5,46.35Z"/><path class="cls-1" d="M73,53.71l1-.78.15.3L73,53.67Z"/><path class="cls-1" d="M58.51,5.36c-2.64,5.88-5.19,11.78-6.12,18.37C51.68,20.08,55.7,8,58.51,5.36Z"/><path class="cls-1" d="M83.65,21.48c4.8-2.82,10-4.5,15.29-6.12l.15.36c-.52.23-1,.5-1.55.69-2.68.93-5.37,1.8-8,2.75-1.66.6-3.27,1.3-4.91,2Z"/><path class="cls-1" d="M60.65,16.61c1.09-2.72,6.3-8.13,8.68-9.14C68.72,8.56,67.76,9,67.07,9.76S65.54,11.24,64.79,12s-1.41,1.45-2.08,2.2S61.33,15.8,60.65,16.61Z"/><path class="cls-1" d="M58.32,9.22,54.94,20.16C54.86,18.18,57.08,10.87,58.32,9.22Z"/><path class="cls-1" d="M58,27.41a9,9,0,0,0,7.51,1.44C63.09,30.37,59.19,29.63,58,27.41Z"/><path class="cls-1" d="M86.5,14.61a51.86,51.86,0,0,1,7.86-2.55l.13.42L86.61,15Z"/><path class="cls-1" d="M95.79,14a58.33,58.33,0,0,1-6.94,2.77C90.46,15.59,94.5,14,95.79,14Z"/><path class="cls-1" d="M61.86,11.9A27.78,27.78,0,0,1,67,6.51,24.76,24.76,0,0,1,61.86,11.9Z"/><path class="cls-1" d="M66.67,31.09a19.42,19.42,0,0,1-3.14,4.77A12.32,12.32,0,0,1,66.67,31.09Z"/><path class="cls-1" d="M62.6,33.91a4.77,4.77,0,0,1,2.36-2l-2.09,2.28Z"/><path class="cls-1" d="M65,5.24l.65-.55.14.16-.66.6Z"/><path class="cls-1" d="M20.92,62.46c-.2.59-.42,1.3-.66,2a3.92,3.92,0,0,1-1.82,2.11c-1.21.75-2.34,1.64-3.49,2.49-.9.66-1.75,1.38-2.65,2a6.7,6.7,0,0,1-1.27.67,3.18,3.18,0,0,1-3.59-.46,2.88,2.88,0,0,1-.54-3.26c1.19-3.69,3.23-6.65,7.21-7.88,1-.31,2-.71,3-1.1a3,3,0,0,1,3.15.48C21.17,60.28,21.08,61.32,20.92,62.46ZM8.32,68.71c-.25,1.49.47,2.12,1.91,1.65a4.87,4.87,0,0,0,1.15-.55,20,20,0,0,0,2.06-1.5,17.82,17.82,0,0,1,4.36-3.18,1.47,1.47,0,0,0,.64-2.27,2.05,2.05,0,0,0-2.72-1c-.75.27-1.47.63-2.22.9A7.62,7.62,0,0,0,8.32,68.71Z"/><path class="cls-1" d="M6.51,83.1a19,19,0,0,1,4.58-7.3c-.79,1.2-1.63,2.37-2.34,3.61s-1.3,2.52-1.94,3.78Z"/><path class="cls-1" d="M7.81,60.38a29.35,29.35,0,0,1,5.26-4A19.24,19.24,0,0,1,7.81,60.38Z"/><path class="cls-1" d="M6.81,74.72,5.05,77.53A3.86,3.86,0,0,1,6.81,74.72Z"/><path class="cls-1" d="M5.76,80.65c.63-1,1.26-1.93,1.88-2.9L8,78,6.07,80.84Z"/><path class="cls-1" d="M10,57.11l2.17-1.6.21.23c-.35.28-.7.57-1.05.84s-.75.56-1.12.84Z"/><path class="cls-1" d="M32.28,50.55,30.4,51.79l-.19-.31,1.95-1.1Z"/><path class="cls-1" d="M22.35,49.34l-1.11.77-.17-.28,1.22-.58Z"/><path class="cls-1" d="M33.62,17.78a17,17,0,0,1,4.69-8.85c.56-.56,1.14-1.11,1.75-1.62a1.65,1.65,0,0,1,2.62.32,5.16,5.16,0,0,1,.71,5.26A20,20,0,0,0,42.11,16a35.38,35.38,0,0,0-.91,5.3,15.53,15.53,0,0,1-2,6.62c-.42.73-.87,1.54-1.89,1.52s-1.51-.86-1.93-1.67a3.57,3.57,0,0,1-.37-.88c-.46-2.28-.95-4.55-1.34-6.85A11.87,11.87,0,0,1,33.62,17.78Zm7.84-9.53a2.18,2.18,0,0,0-2.23,1A23.09,23.09,0,0,0,35.84,15a9.7,9.7,0,0,0-.74,4.83c.32,2.25.84,4.47,1.33,6.69a1.85,1.85,0,0,0,1.07,1.55A11.25,11.25,0,0,0,39.78,22,21.36,21.36,0,0,1,42,12.81,3.93,3.93,0,0,0,41.46,8.25Z"/><path class="cls-1" d="M31.89,26.75c-1.27-4.62.43-13.38,3.08-15.57C32.25,16.1,32,21.33,31.89,26.75Z"/><path class="cls-1" d="M43.91,30.15a41.19,41.19,0,0,1-.28,12.58Q43.77,36.45,43.91,30.15Z"/><path class="cls-1" d="M41.54,26c.58-2.21,1.15-4.42,1.73-6.63A13.38,13.38,0,0,1,41.54,26Z"/><path class="cls-1" d="M46.93,9.12l2.22-5.48.34.14C48.93,5.66,48,7.37,47.24,9.19Z"/><path class="cls-1" d="M46.51,5.93a3.83,3.83,0,0,1,.23-.7,6.28,6.28,0,0,1,.92-1.44A3.86,3.86,0,0,1,46.51,5.93Z"/></g></g></svg>