<svg xmlns="http://www.w3.org/2000/svg" viewBox="0 0 82.75 279.58"><defs><style>.cls-1{fill:#dbdbdb;}</style></defs><g id="Layer_2" data-name="Layer 2"><g id="OBJECTS"><path class="cls-1" d="M6.15,184.61c-.52-.81-1.06-1.62-1.56-2.45a7.11,7.11,0,0,1-.95-4.83c.77-5.41,1.3-10.85,2.15-16.25a56.89,56.89,0,0,1,4.06-14.69,5.15,5.15,0,0,1,4.75-3.32,17,17,0,0,1,6,.71l2.5.72c-.44-.63-.66-1-.91-1.27-5.35-6.74-8.5-14.25-7.8-23,.33-4.15,1-8.27,1.48-12.42.62-5.7,1.16-11.41,1.76-17.11.15-1.5.53-3,.55-4.49,0-3.9,0-7.79-.1-11.69,0-1.29-.11-2.59-.16-3.89a3.94,3.94,0,0,1,0-1c.4-1.86.6-3.4,4.16-3.17-.26-.34-.45-.61-.66-.86s-.43-.49-.66-.72c-2-2-3-4.21-2.17-7.18.88-3.29,1.32-6.69,1.95-10,.05-.27.12-.53.19-.79.73-2.78,1.06-3.14,3.49-4-.62-1.36-1.2-2.76-1.89-4.11a18.47,18.47,0,0,1-1.72-9.33,50,50,0,0,1,1.12-9.83,42.78,42.78,0,0,1,1.66-5.59C25,10,26.78,6,28.51,1.94A6,6,0,0,1,29.1.78,1.52,1.52,0,0,1,31.49.43a7.78,7.78,0,0,1,1,1,41.64,41.64,0,0,0,7.34,6.41c4.35,3,8.82,5.82,12.39,9.8a55.85,55.85,0,0,1,7.59,11.15,2.32,2.32,0,0,1,0,2.32c-1.3,2.5-2.61,5-3.9,7.51a5.43,5.43,0,0,0-.64,2c.9-.83,1.79-1.66,2.71-2.48,2.17-1.92,3-1.72,5,.33,3.24,3.39,4.7,7.47,5.42,11.94.3,1.82,1,3.58,1.19,5.39.36,3,.47,6,.72,9.06.19,2.26.42,4.52.66,6.78a12.34,12.34,0,0,0,2.46,5.94A14.39,14.39,0,0,1,75,80.36a3.51,3.51,0,0,1-.22,3.43,10.09,10.09,0,0,0-.59,1.33,8.94,8.94,0,0,1,4.58,4.72,30,30,0,0,1,2.66,9.51c.27,1.93.53,3.86.92,5.77a35.73,35.73,0,0,1,.08,10.68,67.7,67.7,0,0,1-3,13.63,63.8,63.8,0,0,0-3,15.1,35.46,35.46,0,0,0-.09,3.57,4.61,4.61,0,0,0,1.28,3.39,3.48,3.48,0,0,1,.9,2.35c-.2,5.84,1.33,11.5,1.63,17.29a38.24,38.24,0,0,1-1.78,14.73,48.21,48.21,0,0,1-2.85,6.55A10.75,10.75,0,0,1,73,195.19c-2.2,1.95-4.48,3.81-6.71,5.72-.33.27-.63.59-1,1a8.42,8.42,0,0,0,.94.31c1.42.36,2.88.62,4.27,1.09s1.85,1.57.78,2.72a15.39,15.39,0,0,0-2.7,5A31.47,31.47,0,0,1,64,219q-4.08,5-8.21,9.92a38.92,38.92,0,0,1-9.42,8.25c-.78.48-1.51,1.07-2.25,1.61-.22.16-.41.37-.63.52-3.58,2.32-6.68,5.24-10.1,7.76a52,52,0,0,1-5,3.07,10.21,10.21,0,0,1-1.87.62,10.66,10.66,0,0,0-.6,1.09A58.72,58.72,0,0,1,22,259c-2.56,4.22-5,8.53-7.51,12.76-1.2,2-2.57,3.89-3.88,5.82a4.57,4.57,0,0,1-.77.82c-1.5,1.41-2.11,1.51-3.95.7a24.15,24.15,0,0,1-2.52-1.18c-1.09-.65-1-1.37,0-2.12a24.15,24.15,0,0,0,2.82-2.42c1.3-1.31,2.51-2.72,3.75-4.09a58.07,58.07,0,0,0,8.07-12c.38-.71.74-1.45,1.16-2.14,2.5-4,2.52-8.26,1.27-12.66-.72-2.55-1.31-5.14-2-7.71a47.9,47.9,0,0,0-5.79-13.69c-1.24-1.92-2.46-3.84-3.71-5.75a42,42,0,0,1-4.51-10.25c-.54-1.65-1.16-3.28-1.63-4.94a66.09,66.09,0,0,1-1.58-6.46,58.45,58.45,0,0,1-1.08-6.85A25.29,25.29,0,0,1,0,184.07a1.4,1.4,0,0,1,2.16-1.32A26.28,26.28,0,0,1,4.6,184.1l1.4.78ZM40,168.82l2.53,2.43c.64-1.83.63-1.82-.34-3.16-1.18-1.62-2.33-3.27-3.51-4.9a34.08,34.08,0,0,0-5.78-6.61A33.19,33.19,0,0,1,25.22,148c-.19-.32-.43-.72-.74-.83-1.45-.54-2.94-1-4.42-1.47l-.24.33,3.41,4.6a1.62,1.62,0,0,1-1-.59c-1-1.27-2.05-2.54-3-3.83-.77-1-.81-1.06-2.34-.94,1.83,2.22,3.66,4.35,5.27,6.65l-.28.21L15.92,145c-.64.06-1.29.09-1.93.18a8.25,8.25,0,0,0-1.13.33,6.52,6.52,0,0,0,2.11,4c4.71,5,9.51,9.86,13.76,15.23S36.94,175.23,40,181.2c.06.13.21.22.33.34,1.07-2.29,1-3-.32-4.86q-5.07-7.29-10.11-14.6a12.43,12.43,0,0,1-.64-1.12l.24-.15,11.81,16A2.07,2.07,0,0,0,41.2,174c-2.64-3.52-5.21-7.09-7.79-10.65a7.9,7.9,0,0,1-.46-.8l.2-.13,8.77,11.38a1.75,1.75,0,0,0-.06-2.46c-.68-.79-1.23-1.7-1.84-2.56ZM25,187.45a5.37,5.37,0,0,1,.88.67c3.25,3.66,6.47,7.33,9.71,11a10,10,0,0,0,.85.8c.34-1.14.73-2,0-3.07a79.79,79.79,0,0,0-8.75-11.54q-6.39-6.54-12.84-13A27.86,27.86,0,0,1,8.68,164c-.21-.47-.51-.9-.94-1.66-.31,2-.58,3.55-.8,5.15a1.53,1.53,0,0,0,.34.86q1.84,2.87,3.71,5.73l.51.77-.26.18c-.76-1-1.57-1.91-2.27-2.91s-1.38-2.17-2.1-3.3a2.61,2.61,0,0,0,.52,3c2,2.41,4,4.88,6,7.34.46.57.86,1.18,1.29,1.78l-.23.17-7.85-9.33A1.83,1.83,0,0,0,6.83,174c2.71,3.26,5.4,6.53,8.1,9.8.14.17.26.36.4.54-3.51-2.86-6.15-6.47-9.11-10.14-.21,1.36-.32,2.43-.55,3.48a4.11,4.11,0,0,0,.56,3.12c.53.88,1.12,1.73,1.7,2.58.7,1,1.38,2.09,2.13,3.08A13.94,13.94,0,0,0,12.27,189c2.46,2,4.93,4,7.54,5.71a46.39,46.39,0,0,1,13.1,12.56,11.65,11.65,0,0,0,.82,1,2.23,2.23,0,0,0-.28-3.23c-4.16-4.59-8.22-9.27-12.31-13.92-.37-.42-.7-.88-1.05-1.32,5.09,4.91,9.86,10.1,14.56,15.38.81-.91.48-1.51-.1-2.13q-3.93-4.25-7.84-8.51c-.32-.35-.6-.73-.9-1.09l.27-.21,9.37,9.82.71-2.08c-.47-.58-.9-1.14-1.35-1.68q-4.49-5.28-9-10.57a10.45,10.45,0,0,1-.86-1.3Zm42.14-43.18h0a6.43,6.43,0,0,1,.71-.84c2-1.69,3.92-3.48,6-5,1.49-1.05,1.69-2.42,2-4.3l-14,12.1-.24-.24c.29-.3.56-.61.87-.88,4.25-3.82,8.49-7.64,12.77-11.43a4.31,4.31,0,0,0,1.39-2.12c.71-2.56,1.51-5.1,2.22-7.66.33-1.17.54-2.37.8-3.56-.2,0-.28-.08-.3-.06-.19.19-.36.38-.54.58-1.61,1.76-3.13,3.62-4.84,5.27-2.12,2-4.39,3.91-6.61,5.84-2.75,2.38-5.59,4.69-8.28,7.15A70.12,70.12,0,0,0,49.88,149c-1.3,1.74-1.57,3.67-1.82,6l4.4-4.18a1.89,1.89,0,0,1-.57,1.15c-1.19,1.27-2.4,2.52-3.57,3.8-.75.83-.73.85-.5,2.05L52.57,153l.26.23c-.25.25-.51.5-.75.77l-4.24,4.74a3.26,3.26,0,0,0-.8,2.63l4.47-4.73a1.1,1.1,0,0,1-.3.93c-1.27,1.48-2.53,3-3.86,4.42a4,4,0,0,0-.81,3.54q2.26-2.22,4.51-4.46l.25.23a55.45,55.45,0,0,1-4.14,4.51c-1.37,1.23-1.62,2.64-1.64,4.42.31-.21.49-.32.66-.45,4-3.08,8-6.18,12-9.24,1.82-1.38,3.79-2.58,5.51-4.07a81.53,81.53,0,0,0,9.51-9.62c1.25-1.5,1-3,1.3-4.92L68.2,147a1.73,1.73,0,0,1,.68-1.07c1.57-1.35,3.09-2.76,4.72-4a3.71,3.71,0,0,0,1.31-3.58c-.51.37-.91.63-1.28.93-1.73,1.4-3.45,2.82-5.19,4.22A13,13,0,0,1,67.09,144.27ZM44.45,184.44l.2.27c-2,1.16-3.53,2.57-3.27,5.16a5.07,5.07,0,0,0,.54-.35,59.92,59.92,0,0,1,10.2-7.33c5-3,9.84-6,14.87-8.89a57.5,57.5,0,0,0,10.52-8c-.3-1.88-.72-3.79-.89-5.73s-.12-3.94-.17-6c-.55.19-.92.29-1.27.43l-12.12,4.95a3.57,3.57,0,0,0-.56.33c-4.93,3.59-9.84,7.2-14.8,10.76a7.17,7.17,0,0,0-3.4,5.57,37.89,37.89,0,0,1-.83,4.32c.71-.55,1.11-.89,1.54-1.19,2.69-1.86,5.36-3.74,8.07-5.56a3.41,3.41,0,0,1,2.16-.77,7.26,7.26,0,0,1-1.3.94,58.12,58.12,0,0,0-10,7.53A2.2,2.2,0,0,0,43,183c3.07-2.34,5.89-4.79,9.17-6.61a3.07,3.07,0,0,1-.83.89l-8.05,6.4a1.73,1.73,0,0,0-.86,2ZM9.1,156c-.57,1.53-.58,1.53.13,2.57a120.33,120.33,0,0,0,12.49,15c.26.27.51.56.77.84a75.4,75.4,0,0,1-14-15.55,1.2,1.2,0,0,0-.07,1.7A37.79,37.79,0,0,1,10.38,164a24.09,24.09,0,0,0,4.67,6.43c2.92,3,5.78,6.06,8.79,9a73.2,73.2,0,0,1,12.85,15.72,9.79,9.79,0,0,0,.66.84l.52-1.9a3.89,3.89,0,0,0-.6-3.48c-2.28-3.37-4.4-6.85-6.56-10.3a4.88,4.88,0,0,1-.88-2.26l8.53,12.61a3.1,3.1,0,0,0-.25-3.51c-1.58-2.18-3-4.47-4.48-6.72,2.2,2,3.51,4.67,5.51,6.91,1-2.77,1-2.88-.3-5.15-.8-1.35-1.58-2.72-2.45-4-6.47-9.84-14.36-18.53-22.52-27a7.21,7.21,0,0,0-.85-.63l.33,1-.23.13-1.95-2.86c-1.4,2.58-1.42,2.68.06,4.67,1.84,2.48,3.74,4.93,5.6,7.4.44.58.85,1.19,1.27,1.79l-.26.21c-.9-1.12-1.81-2.22-2.71-3.34s-1.75-2.21-2.6-3.34-1.71-2.27-2.6-3.46a2.9,2.9,0,0,0,.27,3.86c2.94,3.63,5.81,7.31,8.7,11,.3.37.59.76.88,1.14A105,105,0,0,1,9.1,156ZM67,182l-.18-.37,11.44-7c-.16-2.42-.34-5-.53-7.87-.92.76-1.56,1.34-2.24,1.86-1.91,1.45-3.8,2.91-5.76,4.29-1.38,1-2.85,1.81-4.28,2.71-2.72,1.7-5.44,3.42-8.18,5.09-2.38,1.44-4.86,2.72-7.17,4.26-2.85,1.9-5.56,4-8.33,6a3.17,3.17,0,0,0-1.2,3.09,80.2,80.2,0,0,1,17.56-9.87,10,10,0,0,1-1.68,1.11c-1.63.89-3.28,1.74-4.88,2.66a75.15,75.15,0,0,0-10.61,7,3.54,3.54,0,0,0-1.3,2.83c3.82-2.58,7.26-5.28,11.32-7a.57.57,0,0,1-.23.4c-3.44,2.3-6.85,4.64-10.33,6.89a3.67,3.67,0,0,0-1.62,3.11l1.33-.6c2.53-1.16,4.64-3.18,7.51-3.67,7.67-3.57,15.14-7.52,22.45-11.76.94-.54,1.83-1.19,2.72-1.81q2.22-1.53,4.41-3.1a1.33,1.33,0,0,0,.56-.72c.19-1.32.3-2.65.47-4.34ZM19.19,96.16c-.26,2.21-.41,4.09-.72,6a3.71,3.71,0,0,0,1.36,3.71c3.27,3,6.47,6,9.69,9,.55.51,1.08,1,1.62,1.57a98.64,98.64,0,0,1-12.83-11c-.12,1.23-.24,2.13-.3,3a1.86,1.86,0,0,0,.2.93,31.27,31.27,0,0,0,5.35,8.14,118.12,118.12,0,0,0,9,8.09c4.94,4,10.22,7.6,14.66,12.2,0,0,.09,0,.3.08a16.55,16.55,0,0,1,.13-1.75,2.35,2.35,0,0,0-1.28-2.64A67.7,67.7,0,0,1,36,125c-.38-.38-.72-.81-1.08-1.21,4.24,3.08,8.27,6.35,12.61,9.32.41-2.09.38-2-1-3.08-2.61-1.95-5.18-4-7.75-6a14.46,14.46,0,0,1-1.19-1.16c3.45,2.16,6.64,4.65,10.06,6.9a2.37,2.37,0,0,0-1.06-3.16,27.22,27.22,0,0,1-2.81-2.23c-.68-.56-1.33-1.15-2-1.72l.16-.18,5.85,4.18c0-1.29,0-1.3-.68-1.85l-3.63-2.73.18-.25,4.09,2.81a1,1,0,0,0-.31-1.5c-.7-.59-1.41-1.19-2.15-1.74-5.67-4.14-11.57-8-16.6-12.92a15.7,15.7,0,0,0-1.26-1,15.63,15.63,0,0,1-3.56-4C22.4,101.17,20.9,98.86,19.19,96.16Zm58.06,86.22-.35-.2-1.45,1c-1.56,1.08-3.06,2.29-4.71,3.23-6.22,3.51-12.43,7-19,9.94a80.68,80.68,0,0,0-12.65,6.48,3.65,3.65,0,0,0-1.72,3.2c.59-.31,1.06-.57,1.53-.8q6.13-3.09,12.28-6.15a5.51,5.51,0,0,1,1.14-.32,3.26,3.26,0,0,1-1.07.79l-13.55,7.27c-.51.28-1.16.47-1,1.47,1.17-.68,2.28-1.34,3.4-2s2.19-1.23,3.31-1.78a10,10,0,0,1,3.44-1.37,2,2,0,0,1-.63.51c-3.07,1.76-6.14,3.53-9.23,5.26A1.9,1.9,0,0,0,35.86,211l5.6-2.62a1,1,0,0,1-.56.74c-1.5.88-3,1.81-4.53,2.61a2.31,2.31,0,0,0-1.27,2.39c1.61-.8,2.95-1.85,4.58-2.29a26.32,26.32,0,0,1-3.5,2.38,2.82,2.82,0,0,0-1.74,3l.82-.54c2.57-1.63,5.05-3.44,7.75-4.85,4.58-2.41,9.27-4.62,14-6.8a21.47,21.47,0,0,0,6.59-4.35,100.84,100.84,0,0,1,8.23-7.19,9.71,9.71,0,0,0,3-4.76c-6.73,3.85-13.25,8-20.51,10.84,2.08-1.25,4.27-2.31,6.38-3.52,4.77-2.75,9.5-5.56,14.24-8.36a1.82,1.82,0,0,0,.8-.75C76.27,185.44,76.74,183.91,77.25,182.38ZM38.37,138.63c3.19,1.9,5.59,4.6,8.29,7a2,2,0,0,0-.79-2.93,23.67,23.67,0,0,1-2.18-2c-.49-.49-.94-1-1.41-1.53a11.15,11.15,0,0,1,2.38,1.7,7.54,7.54,0,0,0,2.48,1.81c0-.46,0-.79.11-1.1a2.64,2.64,0,0,0-1-2.84c-1.88-1.57-3.61-3.31-5.53-4.83-5.34-4.2-10.77-8.28-15.78-12.9a33.34,33.34,0,0,1-6.32-7.81c-.26-.45-.55-.89-.86-1.4-.14.22-.23.31-.24.4a7.4,7.4,0,0,1-.17,1c-.7,2,0,3.47,1.42,5,3.43,3.85,6.67,7.88,10.43,11.43a3.18,3.18,0,0,1,.26.35,8.27,8.27,0,0,1-2.24-1.68c-3.08-3.29-6.12-6.61-9.18-9.92-.34-.37-.69-.73-1.13-1.19-.4,2.31-.26,1.93.6,3.24a64.26,64.26,0,0,0,12.88,14.8,7.19,7.19,0,0,1-3-1.79,49.82,49.82,0,0,1-10-11.5c-.2-.32-.46-.61-.69-.91a2.94,2.94,0,0,0,.08,1.83,30.67,30.67,0,0,0,8.15,11.24c2.23,2,4.58,3.85,6.86,5.79,5,4.25,9.78,8.65,13.29,14.25a2.46,2.46,0,0,0,.46.34c.19-1.15.31-2.22.55-3.26a1.57,1.57,0,0,0-.54-1.57q-5-5.35-10-10.74c-.27-.29-.5-.61-.74-.92a3.2,3.2,0,0,1,1.38.83c3,3,5.9,5.94,8.85,8.9.39.39.69.92,1.28,1.07a2.23,2.23,0,0,0-.71-2.94c-1-.92-1.89-1.95-2.85-2.92C41.29,141.53,39.83,140.08,38.37,138.63ZM2.88,191.36c.26,2.39.36,4.45,2.08,6a7.09,7.09,0,0,1,1,1.31,16.44,16.44,0,0,0,4.31,4.41c3.06,2.07,6.08,4.21,9.23,6.16a64.24,64.24,0,0,1,11,8.89c.25.24.53.44.9.73.2-.84.31-1.53.52-2.19a1.33,1.33,0,0,0-.53-1.55c-3.34-2.95-6.66-5.93-10-8.9-.3-.27-.6-.56-.9-.84,4.21,2.7,7.76,6.18,11.61,9.36.53-1.27.51-1.26-.3-2q-4.84-4.26-9.66-8.53a5.7,5.7,0,0,1-.46-.52l.2-.22,10.83,9.28c.31-1.43,1.1-2.49.07-3.84a50.07,50.07,0,0,0-13-12.27c-1.6-1-3.1-2.2-4.68-3.26C13,192,11.25,190,8.82,188.92A57.79,57.79,0,0,1,3,185.36a8.74,8.74,0,0,0-1-.44c0,2.22,0,2.23,1.47,3.42,2.09,1.66,4.19,3.29,6.28,4.94.28.22.52.49.78.73l-.15.16-7.88-5.82a2.77,2.77,0,0,0,1.15,2.83c2.91,2.28,5.77,4.63,8.64,6.95.38.3.74.63,1.11,1l-.19.22ZM31.1,231.54c.42-.28.78-.49,1.12-.73a30.35,30.35,0,0,1,6.91-3.68c1.59-.59,3.19-1.14,4.76-1.77a87.62,87.62,0,0,0,19.64-10.65,6.08,6.08,0,0,0,2.32-3.23c-4,1.67-7.47,4-11.39,5.35,3.87-2.13,7.61-4.5,11.77-6.14l2.41-5.36-5.35,1a38.33,38.33,0,0,1-4.35.73,16.78,16.78,0,0,0-6.16,1.53c-4.05,1.91-8.07,3.86-12,5.93-1.92,1-3.67,2.34-5.54,3.46a3.41,3.41,0,0,0-1.64,3.69c2.37-1.61,4.64-3.2,7-4.7a27.49,27.49,0,0,1,7.29-3.69A29.23,29.23,0,0,1,45,215.16c-1,.62-1.91,1.25-2.86,1.88s-1.91,1.26-2.86,1.91-1.91,1.27-2.81,2S34.62,222,34.08,223c3.14-1.79,6.1-3.87,9.49-5.2a1.13,1.13,0,0,1-.49.56c-3.16,2-6.32,4.07-9.5,6.07-.81.51-1.39,1-1.09,2.19l1.69-1c.56-.34,1.11-.69,1.68-1s1.23-.7,1.87-1,1-.68,1.66-.56c-2.5,1.72-5.08,3.29-7.49,5.12a11.28,11.28,0,0,0,2.29-1,6.88,6.88,0,0,1,2.38-1,3.25,3.25,0,0,1-1,.87c-1.2.77-2.39,1.54-3.6,2.27A1.87,1.87,0,0,0,31.1,231.54Zm18.18-84.48a3.17,3.17,0,0,0,.42-.35A88.62,88.62,0,0,1,63,133.29q3.24-2.74,6.49-5.48A43.28,43.28,0,0,0,80,115.9a3.38,3.38,0,0,0,.5-1.16,29.3,29.3,0,0,0,0-8.57c-.09-.5-.25-1-.44-1.72-.76.89-1.3,1.63-1.94,2.27-3.8,3.73-7.54,7.52-11.44,11.14a91.28,91.28,0,0,0-13.57,15.36c-1.06,1.55-2,3.2-3,4.81,3.37-3.69,6.18-7.81,10.16-10.9a1,1,0,0,1-.3.56,96,96,0,0,0-9.47,12,2.8,2.8,0,0,0-.62,2.23A81.31,81.31,0,0,1,58,133a1.5,1.5,0,0,1-.34.69c-2.25,2.78-4.44,5.63-6.78,8.33A7.13,7.13,0,0,0,49.28,147.06Zm1-12.55a8.77,8.77,0,0,0,.66-.88A69.27,69.27,0,0,1,61.71,120c3.82-3.71,7.77-7.29,11.54-11.06,2-2,3.79-4.32,5.64-6.51a2.53,2.53,0,0,0,.59-2.28c-.53-2.37-1-4.75-1.58-7.12a2.26,2.26,0,0,0-.45-.67,27.38,27.38,0,0,1-1.8,2.43c-2.21,2.39-4.44,4.77-6.73,7.09-2.72,2.74-5.55,5.37-8.24,8.14-2.12,2.18-4.15,4.45-6.11,6.77a24.6,24.6,0,0,0-3.76,6.44c-.2.49-.53,1-.14,1.61,2.3-2.87,4.48-5.71,6.8-8.43,3.69-4.33,6.1-6.5,7.85-7.24l-.9.93A114.35,114.35,0,0,0,51.1,126.31a3.59,3.59,0,0,0-.59,3.3,133.28,133.28,0,0,1,11.84-13.29c-3.42,4.41-6.86,8.82-10.57,13a5.59,5.59,0,0,0-1.58,4.46C50.21,133.92,50.23,134.08,50.27,134.51Zm-30-58.77c.08,2.87.14,5.46.23,8a2.12,2.12,0,0,0,.26.92,23.66,23.66,0,0,0,4.16,5.8c2.88,2.65,5.77,5.29,8.72,7.86,2.37,2.07,4.82,4,7.28,6,2,1.63,4.12,3.19,6.2,4.78.27.21.58.38.9.59a1.65,1.65,0,0,0-.69-2.05c-4.18-3.39-8.31-6.83-12.45-10.26-.29-.24-.53-.54-.8-.8a3.63,3.63,0,0,1,1.46.76c3.68,2.88,7.34,5.78,11,8.64.43.33.77.94,1.49.78.15-1.93.12-1.9-1.32-3-2.32-1.7-4.61-3.46-6.91-5.19a2.82,2.82,0,0,1-.36-.33c-.1-.12-.18-.25-.27-.38,3.1,1.72,5.71,4.07,8.74,5.88A2.28,2.28,0,0,0,46.66,101c-2.53-1.6-5-3.28-7.5-4.94-.71-.47-1.4-1-2.11-1.48,3.71,1.77,7,4.18,10.78,6.29a16.57,16.57,0,0,1-.06-1.73,2.67,2.67,0,0,0-1.29-2.6c-1.6-1.13-3.11-2.37-4.69-3.53-2-1.47-4.19-2.77-6.08-4.39C30.85,84.45,25.56,80.78,21,76.28,20.82,76.14,20.63,76,20.24,75.74Zm-15,125.15c.45,1.44.91,2.87,1.36,4.31a36.57,36.57,0,0,0,4.64,10c.68,1,1.3,2,1.94,3A17.22,17.22,0,0,0,19.26,224a30.08,30.08,0,0,1,8.68,6.82c.07.09.26.1.39.14l1.06-3.1-10.87-9.75.23-.27c1.21,1,2.42,2,3.61,2.95s2.41,2,3.63,3a29.82,29.82,0,0,0,3.61,2.94c.67-1.93.68-1.94-.62-3l-7.65-6.36c-.22-.19-.42-.41-.63-.62a42.39,42.39,0,0,1,5,3.37c1.56,1.2,3.07,2.44,4.75,3.78a8.53,8.53,0,0,1,.33-1.52c.59-1.37.06-2.34-1-3.26a78.36,78.36,0,0,0-10.53-8.22c-2.32-1.43-4.64-2.85-6.88-4.4A38.28,38.28,0,0,1,5.27,200.89ZM48.1,118.16a55.69,55.69,0,0,1-9.73-8.73c1.09.78,2.08,1.66,3.09,2.53s2.14,1.86,3.26,2.72A11.21,11.21,0,0,0,48,116.89c.41-1.47-.14-2.22-1.37-2.93a63,63,0,0,1-5.34-3.73,6.88,6.88,0,0,1-.82-.8c2.62,1.29,4.83,3.21,7.52,4.42.39-1.53,0-2.54-1.23-3.2-.33-.18-.6-.46-.92-.68a170.59,170.59,0,0,1-18.6-15.1A32.19,32.19,0,0,1,21.07,88c-.18-.3-.38-.58-.63-1-.45.86,0,1.35.41,1.85q4.26,5,8.53,10.06a7.67,7.67,0,0,1,.53.74,22,22,0,0,1-3.46-3.2c-1.1-1.2-2.13-2.46-3.22-3.67a27,27,0,0,0-3.08-3.5c-.51,3.11-.72,2.33,1,4.21,3.3,3.67,6.71,7.26,10.07,10.88l1.08,1.18c-4.65-3.54-8.53-7.84-12.58-12A2.51,2.51,0,0,0,20,94.7a80,80,0,0,0,6.37,9.82,7.51,7.51,0,0,0,1.38,1.38,172.08,172.08,0,0,0,15,12c1.78,1.2,3.41,2.61,5.29,4.06C48.05,120.59,48.07,119.42,48.1,118.16ZM30.4,236.76l.25.39c1.39-.74,2.75-1.51,4.15-2.22a15,15,0,0,1,4.44-1.73,4.18,4.18,0,0,1-1,.71c-2.48,1.38-5,2.75-7.42,4.16-1.05.6-1.09.76-1.09,2.28l2-1.15c.62-.34,1.22-.71,1.85-1a3.32,3.32,0,0,1,2-.69,39.75,39.75,0,0,1-5.26,3.29c-1.35.67-1.67,1.62-1.62,3.11l2.63-1.68a9.33,9.33,0,0,1-2.16,2.14,4.19,4.19,0,0,0-1.52,3.72A56.44,56.44,0,0,0,36.26,242c2.89-2.38,5.92-4.61,9-6.72a41.73,41.73,0,0,0,8.45-7.39c2.35-2.77,4.63-5.61,6.94-8.43.23-.28.43-.61.83-1.19-1.54.9-2.75,1.64-4,2.33a92.85,92.85,0,0,1-17.5,7.7,31.88,31.88,0,0,0-8.14,4.14,2,2,0,0,0-.9,2.53c1.61-1,3.12-1.93,4.68-2.82s3.07-1.67,4.63-2.44a15.62,15.62,0,0,1,4.93-1.79c-1.25.75-2.53,1.43-3.8,2.11s-2.51,1.33-3.74,2-2.56,1.46-3.79,2.27A15.92,15.92,0,0,0,30.4,236.76ZM47.59,95.69c-.12-1.35-.25-2.42-.3-3.49a2.18,2.18,0,0,0-1.09-1.82c-4-2.92-7.93-5.9-11.88-8.88-.53-.4-1-.88-1.49-1.33,4.84,2.91,9.2,6.47,14,9.5A3.16,3.16,0,0,0,45,85.87a40,40,0,0,1-8.31-5.72c-.4-.36-.76-.76-1.14-1.14a102.64,102.64,0,0,0,11.06,6.83c-.12-1.06-.21-1.85-.28-2.49C45.12,82.72,44,82.26,43,81.61q-5-3.28-9.86-6.68a55.35,55.35,0,0,0-8.44-5.26,23.33,23.33,0,0,0-3.4-1.12c-.49-.14-1.1,0-1.15.6C20,71,19.63,72.84,21,74.41c.46.53,1,1,1.5,1.5a92.74,92.74,0,0,0,8.11,6.54C36.2,86.77,41.76,91.13,47.59,95.69ZM43,167.12l.35-.08a13.38,13.38,0,0,1,.35-1.89,2.31,2.31,0,0,0-.66-2.48c-2.8-3.18-5.55-6.41-8.31-9.62-.2-.23-.36-.5-.54-.74,3.7,2.9,6.59,6.54,9.8,10,.43-.76.4-1.26-.12-1.75s-1.07-1.08-1.57-1.65q-3.29-3.81-6.55-7.63c3.21,2.55,5.72,5.77,8.65,8.68a4.93,4.93,0,0,0-.62-5.47,58.5,58.5,0,0,0-7.33-8.07c-3.82-3.47-7.79-6.79-11.67-10.19a32.23,32.23,0,0,1-7.23-8.75,7,7,0,0,0-.46-.65,12.65,12.65,0,0,0,3.15,8.2c.78.83,1.57,1.66,2.37,2.47,2,2.07,4,4.12,6,6.18l-.2.2-6.61-6.21c2.19,4.22,5.93,7.06,8.93,10.59l-4.09-3.36c.92,1.79,2.1,3.36,3,5.07a20.17,20.17,0,0,0,3.5,4.45,62.86,62.86,0,0,1,8.48,10.69C42.1,165.8,42.57,166.45,43,167.12Zm7.54-54.74.41.24A63.17,63.17,0,0,1,57.5,106a1,1,0,0,1-.29.58c-1.93,2.34-3.88,4.68-5.8,7-.31.37-.72.79-.74,1.21-.1,1.68-.06,3.36-.07,5a2.33,2.33,0,0,0,.84-.93A28.91,28.91,0,0,1,56,112.56c2.14-2.32,4.32-4.6,6.51-6.86Q68.22,99.81,74,93.94a10.11,10.11,0,0,0,2.49-4.22l-1.61-1.88a1.93,1.93,0,0,0-.45.08,5.18,5.18,0,0,0-.57.31c-3.93,2.45-7.88,4.86-11.16,8.19-1.33,1.35-2.89,2.47-4.35,3.69a38.85,38.85,0,0,0-6.29,6.59,16,16,0,0,0-1.22,1.92,4.67,4.67,0,0,0-.13,1.23c2.93-2.93,5.41-5.88,8.84-7.77a6.26,6.26,0,0,1-1,1.24c-2.37,2.54-4.75,5.07-7.1,7.63A9.68,9.68,0,0,0,50.55,112.38Zm7-18,.2.17c-.26.32-.51.66-.78,1-1.91,2.08-3.84,4.15-5.74,6.23-.29.31-.68.68-.7,1a26,26,0,0,0,.09,3c.31-.18.43-.21.49-.29A44.65,44.65,0,0,1,59.26,97c4.19-3.63,8.49-7.19,12-11.53,2.3-2.88,2.69-3.92.62-6.48A22.58,22.58,0,0,1,67.12,84a12.08,12.08,0,0,1,1.23-1.68c.86-1,1.74-2.08,2.57-3.15.33-.41.68-.9,0-1.45-2.2,2.11-3.89,4.71-6.41,6.53l6-7.35L69.4,74.5a64.26,64.26,0,0,1-7.62,9.55c-1.32,1.36-2.62,2.77-3.81,4.25-2.28,2.83-4.49,5.71-6.69,8.6a4.09,4.09,0,0,0-.91,2.33l2.34-2.73c.74-.87,1.49-1.73,2.26-2.57s1.45-1.62,2.21-2.39a9,9,0,0,1,2.49-2c-1,1.34-2.14,2.6-3.21,3.88s-2.08,2.51-3.1,3.78a29.18,29.18,0,0,0-3,3.85l.31.26ZM45.06,68a1.91,1.91,0,0,0-.87-2.39c-2.57-1.73-5.07-3.57-7.6-5.37-.36-.26-.67-.58-1-.86l.18-.24,9.14,6c.11-2.34.13-2.37-1.41-3.59-1.88-1.48-3.79-2.92-5.72-4.34C33,53.62,28,50.24,23.91,45.8c-.09-.11-.27-.14-.5-.25a4.6,4.6,0,0,0-.42.87c-.43,1.95-.85,3.91-1.21,5.88a1.65,1.65,0,0,0,.32,1,28.75,28.75,0,0,0,7.43,7.92c5,3.55,9.94,7.06,14.92,10.58.29.2.6.37,1.1.68-.1-1.19-.17-2.14-.24-3A157.79,157.79,0,0,1,31.1,59.41c-.47-.37-.88-.81-1.32-1.22l.24-.28C34.77,61.54,39.79,64.74,45.06,68Zm9.13,5.66.2.17a2.15,2.15,0,0,1-.21.4c-1.63,2-3.28,3.91-4.9,5.87-.27.32-.65.72-.64,1.07,0,1,.21,2.09.37,3.43l.64-.69c1.8-2.18,3.52-4.41,5.4-6.52A87.82,87.82,0,0,0,66.26,62.66c2-3.56,2.16-3.49,1.24-7.55-.06-.26-.12-.53-.19-.79l-.66-2.42a12.71,12.71,0,0,0-1.56,2.57,48.41,48.41,0,0,1-9.5,12.11c-2.36,2.24-4.48,4.72-6.7,7.1a2.52,2.52,0,0,0-.36,2.85,46,46,0,0,1,5-5.23,1.9,1.9,0,0,1-.41.87c-1.34,1.71-2.66,3.43-4,5.11a1.75,1.75,0,0,0-.4,2.13Zm15-.7-.45-2.72c-.83,1-1.46,1.76-2.13,2.51s-1.32,1.45-2,2.14a7.05,7.05,0,0,1-2.18,1.85,3.77,3.77,0,0,1,.62-1c1.65-2,3.3-4,4.93-6.07.39-.49.93-1,.37-1.72l-7.77,9.36a1.1,1.1,0,0,1,.2-1c2.24-3.07,4.43-6.18,6.76-9.17,1.07-1.38,1-2.74.64-4.52-.92,1.54-1.66,2.85-2.47,4.12a80.45,80.45,0,0,1-9.39,11.45c-2,2.14-3.89,4.39-5.92,6.51-1.38,1.46-1.25,3-.72,4.85.67-.77,1.21-1.45,1.79-2.09s1.22-1.25,1.83-1.88A23.54,23.54,0,0,1,50.5,90a3.53,3.53,0,0,0-.43,3.59l2-2.21a13.36,13.36,0,0,1-1.6,2.85c-.44.66-.43.67-.12,1.66a2.23,2.23,0,0,0,.34-.35,96.68,96.68,0,0,1,10-12.6c1.93-2.14,3.78-4.34,5.65-6.54C67.29,75.35,68.16,74.23,69.19,73ZM45.85,75.35a3.52,3.52,0,0,0-1.78-1.95q-7.35-5.18-14.73-10.28a29.42,29.42,0,0,1-5.84-5.41c-.72-.86-1.33-1.8-2.13-2.9-.34,1.6-.62,3-.95,4.42a3.11,3.11,0,0,0,.76,3c1.17,1.28,2.28,2.63,3.52,3.84a42.85,42.85,0,0,0,7.39,6.36c4.19,2.54,8.21,5.34,12.32,8,.47.3,1,.53,1.64.88,0-1.21.16-2.12-1-2.77-2.6-1.49-5.12-3.1-7.65-4.7-1-.63-1.92-1.36-2.88-2l.2-.3c3.75,1.86,7.2,4.29,10.94,6.24a1.34,1.34,0,0,0-.61-1.9q-.84-.5-1.65-1.05c-1-.69-2-1.41-3.07-2.11l.17-.27Zm2.29-3.1C50,70.19,51.76,68,53.75,66.12A48.91,48.91,0,0,0,65,50.91c1.48-1.44,1-3,.36-4.63-.41-1-.84-2-1.3-3a7.9,7.9,0,0,0-.7-1c-1,1.78-1.84,3.45-2.77,5.1-2,3.48-4.69,6.36-7.31,9.35C51.46,58.77,49.77,61,48,63.11a2.5,2.5,0,0,0-.27,2.75c2-2.16,3.63-4.49,5.68-6.41l.29.24L47.9,67.42l.19.15,2.67-2.85.29.24a22.72,22.72,0,0,1-2.15,2.79C47.41,69.16,47.84,70.73,48.14,72.25ZM43.07,44c-.16-.62-.14-1-.3-1.12-.85-.82-1.73-1.63-2.64-2.4s-2-1.48-2.92-2.34c-3-2.89-6-5.81-9-8.75a19,19,0,0,1-4-5.7c-.19-.41-.45-.78-.67-1.17a32.1,32.1,0,0,0-.68,3.91,2.41,2.41,0,0,0,1,2.38c1.33,1.17,2.57,2.46,3.84,3.7l-.27.29-4.49-4a1.55,1.55,0,0,0,.39,2c.89.81,1.74,1.68,2.6,2.52l-.19.21-2.86-2.21-.23.21c.35.53.68,1.07,1.06,1.57A50.27,50.27,0,0,0,36.81,44.73c2,1.27,3.81,2.7,5.72,4.05.28.2.57.39.92.62a2.38,2.38,0,0,0-1.21-2.83c-2.39-1.6-4.7-3.33-7-5-.41-.3-.77-.67-1.15-1,3.15,1.57,6,3.62,9.08,5.45,0-.36.07-.52,0-.57L38,40.62C39.81,41.28,41.09,42.78,43.07,44ZM23.88,18.85c0,.72-.08,1.18.09,1.48C25.5,23,26.85,25.8,29.15,28c3.24,3.06,6.41,6.19,9.65,9.26,1.12,1.06,2.35,2,3.77,3.2-.18-2.68,0-5.11-2.72-6.37a6.43,6.43,0,0,1-1.05-.77l-4.2-3.08.18-.25c2.24,1.47,4.49,2.94,6.77,4.45.25-1-.24-1.41-.83-1.86-.89-.67-1.75-1.4-2.62-2.1l.17-.2,2.9,1.86a2.57,2.57,0,0,0-1-2.34c-.7-.52-1.34-1.12-2-1.64a65.7,65.7,0,0,1-9.15-9,38.44,38.44,0,0,1-2.74-4c-.19-.28-.4-.55-.73-1l-1.37,4c1.29,1.39,2.74,2.54,3.63,4.2Zm29,14.09-.29-.1L56,26.08,53.91,23l-.31.08a14,14,0,0,1-1.89,6.16c-.75,1.44-1.56,2.86-2.31,4.29-1.24,2.35-2.45,4.72-3.68,7.07a3.65,3.65,0,0,0-.08,3.14c1.62-2.36,2.64-4.95,4.74-6.79a3,3,0,0,1-.34.9c-1.31,2.36-2.64,4.73-3.94,7.1-.22.42-.57.89,0,1.46L49.8,41A6,6,0,0,1,49,43.14c-.66,1.12-1.33,2.24-2.07,3.31a3.55,3.55,0,0,0-.82,3,19.72,19.72,0,0,0,.51,3.21A39.75,39.75,0,0,1,48.81,49a21.34,21.34,0,0,0,2.55-4.69c1.14-2.64,2.27-5.28,3.5-7.87.86-1.81,1.86-3.56,2.82-5.32a1.9,1.9,0,0,0-.43-2.56l-2.49,3.75a26.66,26.66,0,0,1,1.83-3.76c.48-.88.47-.88-.41-1.56ZM43.67,52.39l.23-.25a3.47,3.47,0,0,0-.6-.83c-2.14-1.58-4.23-3.25-6.48-4.67-4.71-3-9.29-6.09-12.72-10.57a10.57,10.57,0,0,0-.89-.88,12.77,12.77,0,0,0,3.38,6c1.87,1.89,3.72,3.81,5.57,5.72.38.4,1,.7.67,1.65-2.5-1.06-4.76-2.5-7.65-3.1,1.64,1.63,18.11,13.79,19.42,14.38.25-1.39-.37-2.23-1.51-3.07-2.68-1.95-5.23-4.07-7.81-6.15A14.16,14.16,0,0,1,34,49.29a39.85,39.85,0,0,1,5.14,3.23l5,3.5c.16-1.94.15-1.94-1-2.83s-2.48-1.95-3.7-2.94c-.33-.26-.62-.56-.93-.84l.19-.23ZM31.24,10l-.28.17L28,8c-.16.36-.31.59-.27.63,1.1,1.09,2.22,2.16,3.34,3.24l-.12.18L27.35,9.54l-1,2.83C28.79,16.72,37.17,26,40.13,27.59a2.61,2.61,0,0,0-1-2.24C36.71,23.22,34.36,21,32,18.87c-.38-.35-.72-.76-1.07-1.14l.31-.31,7.83,6.06a3,3,0,0,0-1.37-2.69A20.88,20.88,0,0,1,36,19.47l-2.73-2.33.18-.24,4.58,3c-.38-1.7-.78-3-2-3.9a12.33,12.33,0,0,1-1.58-1.57l.19-.18,1.8,1.14c-1.24-4.67-4.64-8-6.11-12.65L28.27,7.1ZM60.57,38.87c-.43.29-.66.43-.87.59-3.94,3.15-6.69,7.36-10,11.1a24.55,24.55,0,0,0-2.64,4.65,5.31,5.31,0,0,0-.23,1.07l3.68-3.8.28.24-.63.85c-.89,1.17-1.78,2.33-2.66,3.5-.33.45-.7.92-.23,1.64l2.18-2.2a10.81,10.81,0,0,1-1.84,2.82,1.62,1.62,0,0,0-.27,1.88c2.29-2.71,4.57-5.3,6.72-8,1.83-2.29,3.58-4.64,5.21-7.06a24.53,24.53,0,0,0,2.75-5.49ZM46.86,24.18,46.58,24c.46-1,1-2.06,1.36-3.11s.78-2.24,1.18-3.42a2.43,2.43,0,0,0-1.5-1.22c-1,2.9-1.95,5.72-2.92,8.52-.39,1.13-.8,2.25-1.21,3.37a3.86,3.86,0,0,0,.27,3.12c.82-.71,1.05-1.77,2.12-2.18-.45,1.86-2.48,3.14-1.45,5.44l2.38-2.89a8.59,8.59,0,0,1-1.49,3.1c-1,1.2-.75,2.36-.27,3.75a8.42,8.42,0,0,0,.53-.78c1.55-3,3-6.11,4.64-9.12a27.06,27.06,0,0,0,2.44-7.42l-1.32-1.44-1.85,3.58a1.13,1.13,0,0,1,0-.93c.33-.92.68-1.83,1-2.74A.81.81,0,0,0,50,18.44C48.78,20.27,48.34,22.52,46.86,24.18Zm-6.93-6.56.38.05L42.26,14a.88.88,0,0,1,.16.83c-.42,1.11-.83,2.23-1.34,3.3a3.08,3.08,0,0,0-.18,2.47c.44,1.34.76,2.71,1.14,4.06.1.31.27.6.49,1.1l3.76-11-4.53-3.09c-.74,1.65-1.45,3.09-2,4.59C39.59,16.63,39.85,17.16,39.93,17.62ZM27.19,234.15c.89-1.38.53-1.64-.16-2.42a9.74,9.74,0,0,0-1.62-1.59c-2.21-1.59-4.45-3.12-6.69-4.65-.46-.31-1-.53-1.71-.92.43,1.32.76,2.29,1.93,2.76a6.24,6.24,0,0,1,1.44,1Zm12.13-219,2.15-3.88-6-4.12c1.23,2.64,2.35,5.08,3.49,7.52A3,3,0,0,0,39.32,15.18ZM18.42,227.53a5.2,5.2,0,0,0,2.18,3.85,41.64,41.64,0,0,1,3.51,3.14c.75.7,1.47,1.42,2.31,2.22l.52-1.54A108.81,108.81,0,0,0,18.42,227.53Zm2.45,7.77a4.44,4.44,0,0,0,.65,3.26c.94,1.09,2,2.05,3.2,3.21l.65-1.92Zm4.87,3.49a1,1,0,0,0,0-1.62c-1.8-1.73-3.59-3.47-5.4-5.2a1.5,1.5,0,0,0-.44-.16c.2,1.69.19,1.71.88,2.35C22.39,235.68,24,237.19,25.74,238.79ZM22.07,240l-.32.13c.24,1,.51,2.06.71,3.1s.34,2.1.55,3.43l1.38-4Z"/><path class="cls-1" d="M66.88,136.21,60.56,142l-.24-.25c2-2.09,4.09-4,6.22-5.91Z"/><path class="cls-1" d="M67.09,144.27,66,145.53a1.4,1.4,0,0,1,1.14-1.25Z"/><path class="cls-1" d="M56.26,169.6c4.36-4.53,9.43-8.23,14.19-12.27l.25.22a6,6,0,0,1-.64.76c-1.62,1.37-3.24,2.74-4.88,4.08-2.74,2.24-5.49,4.46-8.23,6.69Z"/><path class="cls-1" d="M75.78,162.47c-2,2.72-4.84,4.29-7.49,6.14C70.56,166.28,73.34,164.55,75.78,162.47Z"/><path class="cls-1" d="M69.58,161.38c-.83,1.17-5.54,4.81-7.84,6.06C62.44,166.28,68.22,161.82,69.58,161.38Z"/><path class="cls-1" d="M74.39,165.11a11.31,11.31,0,0,1-3.5,3.07C71.3,167.31,72.36,166.34,74.39,165.11Z"/><path class="cls-1" d="M25,187.43l-1.19-1.05.25-.21.9,1.28Z"/><path class="cls-1" d="M75.74,170.34c-.44,1.11-3.94,4-6.88,5.68C69.59,174.73,74,171.07,75.74,170.34Z"/><path class="cls-1" d="M76.93,178.37a86.5,86.5,0,0,1-8.58,4.51C69.9,181.49,75.61,178.5,76.93,178.37Z"/><path class="cls-1" d="M66.23,182.33l-1.84,1.07-.16-.24L66,182Z"/><path class="cls-1" d="M19.32,101.9a88.84,88.84,0,0,1,8.5,9.44C26.07,110.51,19.72,103.45,19.32,101.9Z"/><path class="cls-1" d="M72.24,192.48c-4.49,3.08-9.47,5.28-14.61,7.88C58.52,199.42,70.8,192.77,72.24,192.48Z"/><path class="cls-1" d="M63.79,211.1l-9.1,3.1-.12-.36c3-1.13,5.87-2.65,9.06-3.28Z"/><path class="cls-1" d="M66.43,122.71l11.73-12.26.15.07a12,12,0,0,1-1,1.54,97.17,97.17,0,0,1-10.42,10.47C66.88,122.59,66.77,122.6,66.43,122.71Z"/><path class="cls-1" d="M71.45,120.39,78,113.81C77.4,115.41,73.85,119,71.45,120.39Z"/><path class="cls-1" d="M38.76,167.36l-1.18-1.1.26-.22c.3.44.59.89.88,1.34Z"/><path class="cls-1" d="M38.72,167.38,40,168.82l0,0-1.26-1.44Z"/><path class="cls-1" d="M77,100.43l-5.3,6.09-.3-.25a35.24,35.24,0,0,1,5.25-6.13Z"/><path class="cls-1" d="M30.26,90.45a45,45,0,0,1-9.11-7.61l.24-.27Z"/><path class="cls-1" d="M28,86.72a12.72,12.72,0,0,1-4.52-4.22A34.12,34.12,0,0,1,28,86.72Z"/><path class="cls-1" d="M21.31,71.34l6.8,4.79-.21.29c-2.38-1.44-4.66-3-6.89-4.7Z"/><path class="cls-1" d="M26.55,74.42l-4-2.73C23.66,71.64,25,72.48,26.55,74.42Z"/><path class="cls-1" d="M28.81,54.59l-5.53-4.28.23-.3A47,47,0,0,1,29,54.3Z"/><path class="cls-1" d="M29.14,53a17.54,17.54,0,0,1-4.67-3.64C26.37,50.14,27.71,51.65,29.14,53Z"/><path class="cls-1" d="M65.61,58.38l-4,5.55A14.34,14.34,0,0,1,65.61,58.38Z"/><path class="cls-1" d="M62.72,63.94a5.32,5.32,0,0,1,.37-.66,33.53,33.53,0,0,1,2.45-3A8.82,8.82,0,0,1,62.72,63.94Z"/><path class="cls-1" d="M63.16,49.79a36.78,36.78,0,0,1-5.28,6.54A26.44,26.44,0,0,1,63.16,49.79Z"/><path class="cls-1" d="M62.94,47.41a27.41,27.41,0,0,1-5,6.47l4.69-6.69Z"/><path class="cls-1" d="M59,43.52a17.68,17.68,0,0,1-4.3,5.9A31.82,31.82,0,0,1,59,43.52Z"/></g></g></svg>