<svg xmlns="http://www.w3.org/2000/svg" viewBox="0 0 139.08 157.67"><defs><style>.cls-1{fill:#dbdbdb;}</style></defs><g id="Layer_2" data-name="Layer 2"><g id="OBJECTS"><path class="cls-1" d="M28.84,59.09a11.1,11.1,0,0,1,.84-1,28.38,28.38,0,0,1,8.13-5c3-1.32,6.12-2.44,9.2-3.63a9.45,9.45,0,0,1,1.42-.32l.13.35c-.64.28-1.27.6-1.93.85a74.21,74.21,0,0,0-13.4,6.17c-1.09.67-2.12,1.44-3.19,2.15-.31.21-.65.38-1,.57Z"/><path class="cls-1" d="M45.69,53,34.16,58.19,34,57.82a54.84,54.84,0,0,1,11.61-5Z"/><path class="cls-1" d="M41.78,70.22c2.09-2.33,3.71-4.72,2.78-8,1,.44,1.39,2.19.87,3.8C44.54,68.79,43.08,70.49,41.78,70.22Z"/><path class="cls-1" d="M49.83,70l-7.35,6.35L42.17,76a44.37,44.37,0,0,1,7.43-6.24Z"/><path class="cls-1" d="M23.39,31.68C30.14,29.8,37,30.14,43.92,30.56c-6.84.47-13.72.27-20.5,1.67Z"/><path class="cls-1" d="M46.16,38.83c-.87,3.13-6.93,7.75-9.5,7.15A24.17,24.17,0,0,0,46.16,38.83Z"/><path class="cls-1" d="M26.32,29.45c1.42-.72,7.75-.94,9.84-.24l-9.84.52Z"/><path class="cls-1" d="M35.66,26.47,27,27C28.39,25.8,34.05,25.58,35.66,26.47Z"/><path class="cls-1" d="M45.45,42.66,48.07,40C48.21,41.26,46.59,43,45.45,42.66Z"/><path class="cls-1" d="M27.47,10.41a14.79,14.79,0,0,1,7.72.63c3,1,6,2.07,9,3.12a1.06,1.06,0,0,1,.62.6c-.7-.21-1.39-.42-2.1-.61-3.46-.94-6.91-1.94-10.4-2.77A28.62,28.62,0,0,0,28.29,11c-.39,0-1,.13-.79-.63Z"/><path class="cls-1" d="M52.6,87.25a19.08,19.08,0,0,0-2.91,1.3,26.33,26.33,0,0,0-8.12,8.71c-1.73,2.91-3.42,5.84-5.13,8.77-1.46,2.49-2,5.31-2.82,8s-1.84,5.15-2.83,7.7a5.28,5.28,0,0,1-1.05,1.6,2.48,2.48,0,0,1-4,0,32.46,32.46,0,0,1-3.42-4.77c-2.23-4-4.15-8.09-6.47-12-2.74-4.62-2-9,.83-13A108.9,108.9,0,0,1,24.53,84a48.52,48.52,0,0,0,5.83-7.9,81.1,81.1,0,0,1,5.22-7.22c1.18-1.6,2.38-3.19,3.57-4.78l-.24-.28a7,7,0,0,0-.79.19C31,66.7,24.59,70.35,19.88,76.5,16.31,81.15,12.65,85.73,9,90.32A13.26,13.26,0,0,1,6.9,92.51,2.49,2.49,0,0,1,3,91.9a5.69,5.69,0,0,1-.94-2.21C1,82.31-.38,74.94.1,67.44a29.18,29.18,0,0,1,1.47-7,10.07,10.07,0,0,1,4.92-5.52c7.61-4.13,14.84-9.09,23.34-11.4a28.66,28.66,0,0,0,9.35-3.95c.63-.45,1.25-.92,2-1.51-.5-.14-.78-.24-1.06-.29a21.77,21.77,0,0,0-10.11.65,72.91,72.91,0,0,0-15.38,5.76,15.55,15.55,0,0,1-7.43,2c-2.51,0-3.65-.95-4.26-3.36-.69-2.69.22-5.12,1.37-7.42C6.06,32,8,28.65,9.86,25.32a42.07,42.07,0,0,1,3.54-5.79,45.1,45.1,0,0,1,9.24-9C26.34,8,30,5.3,33.86,3A16.67,16.67,0,0,1,47.49,1.07,25.44,25.44,0,0,1,58.43,6.94c1.1,1,2.15,2.16,3.22,3.25a19.26,19.26,0,0,1,4.85,8.35c.14.48.3,1,.46,1.45a2.91,2.91,0,0,0,4.72,1.49,19.1,19.1,0,0,0,5.9-6.2,26.08,26.08,0,0,1,9.61-9.73C90,3.88,93,2.33,95.92.91s6.29-.92,9.39,0c4.85,1.48,9.28,3.92,13.76,6.21,3.8,1.95,6.39,5.32,8.9,8.66A14.7,14.7,0,0,1,130.58,21,32.27,32.27,0,0,0,132,24.52c1.21,3.26,2.4,6.53,3.61,9.8.53,1.42.05,2.79-.16,4.18a10,10,0,0,0-.15,2.67,10.72,10.72,0,0,1-.31,5.59c-.51,1.21-1.3,1.73-2.5,1.26a18.15,18.15,0,0,1-5.16-2.55,26,26,0,0,0-13.74-6,17.59,17.59,0,0,0-2.18,0l-.17.37c.5.5,1,1,1.51,1.5,3.46,3,7.67,4.3,12,5.5,2.29.64,4.55,1.4,6.82,2.13A11.36,11.36,0,0,1,137,53a10.65,10.65,0,0,1,2.12,7.21,38.28,38.28,0,0,1-.73,5.71,37,37,0,0,1-4.24,12.94c-1.22,2.09-2.69,4.05-4.1,6-.58.81-1.35.87-2.34.19-1.9-1.31-3.77-2.67-5.62-4-4.32-3.23-8.76-6.22-14.18-7.37-.62-.13-1.27-.16-2-.25a3.82,3.82,0,0,0,.59,3.24,32.61,32.61,0,0,0,6.87,7.16c3.81,3,7.5,6.25,11.17,9.47a3.47,3.47,0,0,1,.94,3.83c-1,3-2.22,6-3.42,8.9a1.9,1.9,0,0,1-3,1.11,41.08,41.08,0,0,1-5.19-3,9.59,9.59,0,0,0-4.66-1.89c-.71-.06-1.48-.12-1.85.71a2,2,0,0,0,.51,2.57,40.93,40.93,0,0,0,4.5,2.35c1.8.8,3.69,1.42,5.49,2.22,1.42.62,1.62,1.25,1.14,2.67a32.62,32.62,0,0,1-7.85,12.52c-4.75,4.88-10,9.35-13.89,15a19.84,19.84,0,0,0-3.63,13.22,16.5,16.5,0,0,1,.1,2.72c-.11,1.42-.91,1.79-2.28,1.32-5.43-1.89-10.13-5.14-15-8a158.61,158.61,0,0,0-18.17-9.07c-5.66-2.43-11.69-3.95-17.16-6.86a52.71,52.71,0,0,1-4.88-2.95,5.71,5.71,0,0,1-2.45-4.38,13.39,13.39,0,0,1,.82-6.06A53,53,0,0,1,42,107.34q3.69-5,7.24-10.06a22.07,22.07,0,0,0,3.51-7.17A16.57,16.57,0,0,0,53,87.55ZM27.47,10.41l0,0-4.34,3.15-2,1.45c1.71.2,3.19.4,4.67.54,2.47.24,5,.24,7.4.72,3.23.63,6.42,1.55,9.57,2.5A62.45,62.45,0,0,1,62.74,29c1.82,1.39,3.53,2.93,5.27,4.39a2.6,2.6,0,0,0-1.07-2.49C61.47,27,56.21,22.89,50,20.21a2.22,2.22,0,0,1-.49-.38c6.55,1.46,11.73,5.42,17.22,8.94a3.45,3.45,0,0,0-1-1.66c-3.32-2.65-6.7-5.25-10.06-7.85-.63-.49-1.27-1-1.91-1.45l.18-.24c4.24,2.19,7.86,5.26,11.8,8a3.82,3.82,0,0,0-.87-1.7c-2.24-1.94-4.55-3.8-6.83-5.7a6.48,6.48,0,0,1-.54-.62l.21-.22,7.36,5.43a3.49,3.49,0,0,0,0-1.17c-.84-2.17-1.39-4.57-2.68-6.44C58.16,9,52.74,4.37,44.87,3.13c-4.23-.66-7.55,1-11.1,3A40.76,40.76,0,0,1,43.89,9.56,2.1,2.1,0,0,1,43,9.51c-2.27-.67-4.54-1.36-6.82-2-2-.57-4-1.22-5.56.93a40.79,40.79,0,0,1,11.17,2.73c-.39.11-.52.2-.63.18-3.48-.71-7-1.31-10.41-2.18C29.13,8.74,28.4,9.65,27.47,10.41ZM130.26,26.9a23.22,23.22,0,0,0-.91-2.37,1.68,1.68,0,0,0-.95-.85c-3-.6-6-1.14-9.06-1.7a2.37,2.37,0,0,1-.56-.26l.07-.34,10.09,1.44c-.49-1.1-.92-2.13-1.41-3.11a1.6,1.6,0,0,0-.76-.64c-1.59-.69-3.23-1.28-4.8-2a18.81,18.81,0,0,0-12.08-1.25,25.37,25.37,0,0,1-3.13.45c-6.6.54-12.41,3.17-18,6.4-4.89,2.8-9.28,6.47-14.66,8.44-.22.08-.35.42-.53.64l.17.31c1.15-.14,2.3-.27,3.44-.44a69.66,69.66,0,0,1,15.13-.71,2.39,2.39,0,0,1,.46.12l0,.15-12.87.9,0,.13,18,2.67,0,.28a6.78,6.78,0,0,1-.78,0c-2-.15-3.91-.3-5.86-.49C85.54,34.13,79.9,33.55,74.25,33c-.27,0-.56.18-.84.28.19.22.33.55.57.64,5.16,2,10.44,3.82,15.5,6.08a172.43,172.43,0,0,1,33.74,19.74,46.22,46.22,0,0,1,9.28,9.51,5.6,5.6,0,0,1,.77,2c0,.22-.28.57-.52.78-.05.05-.44-.19-.62-.36-.6-.59-1.2-1.19-1.76-1.83a60.86,60.86,0,0,0-10.21-9.28A202.65,202.65,0,0,0,90.83,43.33c-5.59-2.73-11.4-5-17.1-7.55-.15-.06-.31-.09-.58-.17A14.15,14.15,0,0,0,73,37.37a.87.87,0,0,0,.44.63c2,.89,3.93,1.71,5.87,2.61a16.73,16.73,0,0,1,1.77,1.15l-.1.16-8-3.2c-.51,1.28-.09,1.81.94,2.36,3.87,2.06,7.66,4.25,11.47,6.41a4.66,4.66,0,0,1,.83.71l-.14.16L72.8,41.78l-.34.23c.18.56.19,1.42.58,1.65,2.23,1.31,4.6,2.37,6.81,3.71,3.37,2.05,6.66,4.26,10,6.42a4.37,4.37,0,0,1,.68.68l-.18.19A128.76,128.76,0,0,0,72.46,44.55c-.07,1.25-.15,2.35-.16,3.46,0,.2.27.48.49.6a37.51,37.51,0,0,1,3.32,1.77c6.14,4.25,12.66,8,18.43,12.75,3.28,2.7,7.1,4.79,9.29,8.24a12.7,12.7,0,0,1,3.13-.28,24.21,24.21,0,0,1,5.81,1.5,44.59,44.59,0,0,1,11.55,7.21c1.25,1.11,2.7,2,4.12,3,.27-.4.44-.64.6-.89s.37-.53.47-.69l-12.66-9.78.34-.46,13.1,9.22.75-1.08L123.61,73l.28-.36,7.63,5.73.63-1.32L125.9,72.3l.2-.29,6.43,4.4a12.4,12.4,0,0,0,.57-1.21c.76-2.3,1.49-4.62,2.26-6.93a1.55,1.55,0,0,0-.51-1.79c-4.06-3.89-8.1-7.81-12.15-11.72-.22-.21-.41-.47-.61-.7l.34-.32,13.39,11.71a1.71,1.71,0,0,0-.57-2.25c-2.2-2-4.31-4.06-6.46-6.11a1.59,1.59,0,0,1-.2-.39,34.47,34.47,0,0,1,7.48,5.93c.57-1.33.47-2.35-.9-3a1.17,1.17,0,0,1-.27-.15l-3.34-2.59.19-.26,4.76,3.08c.36-3.37-2.36-7.4-5.22-8.24-2.22-.64-4.38-1.48-6.59-2.15-3.91-1.19-8-2-11.3-4.56a24.42,24.42,0,0,1-3.8-3.19c-1.65-1.91-.68-4.16,1.85-4.53a9,9,0,0,1,2.54,0,27.47,27.47,0,0,1,14.89,6.59,20.13,20.13,0,0,0,3.73,2.15l.42-.27a23.5,23.5,0,0,0-.2-3.67,7.64,7.64,0,0,1,.22-4.08,17,17,0,0,0,.43-2.57L115.74,31a74.47,74.47,0,0,1,17.17,3.16c-.41-1-.72-1.74-1.08-2.49a.83.83,0,0,0-.53-.34c-3.87-.83-7.74-1.63-11.61-2.45-.62-.13-1.24-.29-1.86-.43l.06-.3a133.56,133.56,0,0,1,13.53,2.33l-1.17-3.64Zm-28.87,74.2c.18-1.13.18-1.14-.73-1.87-5.52-4.42-11.07-8.78-17-12.67-3.39-2.24-6.76-4.5-10.32-6.86.21,2.33.38,4.45.62,6.56,0,.22.4.45.66.59,2.39,1.3,4.83,2.5,7.16,3.89,2.66,1.61,5.22,3.39,7.83,5.08,1.05.68,2.12,1.31,3.19,2a2.2,2.2,0,0,1-1.27-.18C90,96.75,88.46,95.88,87,95c-3.17-1.95-6.31-4-9.5-5.89a35.88,35.88,0,0,0-3.39-1.59,28.46,28.46,0,0,1,.24,3c0,1.61.44,2.73,2.26,2.9a1.79,1.79,0,0,1,.56.23c3.6,2,7.21,3.94,10.79,6a28.19,28.19,0,0,1,2.4,1.7l-.16.25a118.8,118.8,0,0,0-15.5-7.91c.11,1.32.26,2.46.29,3.6a1.16,1.16,0,0,0,.88,1.17A41.31,41.31,0,0,1,80,100.24c4.23,2.38,8.41,4.85,12.61,7.28.59.34,1.25,1,1.74,1,1.14-.23,1.66.57,2.23,1.07,3,2.65,6,5.37,8.93,8.1,1.71,1.59,3.34,3.24,5.09,5l1.58-1.75L101,109.44l.37-.37,11.7,10.72,3.65-7.69c-1.3-.5-2.5-1-3.7-1.42a22.35,22.35,0,0,1-6.51-3.12,4.48,4.48,0,0,1-1.34-5.64c.71-1.63,2.3-2.37,4.54-2.08a12.07,12.07,0,0,1,5.91,2.58c1.27,1,2.69,1.76,4.21,2.73l1-2.75c-3.64-2.84-7.34-5.54-10.7-8.63l.25-.32q5.43,3.94,10.86,7.92c.53-.62.69-1.09-.1-1.59-2.45-1.57-4.88-3.18-7.3-4.78-.46-.31-.87-.69-1.31-1l.19-.25,9.46,5.53.84-2.34a2,2,0,0,0-.56-2.3c-3.07-2.67-6.06-5.45-9.28-7.93a35.47,35.47,0,0,1-8.14-7.89,8.08,8.08,0,0,1-1.59-3.65c-.14-1.82-1.25-2.78-2.46-4.11a20.81,20.81,0,0,0,2.2,9.46A23.35,23.35,0,0,0,109,87.91a1,1,0,0,1-.54-.12,2.47,2.47,0,0,1-.36-.19,19.25,19.25,0,0,1-8-16.51,1.51,1.51,0,0,0-.67-1.43c-3.89-2.91-7.71-5.9-11.65-8.74s-8.06-5.54-12.07-8.34c-1.18-.82-2.27-1.76-3.67-2.85,0,3.07,0,5.86.13,8.66a1.81,1.81,0,0,0,.68,1.13C75.92,62,79,64.38,82.12,66.83c.81.63,1.56,1.33,2.34,2l-.22.25L72.29,60c0,1.21.1,2.29.13,3.14L89,76l-.19.24A163.67,163.67,0,0,1,72.46,63.87c.13,1.14-.15,2.12.94,3,4.65,3.79,9.2,7.72,13.79,11.6.21.18.39.37.59.56l-.18.21a174.7,174.7,0,0,1-14.9-11.7c.12,1.82.19,3.47.36,5.12a1.66,1.66,0,0,0,.75,1c2.47,1.72,5,3.35,7.43,5.1a32.89,32.89,0,0,1,2.86,2.56l-.14.14L73.1,74c.05,1.28.13,2.18.11,3.08a1.32,1.32,0,0,0,1,1.5,20.16,20.16,0,0,1,2.52,1.12c6.13,3,11.39,7.26,16.88,11.2,3.33,2.38,6.35,5.17,9.58,7.83,1-.57,2-1.62,3.34-1.21l-2.91,1.71c.48.88.88,1.55,1.2,2.26a2.44,2.44,0,0,1,0,.9c-.32-.06-.71,0-.93-.18-.61-.48-1.14-1-1.72-1.6ZM24,117.18,28,110l.29.12a10.28,10.28,0,0,1-.34,1q-1,2.2-2.11,4.39c-1.43,2.93-1.44,2.92.58,5.5,1.38,1.77,2,1.74,2.79-.37.92-2.36,1.66-4.79,2.46-7.19a69.68,69.68,0,0,1,2.82-8.21,117.05,117.05,0,0,1,5.91-10.3,25.13,25.13,0,0,1,8.26-8.43,11.49,11.49,0,0,1,4-1.36A2.07,2.07,0,0,1,55.23,87a9.55,9.55,0,0,1,0,3.11,21.83,21.83,0,0,1-3.94,8.5c-1.56,2.25-3.35,4.34-4.94,6.57C45,107,44,109.12,42.59,110.84c-2.48,2.93-4,6.34-5.6,9.74a10.83,10.83,0,0,0-.91,5.23,4.54,4.54,0,0,0,2.62,3.81c2.82-5.1,5.12-10.47,9.49-14.5-3.31,4.79-5.62,10.09-8.35,15.25l1.37.64a90.82,90.82,0,0,1,6.58-11.14l.27.15-6,11.56,1.76.82,5.7-9.63.21.14L45,133.07l6.39,2.44a26.21,26.21,0,0,1,.63-4.58,83.76,83.76,0,0,1,3.35-9.34,76.79,76.79,0,0,1,16.52-24c.19-.18.43-.45.41-.66-.1-1.5-.27-3-.44-4.8l-7,7.15-.21-.19a2.35,2.35,0,0,1,.25-.53c1.24-1.46,2.44-3,3.75-4.36.87-.94,1.9-1.74,2.86-2.6l-.66-2.31L59.08,101.84a1.39,1.39,0,0,1,.08-.38A75.38,75.38,0,0,1,70.14,89c.21-.19.47-.53.44-.76-.18-1.32-.44-2.63-.69-4-2.87,3-5.76,5.8-8.4,8.83-2.85,3.27-5.48,6.74-8.15,10.16a10.88,10.88,0,0,0-1,2.14c-.21-.18-.22-.3-.19-.41a15,15,0,0,1,3.06-5.75A121.94,121.94,0,0,1,68,84.48c1.42-1.39,2.06-2.69,1.65-4.65a37.41,37.41,0,0,1-.4-4.74c0-.32-.07-.63-.11-.9L57.91,83.33l-.22-.23c.82-.89,1.59-1.85,2.49-2.66,2.77-2.5,5.59-4.93,8.38-7.39.21-.19.5-.45.52-.69.08-1.39.1-2.79.14-4.39a131.33,131.33,0,0,0-13.5,10,1.11,1.11,0,0,1,.3-.59A60.75,60.75,0,0,1,67.54,68a2.69,2.69,0,0,0,1.54-3.22c0-.06,0-.12-.06-.28-.44.22-.84.39-1.21.61-9.16,5.45-18.16,11.1-26.32,18a64.58,64.58,0,0,0-14.55,17.1c-1.61,2.78-2.84,5.77-4.27,8.64-.46.91-1,1.76-1.61,2.75.22.4.53,1,.9,1.65,2.05-4,3.75-7.91,6.32-11.37a3,3,0,0,1-.34,1c-1.68,3.55-3.37,7.09-5,10.65a1.53,1.53,0,0,0-.2,1C23.06,115.44,23.53,116.25,24,117.18ZM21.24,95.36l.4.23c-.11.23-.21.47-.33.69-1.32,2.28-2.65,4.56-3.94,6.85a2.83,2.83,0,0,0-.14,1,36.44,36.44,0,0,0,2.42-3.35c.76-1.1,1.58-2.15,2.37-3.22l.27.18c-.06.12-.11.25-.18.37-1.26,2.15-2.55,4.29-3.79,6.45a1.52,1.52,0,0,0-.2,1.13c.74,1.59,1.58,3.14,2.42,4.78.18-.77.27-1.4.47-2a55.76,55.76,0,0,1,13-21.7c9.83-10.23,21.55-18,34.37-24.09.24-.11.59-.34.6-.54.05-.95,0-1.9,0-2.94A57.07,57.07,0,0,1,59.7,63.5a3.34,3.34,0,0,1,1-.69c2.46-1.3,4.92-2.61,7.39-3.89.81-.42,1.17-1,.81-1.81l-9.17,4.67-.18-.27a9.75,9.75,0,0,1,.84-.59c2.59-1.48,5.19-3,7.77-4.45a1.67,1.67,0,0,0,.79-.92A19.94,19.94,0,0,0,69,53L52.46,61.49l-.19-.31c.84-.51,1.67-1,2.52-1.52,4.21-2.36,8.39-4.76,12.64-7,1.62-.87,1.69-.76,1.51-2.56,0-.06-.07-.11-.13-.19L55.3,55.65l-.15-.24c.29-.18.57-.39.87-.54,3.8-1.83,7.6-3.67,11.42-5.46,1.66-.78,1.76-.92,1.25-2.82L58.12,51.11A3.5,3.5,0,0,1,59.42,50c2.89-1.37,5.79-2.69,8.68-4,.28-.13.71-.35.72-.56.09-1,.07-2,.08-2.92-4.28.89-8.44,1.79-12.62,2.61A93.86,93.86,0,0,0,34.06,52a105.53,105.53,0,0,0-17.5,10.83A76.53,76.53,0,0,0,3,75.75a.83.83,0,0,0-.24.51c.1,1.32.24,2.64.39,4.16l6.92-5.76a.46.46,0,0,1-.13.47L4,80.32c-.24.21-.63.48-.62.71a23.49,23.49,0,0,0,.34,2.54,49.15,49.15,0,0,1,8.07-8.28.49.49,0,0,1-.12.39c-2.49,2.73-5,5.45-7.44,8.2a4,4,0,0,0-.49,1.25c2.12-1.88,4-3.84,5.9-5.7s3.93-3.59,5.9-5.39l.26.26c-.23.27-.45.55-.69.8L4.36,85.94a1.16,1.16,0,0,0-.38.74,25.41,25.41,0,0,0,.65,3.48c.25.85.72.93,1.33.26.8-.87,1.53-1.81,2.25-2.75C12,82.86,15.65,78,19.42,73.22c3.51-4.47,8.42-7.13,13.31-9.73A37.83,37.83,0,0,1,39.22,61c1.65-.51,2.77.51,2.61,2.21a4.21,4.21,0,0,1-.51,1.83,52.16,52.16,0,0,1-3.76,5.41A39.37,39.37,0,0,0,32.2,78a30.81,30.81,0,0,1-5.26,7.08c-2.1,2.25-4.13,4.58-6.15,6.91a18.27,18.27,0,0,0-4.21,7.78,12,12,0,0,0-.06,2.48l.21,0ZM13.62,58.74l.27.43c-.37.26-.74.52-1.12.77L3.25,66.52c-.24.16-.57.42-.57.64-.07,1.82-.08,3.65-.1,5.47A21.1,21.1,0,0,0,4.8,70.41,88.56,88.56,0,0,1,20.31,57.29,82.61,82.61,0,0,1,50.54,44.1c5.27-1.11,10.6-1.92,15.9-2.88.79-.14,1.56-.37,2.35-.55l0-.37L49.55,37A86.44,86.44,0,0,1,69,39.11a1.29,1.29,0,0,0-.67-.69c-3.7-1-7.4-2-11.1-3l-3.4-.93.07-.29c5.09.52,10,2,15,3.16a2.14,2.14,0,0,0-1-.93c-2-.73-4.1-1.42-6.16-2.09-1.14-.37-2.31-.67-3.47-1l.09-.31c1.3.29,2.61.55,3.9.87s2.53.67,3.79,1a.67.67,0,0,0-.25-.43,69.71,69.71,0,0,0-23.1-13.12,72.75,72.75,0,0,0-12-3q-5.23-.84-10.49-1.6a1.53,1.53,0,0,0-1.13.36A37.84,37.84,0,0,0,16,20.41c-1.08,1.37-2,2.85-3.11,4.42l5.86.16v.38c-1.65.14-3.29.39-4.93.38a2.18,2.18,0,0,0-2.23,1.68c1.55-.17,3-.55,4.52-.08a39.3,39.3,0,0,1-4.39.8,1.28,1.28,0,0,0-1.29,1.14L14.83,29l0,.34c-1.23.19-2.46.41-3.69.58-1.54.22-1.79.44-2.2,2,2.08-.61,4.14-1.29,6.34-.93a62.56,62.56,0,0,1-6.07,1.63C8,32.9,7.75,33.79,7.29,34.83c3.79-1.25,7.47-2.12,11.34-1.65a2.87,2.87,0,0,1-.92.28c-3,.68-6,1.39-9,2a3.81,3.81,0,0,0-3,2.85,7.31,7.31,0,0,0-.3,4.57c.22.7.65,1.16,1.4,1.06a23.88,23.88,0,0,0,4.41-.72,39.39,39.39,0,0,0,4.63-2.13,70.43,70.43,0,0,1,17.41-5.79,19.66,19.66,0,0,1,9,.42c1.8.49,2.33,1.95,1.25,3.44a8,8,0,0,1-1.72,1.71,26.37,26.37,0,0,1-9,4.53,49.38,49.38,0,0,0-11.62,4.42c-3.7,2-7.44,4-11.17,5.95A16.83,16.83,0,0,0,4.78,60a4.85,4.85,0,0,0-1.16,3.2l6.51-3.51a1.62,1.62,0,0,1-.75.83,54.46,54.46,0,0,1-5.05,2.82c-1.22.54-1.31,1.44-1.47,2.35ZM76.44,141l.37.12a3.55,3.55,0,0,1,0,.46c-.24,1.49-.51,3-.7,4.46a1.23,1.23,0,0,0,.43,1q6.31,3.75,12.67,7.43a1.91,1.91,0,0,0,.54.15c-3.87-10.14-8.58-19.89-11.8-30.29q-1.68,4.44-3.35,8.88a.58.58,0,0,1-.14-.56c.57-2.14.8-4.45,1.81-6.36a8.41,8.41,0,0,0,.51-7.58,24.17,24.17,0,0,1-.67-2.35l-.36,0q-4.09,8.25-8.2,16.51a27.62,27.62,0,0,1,.89-3.2,67.48,67.48,0,0,1,5.83-12.37c.47-.82,1.39-1.69,1.3-2.45a40.46,40.46,0,0,0-1.44-5.68,119.78,119.78,0,0,0-10,19.39,40.49,40.49,0,0,1,1.42-4.78,66.39,66.39,0,0,1,6.85-14c1.4-2.2,1.61-3.5.65-5.35a73.14,73.14,0,0,0-12,23.77c-.19-.24-.26-.3-.26-.34a7.71,7.71,0,0,1,.18-1c.82-2.74,1.5-5.52,2.5-8.19a53.26,53.26,0,0,1,8.42-14.75,3.22,3.22,0,0,0,.5-4l-.5.51a77.36,77.36,0,0,0-8.25,11.06A87,87,0,0,0,52.7,135c-.22.77,0,1,.67,1.24,1.2.4,2.42.75,3.57,1.25,4,1.74,7.89,3.54,11.83,5.32.71.31,1.41.65,2.11,1,.35-1.23.6-2.42,1-3.55s1-2.19,1.53-3.28c-.39,2.14-.83,4.23-1.39,6.28-.29,1.08.15,1.48,1.13,1.7,1-2.4,1.53-5,3.3-6.93-.69,2.13-1.36,4.26-2.21,6.31-.48,1.16.1,1.51,1,1.84Q75.83,143.54,76.44,141Zm24.86-9c-1.69-2.43-3.35-4.84-5-7.25l.34-.25c1.75,2.3,3.51,4.59,5.33,7l2.53-2.5a104.93,104.93,0,0,1-7.85-9.8l.28-.23c2.73,3.09,5.45,6.17,8.22,9.29l4.49-4.82a2.52,2.52,0,0,0-.24-.33c-3.54-3.54-7.1-7.06-10.63-10.62a14.94,14.94,0,0,0-4.52-3.33c-2.14-1-4.13-2.23-6.21-3.32-3.94-2.07-7.9-4.1-11.86-6.15-.28-.14-.59-.22-1-.4.2,1.32.36,2.45.58,3.57a1.09,1.09,0,0,0,.48.59q6.21,4.05,12.43,8.1a11.71,11.71,0,0,1,1.26,1.09l-.25.33-13.56-8.15c.11.68.16,1.21.28,1.73.7,2.89,1.38,5.78,2.17,8.65a3.17,3.17,0,0,0,1.15,1.54c2.57,1.93,5.29,3.7,7.79,5.72a38.19,38.19,0,0,1,9.23,10.47c.5.87.87,1.8,1.32,2.75ZM124.63,15.66l.14-.15c-1.41-1.46-2.82-2.92-4.25-4.36a1.08,1.08,0,0,0-.69-.22c-.77,0-1.55.18-2.32.15a78.13,78.13,0,0,0-17.28,1,5.76,5.76,0,0,1-.83,0A30.5,30.5,0,0,1,109,10c3.27-.18,6.54-.16,9.74-.23a4.9,4.9,0,0,0-.71-.46c-4.54-2.1-8.86-4.67-13.69-6.12-2.38-.72-4.88-1.2-7.3-.1a50.66,50.66,0,0,0-12.91,7.92,5.88,5.88,0,0,0-1.67,2.22c-1.18,3.43-3.43,6.28-4.91,9.54C77.05,24,76.3,25,75.72,26.08s-1,2-1.45,3a18.5,18.5,0,0,0,3.18-1.7c3.64-2.39,7.18-4.93,10.9-7.17,5.4-3.26,11.12-5.75,17.53-6.34,1.35-.13,2.7-.39,4-.59,3.16-.47,6.32-.81,9.41.27C121.12,14.21,122.87,15,124.63,15.66ZM86.49,137.3l.28-.31c2.53,1.58,4.17,4.14,6.49,6.08a21.14,21.14,0,0,0,1-2.2,1.38,1.38,0,0,0-.11-1.13C91.11,136,88,132.31,84.92,128.6a5.35,5.35,0,0,1-.36-.56l.22-.17a56.72,56.72,0,0,1,10.61,11.25l2.07-2.7c-5.19-6.76-10.72-13-17.94-17.6.07.33.13.65.2,1,2.15,9.26,5.92,18,9.32,26.8.68,1.76,1.26,3.56,1.86,5.35.23.68.39,1.37.56,2,.13-2,.29-4,.37-6a3.09,3.09,0,0,0-.3-1.46c-.39-.82-.89-1.58-1.35-2.37l.3-.19,1.68,2.2c.91-1.68.84-1.79-.37-3C90,141.2,88.25,139.23,86.49,137.3Z"/><path class="cls-1" d="M111.57,22.39A99.15,99.15,0,0,0,94,24.08C96,22.33,108.88,21.13,111.57,22.39Z"/><path class="cls-1" d="M103.34,38.44A11.74,11.74,0,0,1,105,36.7a12.57,12.57,0,0,1,7.63-2.14,15.45,15.45,0,0,1,3.57.45,45.16,45.16,0,0,0-6.51.93,47.56,47.56,0,0,0-6.07,2.63Z"/><path class="cls-1" d="M105.78,55.78l12.43,9.48C116.68,65.19,106.31,57.38,105.78,55.78Z"/><path class="cls-1" d="M130.25,26.87c-.11.68-.43.87-1.15.66-2.91-.83-5.84-1.6-8.77-2.4,0,0-.09-.09-.35-.41,3.71.2,7.12.52,10.28,2.18Z"/><path class="cls-1" d="M118,50.3q-5.3-3.12-10.61-6.22c.9-.26,10,5,10.76,6Z"/><path class="cls-1" d="M113.4,65.49c-2.8-1.82-5.93-3.18-8.2-5.73l.21-.3,8.24,5.68Z"/><path class="cls-1" d="M98.43,25.57a41.81,41.81,0,0,1,9.14-.87C106.34,25.51,99.63,26.22,98.43,25.57Z"/><path class="cls-1" d="M114.18,49.66a14.75,14.75,0,0,1-5.6-3.8l.16-.21Z"/><path class="cls-1" d="M104.87,62.09l3.78,3.56-.25.27-3.85-3.52Z"/><path class="cls-1" d="M73.82,56.69A131.68,131.68,0,0,1,88.1,67.15l-.18.24L73.58,57Z"/><path class="cls-1" d="M92.89,82.57q4.15,4.5,8.32,9l-.3.26c-2.78-3-6.06-5.57-8.36-9Z"/><path class="cls-1" d="M99.66,87.55c-1.54-.48-4.78-3.78-5.19-5.44Z"/><path class="cls-1" d="M96.18,9.86c.88-.27,1.76-.55,2.65-.8A56,56,0,0,1,111,7a8.27,8.27,0,0,1,1.72.08c.18,0,.32.34.48.53-.17.11-.34.33-.51.33a73.08,73.08,0,0,0-16.19,2.22c-.06,0-.13,0-.19-.06Z"/><path class="cls-1" d="M84.05,19.88c2.18-2.22,4.11-4.75,7.27-5.68C88.75,15.92,87,18.62,84.05,19.88Z"/></g></g></svg>