<svg xmlns="http://www.w3.org/2000/svg" viewBox="0 0 174.57 201.12"><defs><style>.cls-1{fill:#dbdbdb;}</style></defs><g id="Layer_2" data-name="Layer 2"><g id="OBJECTS"><path class="cls-1" d="M164,60.64a29.27,29.27,0,0,1-4.53-4.84A19.5,19.5,0,0,1,164,60.64Z"/><path class="cls-1" d="M161.36,56.2l2.11,2.09-2-2.21Z"/><path class="cls-1" d="M150.5,63.9l2.35,1.68C151.71,65.38,151.63,65.33,150.5,63.9Z"/><path class="cls-1" d="M144.32,140l1.43,4.48A6.85,6.85,0,0,1,144.32,140Z"/><path class="cls-1" d="M145.89,141.5l-.33-1.18.21-.07.39,1.21Z"/><path class="cls-1" d="M141.83,137.92a1,1,0,0,1,.38,1.37l-.34-1.4Z"/><path class="cls-1" d="M155.54,121.51c-1.56-4.42-3.93-8.49-6.11-12.66A30.83,30.83,0,0,1,155.54,121.51Z"/><path class="cls-1" d="M150.3,112.71a34.25,34.25,0,0,1,3.13,8.3A40.72,40.72,0,0,1,150.3,112.71Z"/><path class="cls-1" d="M145.8,61.55,156,69.62l-.21.28a23.23,23.23,0,0,1-3.42-2.5c-1.23-.9-2.44-1.82-3.62-2.78s-2.45-1.53-3.23-2.78Z"/><path class="cls-1" d="M153.41,71.2l5.28,5.25c-1.09-.21-4.69-3.62-5.56-5Z"/><path class="cls-1" d="M165.94,83.34l-3.51-6.81C163.49,77.12,165.14,80.13,165.94,83.34Z"/><path class="cls-1" d="M159.33,75.72,155,71.64A9.07,9.07,0,0,1,159.33,75.72Z"/><path class="cls-1" d="M163.29,80.59c-.9-.25-.74-1.09-1.09-1.65l.29-.14c.25.61.5,1.22.76,1.83Z"/><path class="cls-1" d="M163.25,80.63l.57,1.25c-.52-.58-.52-.58-.53-1.29Z"/><path class="cls-1" d="M156.05,91.82l-4.19-3.94.28-.29a37.17,37.17,0,0,1,4.14,4Z"/><path class="cls-1" d="M154,91.71c-.74-.79-1.47-1.59-2.2-2.38l.18-.2,2.9,2.58-.93,0Z"/><path class="cls-1" d="M153.92,91.66l1.53,1.82-.11.15-2-1.68.63-.24Z"/><path class="cls-1" d="M156.57,93.57,155,92.34A1.75,1.75,0,0,1,156.57,93.57Z"/><path class="cls-1" d="M151,89.82l-1.58-1,.26-.33,1.39,1.3Z"/><path class="cls-1" d="M151.09,89.74l1.58,1.1-.25.31L151,89.82Z"/><path class="cls-1" d="M126.41,96.58c-1.14,2.61-2.8,5-3.23,7.91A17.92,17.92,0,0,1,122,108a14.74,14.74,0,0,0-.91,7.8,68.43,68.43,0,0,0,1.94,8.21c1.55,5.15,3.83,10,5.71,15a62,62,0,0,1,2.91,12.13,27.36,27.36,0,0,1-1.17,13.13,61.38,61.38,0,0,0-1.69,6.11,19.75,19.75,0,0,1-4.75,8.78,25,25,0,0,1-8.92,6.47,4.14,4.14,0,0,1-.76.3c-1.14.27-1.74-.17-1.52-1.34a13.67,13.67,0,0,1,1.22-4.17,38.48,38.48,0,0,0,3.52-10.26,75.1,75.1,0,0,0,2-11.34,31.7,31.7,0,0,0-.42-8.25c-.72-3.94-1.36-7.89-2-11.84-.36-2.19-.71-4.38-1-6.58a36.84,36.84,0,0,1,.49-10.84c.41-2.56,1-5.11,1.44-7.66a5.77,5.77,0,0,0,0-.9c-.39.67-.65,1.07-.86,1.5-.58,1.16-1.06,2.38-1.73,3.49a14.61,14.61,0,0,0-1.89,6.47,104.17,104.17,0,0,0,.15,20.59c.57,5.51.42,10.93-1.81,16.12a54.18,54.18,0,0,1-5.45,9.61q-3.33,4.74-6.8,9.37a17.57,17.57,0,0,1-8.89,6.08c-2.17.71-4.39,1.26-6.59,1.89a2.54,2.54,0,0,0-.71.37,3.87,3.87,0,0,0-.61.54c-3,3-6.76,4.39-10.94,5-3.27.5-6.43-.07-9.62-.39a2.32,2.32,0,0,1-.77-.25c-.64-.32-.73-.8-.22-1.27a8.92,8.92,0,0,1,1.07-.75,24.09,24.09,0,0,0,5.71-5.09c1.83-2.22,3.78-4.36,5.5-6.67s3.12-4.69,4.66-7.05a3.93,3.93,0,0,0,.21-.81c-.47.57-.73.85-1,1.16a106.27,106.27,0,0,1-14,15.44,33.48,33.48,0,0,1-9.35,5.91c-2.15.95-4.32,1.84-6.53,2.61a16.72,16.72,0,0,0-5.94,3.66,4.79,4.79,0,0,1-.72.64.57.57,0,0,1-.88-.55,2.27,2.27,0,0,1,.12-.63c1.7-5.86,3.86-11.5,7.64-16.42A29.75,29.75,0,0,1,54.41,177c2.1-1.48,4.16-3,6.26-4.46a62.34,62.34,0,0,0,13.7-13.43c1.23-1.59,2.23-3.35,3.46-4.94s2.53-2.94,3.75-4.53l-1.06.61A84.63,84.63,0,0,0,68,159.4c-.7.61-1.53,1.07-2.17,1.73a27.17,27.17,0,0,0-3.18,3.69,48.41,48.41,0,0,1-11.86,12.89c-1.86,1.34-3.69,2.71-5.57,4a84,84,0,0,1-17,9.06,12.2,12.2,0,0,1-3.17.74c-4.83.58-9.64,1.23-14.4,2.2a6.67,6.67,0,0,1-2.44,0,1.18,1.18,0,0,1-.72-2.13c5.11-5.36,10.33-10.59,16.47-14.85a66.1,66.1,0,0,1,18.11-8.56l1.25-.41a4.53,4.53,0,0,0,.5-.32c-2.39.26-4.52.51-6.66.7s-4.36.45-6.54.46c-6.07,0-12.14-.12-18.08-1.56a20.71,20.71,0,0,0-10,.16,8.3,8.3,0,0,1-1.77.3c-.68,0-1-.51-.61-1.11a3,3,0,0,1,.64-.73,16.73,16.73,0,0,1,2.07-1.59,43.71,43.71,0,0,1,18-6,107.55,107.55,0,0,1,20,.14c3.16.26,6.31.53,9.48.76a52.33,52.33,0,0,0,11.57-1,11.68,11.68,0,0,0,6.15-2.72,15.23,15.23,0,0,0,2.31-2.13l-2.32.47c-4.06.85-8.11,1.71-12.18,2.54a35.14,35.14,0,0,1-10.29.09c-6.17-.57-12.14-2.17-18.15-3.54A69.17,69.17,0,0,1,18.18,150a35.88,35.88,0,0,0-10-2.39c-1.41-.12-2.83,0-4.25,0-.68,0-1.37.05-2,.08-.39-.85.1-1,.55-1.25a62.71,62.71,0,0,1,8.43-3.14,40.91,40.91,0,0,1,16.23-1c7,.85,13.67,2.83,20.35,4.87,4.23,1.29,8.45,2.61,12.68,3.89.78.24,1.59.35,2.39.55a8.35,8.35,0,0,0,3.72-.08c2.14-.38,4.31-.67,6.48-.91a7.45,7.45,0,0,0,3-.83c.66-.38,1.41-.6,2.1-.91.47-.22.93-.47,1.39-.71l-.09-.33c-.93.15-1.87.26-2.79.45a40.78,40.78,0,0,1-15.14.1,93.39,93.39,0,0,1-16.37-3.93c-1.23-.46-2.46-.91-3.66-1.43-3.36-1.43-6.7-2.91-10-4.35a16.54,16.54,0,0,0-8-1.27c-.68.06-1.45.34-1.95-.75a13.52,13.52,0,0,1,1.48-1,28.68,28.68,0,0,1,8.42-2.54c7-1.25,13.71-.32,20.36,1.8a151.94,151.94,0,0,1,20.4,8A34,34,0,0,0,80,145.56a7.24,7.24,0,0,0,5.76-1c2.69-1.78,4.87-4.12,7.45-6l-.15-.3c-.76.14-1.54.24-2.3.42-5.33,1.28-10.72,1.12-16.14.69-5.88-.47-11.25-2.53-16.56-4.87s-10.88-4.79-16.36-7.09a27.8,27.8,0,0,0-9.34-2.3c-.76,0-1.52,0-2.29,0-.45,0-.9-.11-1.3-.15-.16-.86.33-1.08.77-1.26a30.32,30.32,0,0,1,4.13-1.55c2.86-.68,5.77-1.19,8.65-1.76,2.3-.46,4.62-.86,6.9-1.37a84.74,84.74,0,0,1,21.94-2.19,76,76,0,0,1,14.56,2.15c3.24.77,6.48,1.55,9.66,2.54s6.23,1.36,9.38,0c1.8-.78,3.66-1.4,5.48-2.14a2.62,2.62,0,0,0,1.16-.85c1.23-1.84,2.39-3.73,3.71-5.82a3.11,3.11,0,0,0-1.81.75,37,37,0,0,1-9.43,4.45,26,26,0,0,1-11.84.44c-4.57-.71-8.82-2.43-13.19-3.82-1-.3-2-.44-3-.65-.8-.16-1.62-.26-2.4-.48-3.52-1-7-2-10.55-3a5.61,5.61,0,0,1-3.12-1.81,3,3,0,0,1,.75-.41c3.33-.59,6.67-1.12,10-1.73a31.43,31.43,0,0,1,12.52.39,32.41,32.41,0,0,0,8.15.7,107.38,107.38,0,0,1,11.63.18c2,.14,4.05,0,6.07.06,1.85,0,3.7.17,5.56.26.38,0,.76.08,1.14.09,1.64.06,2.95-.36,3.66-2,.51-1.23,1.27-2.37,1.74-3.76-.28.17-.56.36-.85.52-1.81,1-3.59,2.07-5.46,2.94a13.55,13.55,0,0,1-3.61,1c-1.88.29-3.8.44-5.7.59-3.69.29-7.29-.48-10.89-1.09a102.1,102.1,0,0,1-10-2.33c-2.88-.8-5.88-1.16-8.83-1.72-.86-.16-1.73-.3-2.58-.49a10.39,10.39,0,0,0-4.23,0,14.41,14.41,0,0,1-1.67.18c-.31-.75.13-.88.52-1.11A29.7,29.7,0,0,1,80.1,97c1.63-.18,3.24-.46,4.86-.71a1,1,0,0,0,.72-.53c-1.26-.11-2.52-.33-3.78-.33a34.74,34.74,0,0,0-4.07.35c-1.26.15-2.38.93-3.65,1.08L74,96.5a3.4,3.4,0,0,1,.63-.76c2.39-1.51,4.75-3.1,7.23-4.47A22.59,22.59,0,0,1,93.7,88c4.2.16,8.39.52,12.58.87,1.79.15,3.57.48,5.35.74A29.73,29.73,0,0,0,122.06,89a6.83,6.83,0,0,0,2.21-1c1.14-.74,2.21-1.59,3.29-2.41a2.79,2.79,0,0,0,.95-.88,23.54,23.54,0,0,0,1.91-6.49,4.47,4.47,0,0,0-2.52,1.65,28.88,28.88,0,0,1-5.38,5c-2.39,1.78-5.2,2.41-8.06,3-4,.79-7.94.08-11.85-.75-1.5-.32-3-.6-4.48-1a14,14,0,0,0-7.91.35,3.88,3.88,0,0,1-.78.24c-.19,0-.52-.08-.56-.2a1,1,0,0,1,.09-.71c.09-.18.32-.29.49-.42a29.43,29.43,0,0,1,13.92-5.71A71.12,71.12,0,0,1,114,79.13a30.35,30.35,0,0,0,14.15-2.89c3.68-1.81,3.79-2,4.54-6a31.71,31.71,0,0,0,.34-3.38c.07-.92.1-1.83.15-2.93a7.63,7.63,0,0,0-.85.68,51,51,0,0,1-9.43,7.78A22.79,22.79,0,0,1,109.84,76a92.77,92.77,0,0,1-14.23-.73,4.47,4.47,0,0,0-1.63,0c-2.13.47-4.27.94-6,2.47-.32.29-.34.26-1.33,0,.35-.48.61-.93.95-1.31A24.66,24.66,0,0,1,100,68.76a107.52,107.52,0,0,1,17.3-3.56c2-.19,4-.21,6-.44a46.35,46.35,0,0,0,4.82-.87,2,2,0,0,0,1.17-.76c1.87-3.06,3.71-6.15,4.18-9.8,0-.37.06-.75.11-1.47-.41.48-.63.72-.82,1-1,1.41-1.9,2.92-3,4.23A14.73,14.73,0,0,1,121.52,62a25,25,0,0,1-7.82.38,42.77,42.77,0,0,0-5.06.06c-.73,0-1.51.33-2.26-.45.73-.74,1.44-1.45,2.14-2.17a26.13,26.13,0,0,1,12.16-7c2.74-.72,5.5-1.44,8.29-2a4.78,4.78,0,0,0,4.08-3.65c.49-1.66,1-3.31,1.48-5a1.54,1.54,0,0,0-.13-1.11c-.16.26-.33.52-.49.79a17.56,17.56,0,0,1-6.45,6.33A30.83,30.83,0,0,1,120,51.51a26.29,26.29,0,0,0-4.29,2c-.55.27-1,.84-1.75.43-.34-.63.05-1.08.28-1.55a33.52,33.52,0,0,1,15.34-15.49c1.31-.65,2.6-1.38,3.93-2a1.89,1.89,0,0,0,1.13-1.77,101.3,101.3,0,0,0,.09-15.58c-.16-4.1-.68-8.19-1.06-12.29a5.64,5.64,0,0,1,.41-3.49A3.79,3.79,0,0,1,135.39.34c.88-.52,2-.59,2.47.82a13.37,13.37,0,0,1,.62,2.35c.34,3.12.72,6.25.9,9.38.21,3.72.72,7.43.42,11.18s-.35,7.47-.62,11.2a2.07,2.07,0,0,0,1.29,2.32c.9.4,1.8.79,2.7,1.16,1.41.59,2.82,1.15,4.22,1.75.6.26,1.15.63,1.74.92A58,58,0,0,1,164,52.25a31.31,31.31,0,0,1,5.79,7.82,39.5,39.5,0,0,1,4.49,16.16c.06.87.17,1.73.25,2.59a4,4,0,0,1,0,1c-.14.78-.08,1.81-1,2s-1.26-.84-1.63-1.5c-4.67-8.32-10.4-15.77-18.11-21.56A87,87,0,0,1,144.69,51a31.43,31.43,0,0,1-5.41-6.7,6.48,6.48,0,0,0-.55-.69c-.1.57-.18.91-.21,1.25-.21,2.21-.4,4.42-.63,6.63a1.45,1.45,0,0,0,.76,1.63c.29.15.53.37.81.55,3.94,2.43,7.87,4.89,11.83,7.28a42.65,42.65,0,0,1,10.55,8.7,32.68,32.68,0,0,1,7.85,17.24c.39,3,.48,6.15.65,9.23a5.23,5.23,0,0,1-.3,1.91.87.87,0,0,1-1.55.32,8.39,8.39,0,0,1-1-1.49c-1.07-1.89-2-3.83-3.19-5.67C159.82,84.05,154.75,77.35,148,72c-.47-.37-.92-.77-1.38-1.16-5.4-4.54-6.09-5.32-9.77-11a8.75,8.75,0,0,0-.73,2.78c-.64,3.09-.63,3.09,1.55,5.39.83.87,1.59,1.79,2.44,2.64,1.38,1.38,2.76,2.77,4.21,4.07,2.19,2,4.43,3.87,6.69,5.75,1.47,1.21,3,2.3,4.53,3.47a14.18,14.18,0,0,1,2.22,1.92A42.47,42.47,0,0,1,164.1,95a109.63,109.63,0,0,1,5,12,54,54,0,0,1,2,11,26.9,26.9,0,0,1-.34,8.4c-.07.32-.14.64-.24,1a1.11,1.11,0,0,1-1,.91,1,1,0,0,1-1.1-.8,21.34,21.34,0,0,1-.61-2.35c-.57-3-1.1-6-1.64-9-.14-.75-.32-1.48-.46-2.23a17.11,17.11,0,0,0-4.61-9c-4-4-7.91-8.09-12.6-11.35a29.85,29.85,0,0,1-11.57-15c-.8-2.29-1.52-4.61-2.34-7.1a9.11,9.11,0,0,0-.32.87c-.59,2.14-1.12,4.3-1.77,6.42a2.65,2.65,0,0,0,.37,2.59,9.75,9.75,0,0,1,1,1.68,35.52,35.52,0,0,0,6.43,9.17c2.6,2.85,5.38,5.53,8,8.34a31.84,31.84,0,0,1,3.58,4.22,56,56,0,0,1,8.72,23.08,33.29,33.29,0,0,1-4,21.95c-1,1.79-1.79,3.71-2.79,5.51a16,16,0,0,1-1.63,2,2.37,2.37,0,0,0-.47,1c-.54,2.54-.95,5.11-1.59,7.62-.6,2.36-1.42,4.66-2.15,7a2.49,2.49,0,0,1-.38.72c-.65.91-1.58.94-2.06,0a8.17,8.17,0,0,1-.69-2.64,31.94,31.94,0,0,1-.06-3.25,50.51,50.51,0,0,0-3-16.7,103.16,103.16,0,0,0-5.36-12c-1.91-3.78-3.64-7.64-5.32-11.52a41,41,0,0,1-1.39-4.66c-.76-2.55-1.64-5.06-2.26-7.63a52,52,0,0,1-.86-15.2c.07-1.11.16-2.22.24-3.34Zm-28.61-14a11.62,11.62,0,0,0-4.57,2c4.9-.65,12-.73,15.06.1H99a1.54,1.54,0,0,0,1,.61c1.93.35,3.88.62,5.8,1a24.17,24.17,0,0,0,10.23-.38,14.47,14.47,0,0,0,8-4.75c-3,1.29-5.89,2.93-9.18,3.5L122.1,81l-.13-.3c-1.12.34-2.25.69-3.38,1s-2.39.63-3.59.94l-.07-.23L121.84,80c-.23-.23-.39-.26-.54-.22a28.57,28.57,0,0,1-9.92.67,7.74,7.74,0,0,0-1.8,0c-2.61.3-5.22.56-7.8,1a36.7,36.7,0,0,0-4,1.11ZM44.12,177.63l-.1-.12c1.24-.88,2.49-1.74,3.71-2.63,3.77-2.78,7.55-5.55,11.29-8.36a12.35,12.35,0,0,0,1.48-1.58l-.23-.26A128.47,128.47,0,0,1,40.66,176l-.21-.35,12-7.26a25.25,25.25,0,0,0-4.05,1.75q-2.05,1-4.15,1.94a13,13,0,0,1-3.94,1.35l10.83-5.64c-4.6.29-14.52,3.53-20,6.32-6,3-14.73,9.58-16.76,12.62l1.38-.85c2.33-1.42,4.6-2.94,7-4.23,2.59-1.4,5.28-2.58,7.94-3.84a4.67,4.67,0,0,1,.93-.22,147.55,147.55,0,0,0-17.15,10.54,4.9,4.9,0,0,0,1.48-.57q6.87-3.61,13.74-7.23a13.5,13.5,0,0,1,1.37-.55c-3.82,2.3-7.71,4.37-11.42,6.78,3.75-1.51,7.26-3.55,11.15-4.7a35.43,35.43,0,0,1-3.28,1.73c-1.08.52-2.16,1-3.23,1.59s-2.25,1.12-3.34,1.73a11.34,11.34,0,0,0-3.17,1.93c2.44.11,2.43.09,4.39-.86,3-1.44,6-2.85,9-4.26a6.69,6.69,0,0,1,1-.31l.11.25-9.83,4.94c1.46.31,2.81.62,4.14-.17a29.1,29.1,0,0,1,2.84-1.26l4-1.79.16.3-5.64,3.12c5.46-.29,26.25-14.39,28.59-19.1l-1.07.68c-3.27,2.16-6.54,4.33-9.82,6.48A13,13,0,0,1,44.12,177.63ZM92.24,160l0,0c.17-.73.28-1.48.51-2.2q1.81-5.81,3.67-11.61c.15-.47.26-1,.39-1.44a65.41,65.41,0,0,0-5.15,11.92,21.92,21.92,0,0,1,.8-3.61,85.79,85.79,0,0,1,4.89-11.68c.23-.48.45-1,.67-1.44a18.12,18.12,0,0,0-2.28,3.57c-.67,1.31-1.29,2.63-1.89,4s-1.12,2.58-1.66,3.88-1,2.56-1.56,3.84l-.26-.1.93-3.89a.86.86,0,0,0-.57.48q-3.32,6.53-6.6,13.06c-3.42,6.8-7,13.52-12.24,19.13-.75.79-1.4,1.67-2.1,2.5a26.24,26.24,0,0,1-5.73,5.3,5,5,0,0,0-.59.57,2.94,2.94,0,0,0,3.17-.52c1.43-1.25,2.93-2.43,4.41-3.63.3-.25.64-.45,1-.68-1.11,2.14-3.12,3.37-4.64,5.11a5.69,5.69,0,0,0,1.74-.71,14.8,14.8,0,0,0,1.6-1.12c.51-.41,1-.86,1.46-1.31s.81-.85,1.27-1.21l.25.29-3.92,4.21c2-.47,3.85-.89,5.65-1.29,2.33-.52,4.1-2,5.87-3.43.16-.14.38-.32.4-.49.09-.75.7-1,1.16-1.49A11.28,11.28,0,0,0,84.6,184c1.52-2.43,3.05-4.88,4.43-7.4,3.43-6.28,6.55-12.67,8-19.8a58.5,58.5,0,0,0,1.07-13.39c-.3.77-.48,1.2-.63,1.64-1.5,4.51-3,9-4.51,13.55A9,9,0,0,1,92.24,160ZM52.18,193.07c.38,0,.55.05.68,0a35.7,35.7,0,0,0,8.89-5.43,101.91,101.91,0,0,0,13.82-15.17,58.72,58.72,0,0,0,7.37-13c.18-.46.34-.93.5-1.4L83.2,158q-1.23,2.1-2.47,4.2c1.28-3.59,3.42-6.79,4.38-10.47l-.32-.16-7.87,13a20.49,20.49,0,0,1,1.64-3.74c.67-1.24,1.39-2.45,2-3.7s1.51-2.18,1.72-3.56A46.28,46.28,0,0,0,78.82,158c-1,1.52-2,3.12-3,4.69,1.14-4.26,3.94-7.55,6.39-11.08A6.19,6.19,0,0,0,80.69,153c-1.09,1.42-2.19,2.84-3.2,4.31a64.12,64.12,0,0,1-17,17.38c-1.41.94-2.74,2-4.16,2.89-5,3.16-8.37,7.71-11.08,12.8-.85,1.6-1.47,3.33-2.19,5,1.7-1.55,3.12-3.25,4.61-4.89A67.81,67.81,0,0,1,59.44,180a6.59,6.59,0,0,1,.85-.4c-1.32,1.38-2.74,2.56-4.1,3.81s-2.69,2.55-4,3.87-2.57,2.65-3.79,4a25.51,25.51,0,0,0-3.27,4.19c4.28-3.5,8.24-7.34,13-10.28L46.56,195.38a3.16,3.16,0,0,0,2.18-.85A83.41,83.41,0,0,0,59,186.44c.32-.31.68-.58,1-.87A37.45,37.45,0,0,1,52.18,193.07Zm33.39-6.79c2.07-.68,3.93-1.15,5.66-1.9a15.71,15.71,0,0,0,6.6-4.67,146.1,146.1,0,0,0,10.83-16.06,30.73,30.73,0,0,0,3.38-9.78c.54-3.08.1-6.16-.08-9.23a5.66,5.66,0,0,0-.16-.82c-.84,3.34-1.12,6.73-2.24,9.94.39-3.44.91-6.85,1.24-10.28.3-3.12.43-6.26.58-9.39a9.59,9.59,0,0,0-.3-2,117.6,117.6,0,0,0-2.89,17.06,41.05,41.05,0,0,1,.57-10.33c.53-3.4,1.18-6.79,1.77-10.18a3.22,3.22,0,0,0-.6,1.16,118.77,118.77,0,0,0-3.86,15.76,9.35,9.35,0,0,1-.35,1.14,61.16,61.16,0,0,1,1.57-12.95,2.71,2.71,0,0,0-.5.86A71.86,71.86,0,0,0,103.46,147a63,63,0,0,1-4.63,16.19,23.3,23.3,0,0,1-1,2.53c-1.76,2.93-3.59,5.82-5.39,8.72l-.71,1.18.26.17L96.1,171c0,.31,0,.43,0,.5a27.09,27.09,0,0,1-5.57,6.55,6.24,6.24,0,0,0-2,3.93l7.16-7.1a5.53,5.53,0,0,1-.34.77,29.3,29.3,0,0,1-7.22,7.47A7.58,7.58,0,0,0,85.57,186.28ZM128,105c.07,1.39.09,2.8.21,4.19a41.69,41.69,0,0,0,2.16,10c.87,2.56,1.37,5.27,2.43,7.74,1.95,4.53,4.08,9,6.34,13.37a71.63,71.63,0,0,1,6.48,17.64c.21.94.4,1.88.63,3V149.47h.21c.32,6.19.64,12.38,1,18.91a6.36,6.36,0,0,0,1-2.81,4.89,4.89,0,0,0,.08-1.26c-.09-.68-.35-1.34-.4-2-.17-2.49-.28-5-.44-7.45,0-.69-.16-1.38-.25-2.07l.39,0q.47,5.14.95,10.29a35.24,35.24,0,0,0,1.58-9.07,41.19,41.19,0,0,0-2.79-15.43,133,133,0,0,0-10.79-23.27c-1-1.59-1.95-3.19-2.93-4.79l-.23.1c.78,2.5,1.57,5,2.36,7.49a3.8,3.8,0,0,1-1-1.62q-1.83-5.11-3.65-10.25a2.6,2.6,0,0,0-1-1.48L133,116.44l-.35.09-2.79-9.41a59.16,59.16,0,0,0,2.42,12,1.48,1.48,0,0,1-.49-.58A73.85,73.85,0,0,1,128,105Zm-8.56,13.67c-.42,9.68-.14,19.3,3.32,28.79a6.88,6.88,0,0,1-1.85-3.48c-.75-3-1.4-6.11-2-9.18-.25-1.2-.34-2.43-.5-3.65a1.3,1.3,0,0,0-.25.82,30.3,30.3,0,0,0,.68,6.44c.75,3.94,1.31,7.9,2.07,11.83a28.77,28.77,0,0,1,.38,9.7c-.5,3.42-1.14,6.83-1.89,10.2-.87,3.92-1.89,7.79-4.11,11.24a9,9,0,0,0-.87,2.09,5.48,5.48,0,0,0,0,1.29,8.44,8.44,0,0,0,1-1.16c.59-1.16,1.21-2.31,1.69-3.51,1.18-3,2.29-6,3.44-8.95.14-.36.32-.72.48-1.07a74.5,74.5,0,0,1-4.44,13,1.61,1.61,0,0,0,.48,0,4,4,0,0,0,.57-.32,24.7,24.7,0,0,0,6.5-6.35,16.41,16.41,0,0,0,2.68-5.35c.78-2.93,1.57-5.86,2.41-8.77A21.67,21.67,0,0,0,130,154a65.63,65.63,0,0,0-1.26-8.51,67.78,67.78,0,0,0-2.7-8.16c-1.15-3.07-2.46-6.08-3.71-9.11l-.23.06,2.64,10.95a.73.73,0,0,1-.39-.45A177.25,177.25,0,0,1,119.44,118.62ZM82.08,133.79l.17-.33-1.43-.74c-3.66-1.91-7.3-3.84-11-5.7-8.39-4.24-17.2-6.56-26.7-5.64-1.53.14-3,.42-4.56.64l0,.3H49.24c-2.58.71-5.24.49-7.86.8,1.51.2,3,.33,4.54.49a41.31,41.31,0,0,1,9.6,2,11.83,11.83,0,0,1,4,2.2c-1.86-.67-3.45-1.35-5.1-1.81a47.19,47.19,0,0,0-5.29-1.07c-1.72-.26-3.47-.45-5.21-.54s-3.46,0-5.2,0c3.57.8,7.22,1.14,10.67,2.39-1.18-.09-2.34-.38-3.5-.51s-2.33-.63-3.73-.27c.31.18.43.28.57.34,5.32,2.25,10.65,4.47,16,6.77,5.53,2.41,11.18,4.31,17.28,4.69a77.9,77.9,0,0,0,9.42-.06c-2.41-.39-4.87-.36-7.24-1.05a3.48,3.48,0,0,1,1.11-.07c.36,0,.71,0,1.07,0a14.59,14.59,0,0,0-2.79-.95c-.94-.26-1.89-.52-2.82-.82s-1.69-.61-2.54-.91c4.41.72,8.67,1.91,13.1,2.25-1.25-.56-2.53-1-3.8-1.48s-2.54-1-3.8-1.5-2.49-1.11-3.72-1.68a12,12,0,0,1-3.31-2Zm73.48,13.61.3,0a2,2,0,0,0,.28-.37,30.64,30.64,0,0,0,3-15.8,55,55,0,0,0-8.49-25,19.6,19.6,0,0,0-4-4.7,60.75,60.75,0,0,1-8.49-8.78,2.69,2.69,0,0,0-.37-.3l-.29.24q4.26,7,8.51,14.1c-4.18-5.12-7.37-10.88-10.86-16.45a65.92,65.92,0,0,0,7.06,12.83l-.29.19-3.44-4.51a13.14,13.14,0,0,0,1.68,3.64c2.32,3.49,4.68,6.94,7,10.38a21.86,21.86,0,0,1,4.11,10,134.88,134.88,0,0,1,1,16.2c0,1.24,0,2.48,0,3.72a47.89,47.89,0,0,0,1-6.7l.69-6.88.41,0-.4,9.69h.21c.38-1.81.77-3.62,1.15-5.43l.31.06q-1.17,7.08-2.35,14.18l.23,0q1.29-5.5,2.56-11c.35,2.38-.67,4.61-.68,6.94.86-2.67,1.41-5.43,2.66-8Q156.82,141.57,155.56,147.4Zm-4.93-6a128.75,128.75,0,0,0-1.32-19.23,17.65,17.65,0,0,0-1.11-3.72,28.14,28.14,0,0,0-3.88-6.37,72.49,72.49,0,0,1-7.6-12.3,77.55,77.55,0,0,1-5.09-15.22c-.09-.38-.25-.73-.46-1.33-.23.67-.34,1.09-.51,1.48a13.87,13.87,0,0,0-.84,8.52A52.3,52.3,0,0,0,134.23,107a74.15,74.15,0,0,0,4,7.24,116.24,116.24,0,0,1,7.53,15.11,73,73,0,0,1,4.44,11.51C150.26,141,150.39,141.08,150.63,141.44Zm16.92-74.15c2.5,2.54,3.65,5.81,5,9A35.23,35.23,0,0,0,171,67c-2.85-8.76-8.92-15-16.3-20.18-3-2.07-6.31-3.67-9.5-5.44a6.7,6.7,0,0,0-3.15-.91c1.26,1.1,2.27,2,3.3,2.88s2.09,1.75,3.15,2.6,2.23,1.75,3.35,2.62,2.05,1.54,3.08,2.31A60.58,60.58,0,0,1,139.28,39c-.55.7,0,1,.26,1.35A54.54,54.54,0,0,0,152.7,52l1.31.83c-4.8-1.48-8.61-4.49-12.38-7.63A18.21,18.21,0,0,0,144,48.13a72.53,72.53,0,0,0,9.28,8.23A57.86,57.86,0,0,1,166.16,69a10.49,10.49,0,0,0,.77.86l.23-.16-2.95-5.26A7.61,7.61,0,0,1,166,66.28c.53.75,1,1.52,1.55,2.29s.88,1.32,1.31,2l.31-.2Zm-30-9.12c.09.24.16.49.26.72a16.24,16.24,0,0,0,3.89,5.58c2.44,2.24,4.93,4.44,7.47,6.57a54.16,54.16,0,0,1,8.37,8.21q2.77,3.61,5.54,7.25c.14.17.31.32.46.49l.15-.12-1.49-3.3c2.49,2.71,3.89,6.06,5.88,9.08l-2.61-8,.29-.11,2.07,4.32a2.41,2.41,0,0,0,.16-1.4,61.71,61.71,0,0,0-1.81-6.89c-2.86-7.76-8.4-13.3-15.28-17.68q-4.06-2.58-8.16-5.12c-1.55-1-3.11-1.89-4.67-2.84l-.18.21,6.66,7.14-.2.21q-2.28-2-4.58-3.94A48.45,48.45,0,0,0,145.34,65C142.34,63.2,140.05,60.64,137.58,58.17ZM58.42,153.06a148.18,148.18,0,0,1-15.85-3.7c5,.48,9.7,2.15,15,2.84a8.72,8.72,0,0,0-3.18-1.62l-5.94-1.81c-8-2.41-16-4.83-24.37-5.55A34.54,34.54,0,0,0,9.79,145c6-.64,12-.83,17.8.88a58.51,58.51,0,0,0-12.41-.32c4.7.73,9.39,1.39,13.78,3.33-1.6-.26-3.17-.67-4.76-1s-3.1-.62-4.67-.86-3.12-.41-4.68-.61c4.34,1.17,8.73,2,12.87,3.81-3.4-.62-6.7-1.68-10.14-2a3.55,3.55,0,0,0,1,.53,68.33,68.33,0,0,0,11.18,3.1,119.46,119.46,0,0,0,16.92,2.92,36.14,36.14,0,0,0,10-.41A2.13,2.13,0,0,0,58.42,153.06Zm11.2-42.22,4.2,1.65a1,1,0,0,0,.48.09c2.15-.32,4.09.53,6.07,1.08a116.72,116.72,0,0,0,11.37,3,24.87,24.87,0,0,0,15-1.85,20.06,20.06,0,0,0,5.09-3.19c-3.15.68-6.27,1.53-9.55,1.23a52,52,0,0,0,11.61-3.41c-4.6.5-9.19,1-13.81.15h3.4a48.84,48.84,0,0,0-10.45-.54,38.37,38.37,0,0,1-9.45-.63c-3.43-.65-6.84-1.5-10.38-1.06-1,.13-2.07.17-3.1.32-2.29.32-4.59.69-6.88,1v.3l15.11,1.48C75.52,111.26,72.6,110.64,69.62,110.84Zm-49.25,53.9a47.24,47.24,0,0,0-8.31.64c9.85,2.85,31.24,1.46,38.15-1.4-1.13.18-2.24.43-3.36.59s-2.28.25-3.42.33-2.29.15-3.44.17-2.29,0-3.44,0-2.13-.15-3.2-.22c4.71-.25,9.41-.1,14-1.22l-15.32-.35a.76.76,0,0,1,.64-.28c3.77-.05,7.54-.12,11.31-.14a64.94,64.94,0,0,0,14.3-1.58,16.53,16.53,0,0,0,1.76-.59c-6.29.93-12.26,1.21-15.08.26l5.61-.34a.92.92,0,0,0-.66-.27c-6-.39-12-.82-18-1.13a67.5,67.5,0,0,0-13.25.61c-4,.59-7.63,2.19-11.27,3.8-.08,0-.12.14-.31.36,6.23-1.72,12.35-3,18.67-1.6A40.12,40.12,0,0,0,7.58,165C11.85,164.74,16.09,163.94,20.37,164.74ZM139.44,75.3a56.19,56.19,0,0,0,6,9.82c-4-3.33-6.25-7.93-9-12.18.5,1.77,1.13,3.48,1.78,5.18a29.62,29.62,0,0,0,11.37,14.09A52.57,52.57,0,0,1,157,98.32c2.11,2.08,4.27,4.12,6.54,6.32-.39-1.56-1.64-2.58-1.71-4.11l2.43,3.49.24-.15-1.39-3,2.4,1.73c-.92-2.06-1.79-3.9-2.57-5.79-1.49-3.55-3.92-6.48-6.27-9.47a7.83,7.83,0,0,0-1.81-1.63A100.08,100.08,0,0,1,145.17,78c-.06,0-.17,0-.25-.06l-.34.59-5.77-6.15-.25.19,6.18,8.57-.27.2ZM32.13,135.72l0,.37L44,138.33l-.05.34-10-1.41,0,.18.83.35L33.5,138c6,2.49,11.76,5.39,18,6.77S64,147.34,70.4,147.26c-5.93-1-11.91-1.82-17.51-4.19a128.66,128.66,0,0,0,14.19,2.58c-3.09-1-6.33-1.61-9.28-3a111.24,111.24,0,0,0,12.53,2.68c-4.45-1.58-8.93-3-13.21-5,5.47,1.56,10.76,3.7,16.51,4.81-.15-.19-.17-.25-.21-.27A186.84,186.84,0,0,0,50,135.75a40.81,40.81,0,0,0-13.7-2,24.91,24.91,0,0,0-7.41,1.19,48.1,48.1,0,0,1,9.82.08,27.35,27.35,0,0,1,8.74,2c.62.27,1.19.65,1.78,1C43.62,135.9,37.9,135.6,32.13,135.72Zm42.63-11.91c-2.55.54-5.14-.16-8,.32,2.12,1,3.92,1.92,5.74,2.78a3.68,3.68,0,0,0,1.11.26,52.18,52.18,0,0,0,15.18.09A10.23,10.23,0,0,0,92.46,126c-2.24.07-4.19.34-6.39-.21,2.44-.66,4.76-.48,6.91-1.26a68.3,68.3,0,0,1-11.33-1.23l13.08.25c-4.9-.81-9.8-1.48-14.62-2.65,4,.08,7.85.91,11.81,1-2-.66-4.09-1.1-6.14-1.63a71.75,71.75,0,0,0-21.94-2.07c-2.72.14-5.43.53-8.13.91a32.32,32.32,0,0,0-3.58.9,10.17,10.17,0,0,0,5.12.4c1.78-.47,3.62-.68,5.43-1l.07.29-5,1.16,0,.42a13.36,13.36,0,0,0,2.17.25c3-.16,6.1-.41,9.15-.59,1.07-.06,2.14,0,3.21,0v.21l-4.68.35v.24h5.52V122l-9.27.76a2.19,2.19,0,0,0,2.1.8C68.94,122.94,71.85,123.55,74.76,123.81Zm44.09-22.54c-2.17.64-4.33,1.34-6.52,1.91-3,.78-5.28.85-6.73.39,4.53-.44,8-1.26,9.78-2.4-1.13.18-2.09.35-3.06.46s-1.95.18-2.94.21-1.81,0-2.72,0v-.36h2.74a3.75,3.75,0,0,0-1.79-.27,27.59,27.59,0,0,1-7.47-.83c-2.86-.7-5.72-1.42-8.56-2.2a16.22,16.22,0,0,0-7.46-.34c-1.17.23-2.38.29-3.57.45q-3.33.46-6.65,1a8.27,8.27,0,0,0-1.32.45c3.08.19,5.92.27,8.74.56s5.52.78,8.27,1.22a51.26,51.26,0,0,1,8.18,1.79c-2.31-.09-4.58-.34-6.85-.62-4.44-.56-8.88-1.14-13.32-1.69a17.86,17.86,0,0,0-2.07,0,14.59,14.59,0,0,0,2.58.61c2.26.39,4.53.73,6.77,1.18,2.89.59,5.74,1.36,8.63,1.9a47.93,47.93,0,0,0,16.12.65A21.89,21.89,0,0,0,118.85,101.27Zm-10.91,22.16c-1.61.55-2.87,1-4.16,1.41s-2.44.6-3.64.94c-3.35.94-6.7,1.91-10,2.86a4.56,4.56,0,0,1-.64.14,46.59,46.59,0,0,1-11.44.15,11.8,11.8,0,0,0-1.33,0,55.26,55.26,0,0,0,11,5.47,17.49,17.49,0,0,0,3,.77c1.56.23,3.13.45,4.63-.4a3.94,3.94,0,0,1,1.73-.42,2.24,2.24,0,0,0,1.68-.84c2.62-2.84,5.26-5.66,7.88-8.49C107,124.56,107.39,124.07,107.94,123.43ZM84.22,91.73l8-.35,0,.35-1.58.17-8.15.83a3.58,3.58,0,0,0-2.36,1.06c6.14-.39,20.34,0,22,.68-4.71.4-9.44.13-14.16.27,1.72.36,3.45.52,5.15.84a52.07,52.07,0,0,0,11.07,1,4.93,4.93,0,0,0,1.28-.16c.72-.22,1.39-.56,2.11-.75a48,48,0,0,0,7.57-2.52c-1.4.08-2.78.36-4.16.47a12,12,0,0,1-4.59-.11A51.75,51.75,0,0,0,119.14,91a2,2,0,0,0-.65,0,45.29,45.29,0,0,1-6.68.15c-3.25-.36-6.47-1-9.75-1.06a43.63,43.63,0,0,1-5.72-.41A20.22,20.22,0,0,0,84.22,91.73ZM99.34,74.16l0,.24a1.83,1.83,0,0,0,.39.09c3.72,0,7.44.09,11.15,0A20.56,20.56,0,0,0,121,71.58c.84-.5,1.64-1.07,2.43-1.65s1.47-1.11,2.2-1.67l-.17-.28c-3.14,1.62-6.28,3.2-9.87,3.52A35.53,35.53,0,0,0,123,67.79c-2.31.48-4.48,1.48-6.88,1.5a44.34,44.34,0,0,0,7.84-3c-1.84,0-3.64.11-5.43.29A96.21,96.21,0,0,0,100.87,70c-1.83.54-3.64,1.15-5.41,1.85A7.65,7.65,0,0,0,92,74.45c4.52-2,10.27-3.21,12.88-2.67l-1.2.29-1.19.33a8.47,8.47,0,0,0,2.3.06c.76,0,1.52-.13,2.29-.17a3.43,3.43,0,0,1,2.18.33ZM129.85,52.1l-.16-.32c-2.59.63-5.16,1.31-7.77,1.87a26.59,26.59,0,0,0-10.82,5.19c-.82.64-1.53,1.41-2.29,2.13,1.75-.48,3.31-1.2,4.92-1.8s3.23-1.06,4.86-1.58l.09.28-3.5,1.47.08.23,5.82-1.34.09.35L113.9,61c6,1,13.21-1.59,15.6-6.28-1.37.67-2.6,1.33-3.88,1.88a10,10,0,0,1-4,1.13,40.93,40.93,0,0,0,9.63-5.47c-2.54,1.06-5,2.26-7.77,2.63Zm4.24-14.92c-2.3,1.85-4.2,4.15-6.79,5.64a55.16,55.16,0,0,0,4.23-4.67l-1.3.47,0-.14L132,36.9c-6.19,2.1-14.52,9.91-15.92,14.77,1.4-.53,2.78-1.15,4.22-1.59a25.87,25.87,0,0,0,9-5.13,25.1,25.1,0,0,0,3-3.6,4,4,0,0,0,.4-.86c-2.44,2-4.61,4.28-7.45,5.67A62.88,62.88,0,0,0,134.09,37.18Zm-6.63,51.25a16.37,16.37,0,0,0-5.25,3.78c-3.95,4-8.86,5.65-14.33,5.75-3.59.07-7.18-.21-10.77-.32a6.74,6.74,0,0,0-.81.08c.6.21.9.33,1.21.41a42,42,0,0,0,15.9,1,34.49,34.49,0,0,0,9.83-2.92,4.05,4.05,0,0,0,2.49-2.6C126.2,92,126.81,90.38,127.46,88.43ZM110,123.9l-.17-.15c-1.29,1.39-2.59,2.78-3.87,4.19a4,4,0,0,0-.57,1c-1,2.1-1.94,4.23-3,6.3A23,23,0,0,0,99.83,147a31.19,31.19,0,0,1-1.12,9.65c-.34,1.23-.57,2.49-.85,3.75a3.65,3.65,0,0,0,1-1.52,50,50,0,0,0,2.65-10,81.46,81.46,0,0,1,6.78-21.47C108.8,126.16,109.44,125,110,123.9Zm-18.22,21c-.53.46-1,1-1.59,1.37a6.07,6.07,0,0,0-2.35,3.23c-1,3.13-1.87,6.27-2.8,9.4A62.77,62.77,0,0,0,91.81,144.9Zm23.83-50.51-6.78,1.76A14,14,0,0,0,115.64,94.39ZM66,121.79c-1.51,0-3-.39-4.48.51Zm87.39,30.65a3.86,3.86,0,0,0,.75-3.24ZM18.73,187.28l-.18-.33-2,1.12.15.3Z"/><path class="cls-1" d="M82.71,176.9a67.39,67.39,0,0,1-8.18,10.74C74.87,186.43,80.28,179.39,82.71,176.9Z"/><path class="cls-1" d="M74.93,185.05a1,1,0,0,1,.06-.31q3.3-4.81,6.61-9.64a5.12,5.12,0,0,1,.63-.56,11.16,11.16,0,0,1-.67,1.4q-3,4.34-6,8.64a2.09,2.09,0,0,1-.63.44Z"/><path class="cls-1" d="M76,189.33l5.89-7.76a39.83,39.83,0,0,1-5.52,8Z"/><path class="cls-1" d="M91.2,167a29.12,29.12,0,0,1-3.53,7.32A29.74,29.74,0,0,1,91.2,167Z"/><path class="cls-1" d="M89.11,167.85l-1.85,3.41A5.12,5.12,0,0,1,89.11,167.85Z"/><path class="cls-1" d="M92.24,160l-.1,1.33-.32-.05.45-1.25Z"/><path class="cls-1" d="M74.89,185l-.62,1.19a1,1,0,0,1,.66-1.16Z"/><path class="cls-1" d="M73.38,169.9a27,27,0,0,1-6.3,7.41Z"/><path class="cls-1" d="M71.32,170.14a54.35,54.35,0,0,1-5.12,6.15C66.88,174.75,70.18,170.75,71.32,170.14Z"/><path class="cls-1" d="M70,169.72,65.49,174l-.25-.26c1.45-1.47,2.86-3,4.41-4.35Z"/><path class="cls-1" d="M65.22,179.29l.89-.95.19.16-.87,1Z"/><path class="cls-1" d="M102.13,170.05l4.62-11.88c-.43,4.38-2.63,8.09-4.29,12Z"/><path class="cls-1" d="M105.18,157.86a27.72,27.72,0,0,1-3.18,7.76C102.21,164,104.38,158.62,105.18,157.86Z"/><path class="cls-1" d="M138.49,120.47a82.36,82.36,0,0,1,6.64,13.89l-7-13.73Z"/><path class="cls-1" d="M141.74,140.76a99.55,99.55,0,0,1-5.91-11.43A102,102,0,0,1,141.74,140.76Z"/><path class="cls-1" d="M138.33,123.19a19.28,19.28,0,0,1,3.65,6.7l-4-6.53Z"/><path class="cls-1" d="M141.87,137.89a4.16,4.16,0,0,1-.57-.7c-.92-1.72-1.81-3.46-2.71-5.19a2,2,0,0,1-.25-1.13,3.79,3.79,0,0,1,.53.62c1,1.87,1.93,3.76,2.87,5.65a2.2,2.2,0,0,1,.09.78Z"/><path class="cls-1" d="M122.87,142.18c-1.69-6.71-3.69-13.36-3.41-20.38l.4,0c0,.94,0,1.88.09,2.82s.16,1.93.29,2.89.32,2,.48,3,.33,1.92.51,2.87.42,2,.64,3,.42,1.9.64,2.84.45,2,.68,2.92Z"/><path class="cls-1" d="M127.7,152.4a5.66,5.66,0,0,1,.28,1.32,46.48,46.48,0,0,1-1.77,11.94l1.31-13.22Z"/><path class="cls-1" d="M119,180.76c1-2.61,1.95-5.22,3-8A18.47,18.47,0,0,1,119,180.76Z"/><path class="cls-1" d="M125,170.05l-2.3,7.26C122.55,175.84,123.68,172.19,125,170.05Z"/><path class="cls-1" d="M125.71,160.25c-.3-1.45,0-4.65.62-5.52Q126,157.49,125.71,160.25Z"/><path class="cls-1" d="M44.12,177.63l-1.33,1-.19-.28,1.42-.81Z"/><path class="cls-1" d="M42.71,151.87l11.91,1.34,0,.32A62.47,62.47,0,0,1,42.71,151.87Z"/><path class="cls-1" d="M98.43,111.05c-4.1,1-16.07.81-18.33-.34A168.52,168.52,0,0,0,98.43,111.05Z"/><path class="cls-1" d="M83.36,112.51l9.22,1C90.19,114,84.4,113.39,83.36,112.51Z"/><path class="cls-1" d="M76.11,108.9H69.57C70.8,108.23,72.61,108.22,76.11,108.9Z"/><path class="cls-1" d="M80,99.4c4.56-.52,8.9.47,13.21,1.6Z"/><path class="cls-1" d="M97.74,82.57l7.51-.23a3.8,3.8,0,0,1,1.67.23,2.33,2.33,0,0,1-.65.24c-3.09.22-6.18.42-9.28.62,0,0-.07-.07-.2-.21l1-.67Z"/><path class="cls-1" d="M118.7,48.62a21.48,21.48,0,0,1,3.86-4l.28.27L119,48.9Z"/><path class="cls-1" d="M123.4,46.17l-3,2.92A5,5,0,0,1,123.4,46.17Z"/></g></g></svg>