<svg xmlns="http://www.w3.org/2000/svg" viewBox="0 0 56.33 70.07"><defs><style>.cls-1{fill:#dbdbdb;}</style></defs><g id="Layer_2" data-name="Layer 2"><g id="OBJECTS"><path class="cls-1" d="M56.29,70.07c-1.67-.66-3.37-1.26-5-2A130.69,130.69,0,0,1,39,61.92a21.44,21.44,0,0,1-6.5-5.52c-1-1.4-2.18-2.75-3.3-4.1a2.16,2.16,0,0,0-3.12-.63,6,6,0,0,1-3.36.45,16.39,16.39,0,0,1-7.83-3.34c-.23-.16-.31-.51-.46-.77a2.74,2.74,0,0,1,.82-.38,10.55,10.55,0,0,1,1.48.07l1.85.12c-.34-.3-.46-.47-.62-.53-3.6-1.38-6.27-3.92-8.67-6.81-1.75-2.11-3.5-4.2-5.27-6.29-.28-.34-.76-.62-.45-1.13s.8-.28,1.24-.2.68.16,1.21.3c-.67-1-1.18-1.87-1.79-2.66a11.27,11.27,0,0,1-2.08-5.79c-.22-1.9-.41-3.8-.67-5.69a13.84,13.84,0,0,0-.6-2.36,10.18,10.18,0,0,1-.55-5,14.08,14.08,0,0,0,0-4.25A39.85,39.85,0,0,1,0,2.87,8.07,8.07,0,0,1,.39.6C.56,0,1-.12,1.55.11A2.61,2.61,0,0,1,2,.35C4.43,2,6.9,3.57,9.32,5.24a6.54,6.54,0,0,1,1.49,1.61,8.67,8.67,0,0,0,2.83,2.49,10.88,10.88,0,0,1,3.77,3.26c1.45,2,2.85,4.08,4.27,6.12.3.43.58.88.85,1.31.14,0,.25,0,.27-.07.2-.34.3-.86.58-1,.53-.23.74.36,1,.69a16.74,16.74,0,0,1,3.48,6.53A20.67,20.67,0,0,0,29.5,31a11.62,11.62,0,0,1,.69,2.59c.11.46.2.93.37,1.68.21-.5.33-.73.4-1a16.05,16.05,0,0,1,2.45-4.76c.13-.17.22-.38.38-.48s.58-.42.82-.37c.45.09.39.53.36.91-.2,3.21-.4,6.41-.59,9.62a2.08,2.08,0,0,0,.07.44c.51-.52.93-1,1.42-1.42a5,5,0,0,1,1.32-.86c.63-.25,1.11.21.87.83-.81,2.13-1.66,4.24-2.52,6.34a3.82,3.82,0,0,1-.65,1c-1,1.17-2,2.3-3.16,3.53a12.53,12.53,0,0,0,.81,1.34c1.5,1.88,3,3.76,4.55,5.61a26,26,0,0,0,7.07,5.62c3,1.76,6.11,3.34,9.17,5l1.17.65,0,.13c-1.18-.46-2.38-.86-3.53-1.4A71.76,71.76,0,0,1,41,60.46a27,27,0,0,1-4.25-3.09,38.13,38.13,0,0,1-5.07-6.27A8.55,8.55,0,0,1,31.09,50a1.86,1.86,0,0,1,.16-2,25.35,25.35,0,0,1,2.2-2.76,9.51,9.51,0,0,0,2.36-5.06,29.24,29.24,0,0,0-5.16,7.74l-1.1-.23a1.78,1.78,0,0,1,.06-.56,7.69,7.69,0,0,0,.25-4.55,26.71,26.71,0,0,0-2.95-8.37c-1.05-1.83-2-3.74-3.07-5.55s-2.29-3.56-3.48-5.4c0,.28.05.52.11.76A35.4,35.4,0,0,0,23,30.76q2.13,4.18,4.11,8.45a18,18,0,0,1,2,8.1,4.47,4.47,0,0,0,.14.78l-.6.08c-.27-.3-.53-.61-.81-.9-1.06-1.07-2.19-2.08-3.19-3.21a18.37,18.37,0,0,1-3.43-5.32,12.84,12.84,0,0,0-1.64-3c-.34-.46-.7-.91-1-1.39-2.16-3.45-5.77-5-9.27-7.08a7.71,7.71,0,0,0,.44.72c1.53,2,3,3.94,4.61,5.86a49.56,49.56,0,0,0,4.14,4.66,109.9,109.9,0,0,1,8.77,9,2.71,2.71,0,0,1-2.13-.16,22.7,22.7,0,0,1-10.46-7,24.22,24.22,0,0,1-4.47-7.09c-.19-.49-.41-1-.61-1.43a13.54,13.54,0,0,0,.13,2.3,5.57,5.57,0,0,0,1,2.95c.75,1,1.49,2,2.29,2.86,1.67,1.89,3.65,3.49,5,5.67a.9.9,0,0,0,.16.18,9.19,9.19,0,0,0,4.14,2.28,15.3,15.3,0,0,0,6.32,0c.06.78-.81.55-1.12,1a4.58,4.58,0,0,0,1.81,2.08,3.12,3.12,0,0,1,.78.76c1.22,1.42,2.41,2.86,3.67,4.26a30.24,30.24,0,0,0,5.38,4.59A87.54,87.54,0,0,0,55.24,69.4c.37.16.73.35,1.09.53ZM25.1,50.6a1.09,1.09,0,0,0-1-.91,27.73,27.73,0,0,0-6-.78,5.93,5.93,0,0,0-.82.15c.62.32,1,.72,1.42.69a24.77,24.77,0,0,1,4.21.46c.72.06,1.43.26,2.15.39l-3.78-.12A9.09,9.09,0,0,0,24,51,3.2,3.2,0,0,0,25.1,50.6ZM3.81,13.87,1.33,13.1a1,1,0,0,0,.29.91,11.06,11.06,0,0,0,1.4.76l2.24,1.12a6.23,6.23,0,0,1-2-.59c-.59-.26-1.18-.56-1.82-.87a1.08,1.08,0,0,0,.82,1.11c1.16.53,2.32,1.05,3.49,1.54.58.25,1.18.45,1.77.67L7.48,18a17.38,17.38,0,0,1-2.64-.69c-.85-.3-1.7-.64-2.55-1a2.83,2.83,0,0,0,.82,1.27,13.33,13.33,0,0,0,6.22,3.05,24.11,24.11,0,0,0,8.68.25c.35-.06.68-.18,1.32-.35l-5-2.81c2.62.38,4.73,1.82,7.1,3.23-.67-1.29-.65-1.33-1.57-1.81-1.49-.77-3-1.47-4.52-2.21l-.81-.4.11-.24a35,35,0,0,1,5.11,2,1.54,1.54,0,0,0-1-1.23c-1.57-.8-3.15-1.57-4.72-2.36-.27-.14-.52-.3-.78-.45l.11-.21L18.14,16a11.23,11.23,0,0,0-2.74-2.33,12.12,12.12,0,0,0-6.61-2.41C6.39,11,4,10.88,1.5,10.72l-.21,1.75,2.54,1.32Zm-.2,11.91c.81,3.34,2.67,5.74,4.81,8.31a5.27,5.27,0,0,0-.21-2.17C7.83,30.3,7.42,28.69,7,27.06a6.9,6.9,0,0,1-.22-1.56c0-.73.49-1,1.17-.7a3.79,3.79,0,0,1,1,.7,14.3,14.3,0,0,0,3.19,2.26c1.28.71,2.53,1.5,3.77,2.28a4.7,4.7,0,0,0,2.31.67c-1.37-1-2.93-1.63-4.06-2.9l4.94,2.59c.08-.71,0-1.12-.59-1.35A17,17,0,0,1,17,28.3c-.47-.26-1-.4-1.31-1l3.25,1.35-.23-1.28c-.59-.25-1.16-.48-1.7-.75a3.66,3.66,0,0,1-1.64-1l3.25,1.06-.16-2.27-2.28-1.19.1-.2,2.18.76L18.37,22C12.88,23.06,8.15,22.78,3,19.4A2.39,2.39,0,0,0,4.5,22.21c.56.24,1.08.59,1.62.88l1.2.62c-1.5-.09-2.65-1-4.05-1.59,0,1.49,1.62,1.35,2.13,2.38l-1.94-.89A2.09,2.09,0,0,0,4.6,25.93c.07,0,.08.16.16.36ZM5.28,8.1l.13-.24L9.59,9.5l.07-.16L8,8.26l.09-.17,3.34,1.57.13-.2L8.32,7.25l.08-.12,1.53.67C8.86,6,7.17,5.3,5.82,4.25s-2.94-2-4.58-3L1.06,2.87,2.59,4l-.11.16L1,3.54C1.16,5,2.75,4.72,3.21,5.77L1.05,4.86C1.6,6,2.71,6,3.23,6.76l-2-.83c.15,1.3.29,2.49.42,3.66a34.74,34.74,0,0,0,6.85,0ZM25.05,46.59l.1-.17a4,4,0,0,0-.26-.35c-1.23-1.3-2.45-2.62-3.7-3.89-1.46-1.48-3.08-2.83-4.41-4.41C14.39,35,12.12,32,9.87,29.07a28.17,28.17,0,0,1-1.74-2.9,2.14,2.14,0,0,0,.23,1.16c.72,1.58,1.47,3.16,2.2,4.75a36.6,36.6,0,0,0,1.71,3.64,25.45,25.45,0,0,0,11,10.11C23.86,46.11,24.46,46.34,25.05,46.59Zm3.22-.44c-.12-.55-.21-1.1-.36-1.64a34.91,34.91,0,0,0-3-7,62.26,62.26,0,0,1-4.68-11.11,6.39,6.39,0,0,0-.31-.65,5.17,5.17,0,0,0,.06,1.85c.46,2.27,1.1,4.52,1.4,6.8a15.62,15.62,0,0,0,2.71,7.1A21.49,21.49,0,0,0,28.27,46.15ZM22.1,24.56c.23.38.42.79.68,1.14a60.77,60.77,0,0,1,5.32,9.17,26,26,0,0,1,1.49,3.72,20.57,20.57,0,0,1,1.2,6.28,1.36,1.36,0,0,0,.37-.58,7.55,7.55,0,0,0-.46-5.47A20.81,20.81,0,0,1,29,33.63a14.32,14.32,0,0,0-.73-2.44C27.06,28.29,24.7,26.34,22.1,24.56Zm.82-1.11.22-.26a14.66,14.66,0,0,0-2.73-1.87l-.16.22Z"/><path class="cls-1" d="M3.83,13.79l1,.28-.09.23-.9-.43Z"/><path class="cls-1" d="M15.28,33.37l1.28,1.57-.16.12-1.31-1.61Z"/><path class="cls-1" d="M16.61,34l-1-1.16.16-.13,1,1.2Z"/><path class="cls-1" d="M17.35,40.74a17.24,17.24,0,0,1-4-4.41Z"/><path class="cls-1" d="M16.77,39.14,14.1,36.25l.2-.18a29.61,29.61,0,0,1,2.62,2.87Z"/></g></g></svg>