<svg xmlns="http://www.w3.org/2000/svg" viewBox="0 0 177.82 130.45"><defs><style>.cls-1{fill:#dbdbdb;}</style></defs><g id="Layer_2" data-name="Layer 2"><g id="OBJECTS"><path class="cls-1" d="M45,27.72a4.91,4.91,0,0,1,1.9-3.64,4.62,4.62,0,0,0,1.47-2.15c.27-.78.5-1.58.8-2.36,1.88-4.81,5.54-7.22,10.61-7.77,2.31-.25,4.64-.46,6.93-.83a12.24,12.24,0,0,0,3.4-1.07,6.8,6.8,0,0,0,2.14-1.7C74.14,6,76.74,5.45,79.47,5.13,82,4.84,84.08,6,86.22,7c.17.08.32.19.48.27a1.27,1.27,0,0,0,.24,0,3.7,3.7,0,0,1,.2-2.81,2,2,0,0,1,2.59-1.24,2.08,2.08,0,0,1,.91,2.62c-.08.26-.21.5-.34.82l.69.84c1.51-1.13.18-2.61.64-3.88-.4-.21-.78-.38-1.12-.6a1.1,1.1,0,0,1-.42-1.66,2.87,2.87,0,0,1,4-.75,1.43,1.43,0,0,1,.43,2,2.2,2.2,0,0,0-.25,1.84c.11.57.24,1.14.38,1.8a5.12,5.12,0,0,0,2.19-3.09,6.1,6.1,0,0,1-.79-.88A1.31,1.31,0,0,1,97,.2c1.56-.45,2.41-.17,3,1a1.46,1.46,0,0,1-.3,2c-1.5,1.29-1.78,3-1.82,5.13l1.18-1c-.09-.32-.17-.58-.25-.83a2,2,0,0,1,.91-2.27,1.71,1.71,0,0,1,2.07-.08,3.65,3.65,0,0,1,2,2.17c.45,1.28.05,2-1.28,2.37a1.54,1.54,0,0,0-.87.55c.62.12,1.25.21,1.87.36a8.6,8.6,0,0,1,4.74,3.24,3.44,3.44,0,0,1,.64,3.15,6.45,6.45,0,0,0,.83,5.39A31,31,0,0,1,111.6,26a1.11,1.11,0,0,0,.33-.18A16.35,16.35,0,0,1,127,21.6a25.54,25.54,0,0,1,4,1.26,58.22,58.22,0,0,0,8.63,2.25c3.19.68,6.3.07,9.43-.41a21,21,0,0,1,6.81-.17,6.11,6.11,0,0,1,4.61,3c.33.56.77,1.06,1,1.64a4.3,4.3,0,0,0,2.1,1.77,3.74,3.74,0,0,0,2.67.31c2.31-.44,4.31.44,6.25,1.47a25.81,25.81,0,0,1,2.67,1.78,2.17,2.17,0,0,1,1,2.74c-.37,1.56-.71,3.14-1.1,4.7a13.66,13.66,0,0,1-2.32,5,6.64,6.64,0,0,1-2.08,1.8c-1.56.81-3.21,1.45-4.83,2.14-.86.37-1.74.67-2.57,1.07a3,3,0,0,0-1.63,1.82c-.71,2.32-2.54,3.05-4.72,3.2a13.48,13.48,0,0,1-2.36-.18,8.7,8.7,0,0,0-5.68.94c-.81.5-.88.57-1.2,1.7.08,0,.17.11.24.1,2.8-.4,5.45.45,8.15.92a18.37,18.37,0,0,0,3.46.35,10.77,10.77,0,0,1,6.21,1.77c1.55,1,3,2.18,4.5,3.28a2.54,2.54,0,0,1,.51.47c2.44,3.27,4.48,6.7,4.57,10.94a13.5,13.5,0,0,0,1.41,6.29,10.19,10.19,0,0,1,.92,6.2,50.68,50.68,0,0,1-1.23,7.93,15.06,15.06,0,0,1-1.51,3.56,11.5,11.5,0,0,0-1.08,2.67c-.43,1.56-.73,3.15-1.1,4.72a12.52,12.52,0,0,1-2.09,4.5,11.39,11.39,0,0,1-1.63,1.7c-1.46,1.29-3,2.51-4.42,3.82a12,12,0,0,1-7.42,2.81c-1.11.09-2.25,0-3.16.83a3,3,0,0,0-.34.25c-2.18,2.45-5.24,3.43-8.1,4.74a6.38,6.38,0,0,1-4.51.23c-1.29-.37-2.56-.84-3.82-1.33-1.77-.7-3.52-1.46-5.27-2.2a7.61,7.61,0,0,0-6.23-.25,3.15,3.15,0,0,1-1.62.09,7.24,7.24,0,0,1-3.27-1.47,19.1,19.1,0,0,1-4.81-5,6.64,6.64,0,0,0-2.8-2.41,11.05,11.05,0,0,1-2.19-1.69c-.71-.59-1.39-1.22-2-1.87s-1.47-1.52-2.23-2.3c-.24.66-.44,1.35-.73,2-.9,2-2.77,2.91-4.64,3.77a7.61,7.61,0,0,1-1,.35,28.63,28.63,0,0,0-10.67,6.13,54.67,54.67,0,0,1-8.3,6.54,19.46,19.46,0,0,1-6.23,2.38,12,12,0,0,1-8.29-1.74,15.13,15.13,0,0,1-1.5-1,13.7,13.7,0,0,0-7.66-2.67,61.63,61.63,0,0,0-10.61,0,24,24,0,0,1-9.42-.76,16.6,16.6,0,0,1-7.23-4,21.41,21.41,0,0,1-4.59-6.21A16.08,16.08,0,0,0,22.53,109c-1.69-1.64-2.16-3.83-2.41-6.07a27.19,27.19,0,0,1,.93-9.32c.3-1.25.62-2.49,1-3.86a12.93,12.93,0,0,0-1.62-.55,15.18,15.18,0,0,1-8.11-4.59c-1.16-1.2-2.34-2.38-3.57-3.5a9,9,0,0,1-2.58-3.89,48.38,48.38,0,0,0-3.36-7.45A28.35,28.35,0,0,1,0,60.63a5.82,5.82,0,0,1,.18-2.19C1.14,54.62,2.55,51,5.6,48.34a55.37,55.37,0,0,1,4.67-3.52c2.66-1.87,5.46-3.56,8-5.56A50.94,50.94,0,0,0,23.8,34a14.15,14.15,0,0,1,3.57-2.83c2.09-1.13,4.13-2.41,6.52-2.76,2.06-.31,4.16-.37,6.25-.49C41.72,27.8,43.29,27.78,45,27.72ZM93,17.07l.69.3c-.14-1-.26-1.91-.41-3,1,1.12.1,2.67,1.4,3.59a15.25,15.25,0,0,1,.41-2.6,5.09,5.09,0,0,0-.46-4.21L94.59,11c-.34-.83-.34-.83-1.51-.57L94,12.28a3.83,3.83,0,0,1,.83,2.22,9.85,9.85,0,0,1-1.21-1.31c-.44-.75-.77-1.56-1.16-2.34a4.67,4.67,0,0,0-.66-1.18c-.72-.75-1.51-1.44-2.38-2.25l-.73.35c.06.14.07.19.09.23,1,1.72,2.48,3.24,2.9,5.3,0,.09,0,.24.09.25,1.09.18.71,1.16.94,1.77A8.51,8.51,0,0,1,93,17.08l-1-2.5V17ZM97.8,36.58c-.86.33-.78,1-.7,1.74a83.12,83.12,0,0,1,.21,11.49c-.16,5.77-.3,11.54-.48,17.3a2.55,2.55,0,0,0,1,2.28c.42-4,.88-7.94,2.42-11.64A99.19,99.19,0,0,0,99,71.41a16,16,0,0,0,2-2.2,2.94,2.94,0,0,0,.49-1.26c.25-1.64.43-3.29.66-4.94.05-.35.17-.68.25-1l.19,0-.3,5.11a4.15,4.15,0,0,0,1.35-2.81c0-1,.5-2-.42-3l.65-.22c.74-2.89,1.46-5.75,2.22-8.6.7-2.59,1.42-5.17,2.18-7.73a44.45,44.45,0,0,0,1.06-7c.33-2.55,1-5.09.4-7.69a3.19,3.19,0,0,1,0-1.11,11,11,0,0,0-1.47-6.94,7.29,7.29,0,0,1-.92-6.32,2.19,2.19,0,0,0-.25-2,7.49,7.49,0,0,0-5.39-3.34,1.84,1.84,0,0,0-1.4.39,10.8,10.8,0,0,0-2.48,3.82l1.38,2.68a3.21,3.21,0,0,1,2.4,2.43c.24,1.54-.85,2.3-2.11,3.07,1,.28,1.17.93,1.22,1.72.15,2.35.31,4.7.59,7a3,3,0,0,1-.52,2,1.61,1.61,0,0,1-1.94,1,1.64,1.64,0,0,1-1.17-1.7A17.81,17.81,0,0,1,98,30.55h1.86l-.31-.79a6.05,6.05,0,0,1-.76.55,5,5,0,0,1-.78.24l-1.43-.71.34,3.91c1.27.53,1.41,1.6.9,2.88Zm-41.57-8.4a3.64,3.64,0,0,0,.68.45c2.14.77,4.28,1.51,6.43,2.28a13.49,13.49,0,0,1,5.15,3.24,59.37,59.37,0,0,1,6.94,7.74,50.75,50.75,0,0,1,7,14.53c1.29,4.29,2.67,8.55,3.54,13,.65,3.26,1.35,6.51,2,9.76a11.58,11.58,0,0,0,.36,1.14l.26-.07c-.42-3.32-.85-6.65-1.28-10l.09-.06,2.75,6.18a12.39,12.39,0,0,0,1-5.2l-.09-2.07c0-.66-.55-1.39.25-1.94-.08-.69-.17-1.37-.23-2.06S91,63.6,91,62.87c0-.33,0-.65,0-1q.17-7.41.34-14.81c0-1,0-1.94,0-2.91,0-1.73,0-3.47-.06-5.41-1,.61-1.79.95-2.6.22a3,3,0,0,1-.58-2.72c.57-1,1.66-.53,2.57-.71l-.19-1.74a10.71,10.71,0,0,0-1,.63,2.21,2.21,0,0,1-3.58-1.34,9.59,9.59,0,0,1-.17-1.23,2.56,2.56,0,0,0-.41-.09,1.68,1.68,0,0,1-1.64-2.29,2.7,2.7,0,0,1,1.9-2.27c-.2-1.32-.07-2.54,1.12-3.13,1-.47,1.75.26,2.39,1l1.23-.62a2.22,2.22,0,0,1-2.11-2c-.1-.54-.26-1.11.27-1.53a1.73,1.73,0,0,1,1.85-.24,9.75,9.75,0,0,1,1.22.7c-.11-.74-.2-1.27-.28-1.81a5,5,0,0,1-.1-.94c0-1,.2-2.1.19-3.16A4.16,4.16,0,0,0,90.12,12a4.6,4.6,0,0,1-.78-1.14c-.41-.67-.81-1.35-1.21-2-.24-.4-.54-.45-.93-.15.18,1.07.83,2.09.47,3.52L86.34,8.25l-.21.07,1,4.94-.27.09a9.29,9.29,0,0,1-.52-1.17,14.79,14.79,0,0,1-.61-2.42,2.57,2.57,0,0,0-2.29-2.63c-.4-.07-.78-.3-1.18-.4a8.27,8.27,0,0,0-4.3.12A28.61,28.61,0,0,1,80,14.09c-.87-2.37-1.75-4.73-2.61-7.08-2.27.17-3.58,1.5-4.83,3a43.18,43.18,0,0,1,5.45,13.74c-2.14-4.33-3.78-8.89-6.26-13.1l-2.39,1.4a94.9,94.9,0,0,1,7.85,17.59,17.68,17.68,0,0,1-1.56-2.56c-2.31-4.58-4.6-9.17-6.91-13.75a11.26,11.26,0,0,0-.6-1l-6.35.88c3.62,4.09,6,8.68,8.27,13.38a5.86,5.86,0,0,1-1-1.25c-1.66-2.62-3.29-5.25-5-7.84-.79-1.19-1.74-2.28-2.62-3.41a1.81,1.81,0,0,0-1.81-.75,11.89,11.89,0,0,0-4.4,1.23c-3.25,1.71-4.85,4.53-5.52,8,1.76.74,3.56,1.19,4.9,2.5l-5.19-2.05-.33,1c.47.16.88.27,1.26.42a17.42,17.42,0,0,1,5.86,3.65c-.85-.46-1.71-.89-2.54-1.38a18.67,18.67,0,0,0-5.08-2.24,4.91,4.91,0,0,0-2.2,2.89,23.9,23.9,0,0,1,2.69,0c2,.21,3.95.53,5.92.77A5.87,5.87,0,0,0,56.23,28.18Zm80.29-1.92,0,0-6.1-1.91-5.05,7a48.35,48.35,0,0,1,4.51-7.25,7.08,7.08,0,0,0-3.24-.95l0,0-1.42-.38c-1.89,3.91-3.7,7.68-5.51,11.44a4,4,0,0,1,.34-1.72c1.33-2.95,2.69-5.88,4-8.82.15-.32.27-.64.46-1.09a17.84,17.84,0,0,0-11,3.34,4.71,4.71,0,0,0-2.08,5.26,8.17,8.17,0,0,1,.07,2.61c-.38,2.69-.72,5.41-1.35,8-1,4.3-2.31,8.55-3.45,12.83a46.23,46.23,0,0,0-2,10.44,23.65,23.65,0,0,1-.78,3.92c-.08.33-.17.65-.26,1A29.4,29.4,0,0,0,106,66.89a12.79,12.79,0,0,1,2.55-3.19,94.55,94.55,0,0,0-5.27,14.62c.38-.5.65-1.07,1-1.58a7,7,0,0,1,.94-.94l.29-.23c.33-.45.68-.88,1-1.35a126.74,126.74,0,0,1,8.32-11.63,42.58,42.58,0,0,1,6.84-6.91,4,4,0,0,1,.68-.32c-1.72,2-3.41,4-5,6s-3,4.15-4.5,6.18a20.1,20.1,0,0,0-3.7,8.57,10.52,10.52,0,0,0-.07,1.09c3.17-3.32,6.18-6.41,9.91-8.74a13,13,0,0,0-4.34,7.81c.81-.79,1.47-1.44,2.14-2.07a21.41,21.41,0,0,1,3.94-3.48,2.59,2.59,0,0,0,.67-.69,6.49,6.49,0,0,1,3.37-2.35c1-.32,2-.63,3.06-1a4.16,4.16,0,0,0,2.54-1.59,4.18,4.18,0,0,1,2.12-1.73c2.5-1,5-2,7.51-3a19.81,19.81,0,0,1,2.3-.57c1.17-.31,2.34-.61,3.49-1a1.35,1.35,0,0,0,.71-.6,5.87,5.87,0,0,1,5-2.9,25.77,25.77,0,0,1,4.72.17c2.07.18,3.45-.53,4.21-2.39a4.71,4.71,0,0,1,2.19-2.42c.86-.45,1.79-.76,2.68-1.16,1.49-.66,3-1.27,4.43-2A4.44,4.44,0,0,0,171.45,46a27.79,27.79,0,0,0,2.06-4.51c.5-1.42.7-3,1.11-4.41a1.16,1.16,0,0,0-.52-1.42c-.84-.58-1.61-1.27-2.5-1.77-1.67-1-3.43-1.71-5.43-1.19a6.46,6.46,0,0,1-3.18-.2,2,2,0,0,0-1.45.19c-6.91,3.53-13.48,7.52-19,13a4.76,4.76,0,0,1-.68.5,35,35,0,0,1,8.61-8.6,81.07,81.07,0,0,1,10.64-6.36c-.7-1-1.36-1.94-1.91-2.9A4.4,4.4,0,0,0,155.46,26a36.45,36.45,0,0,0-5,.11c-1.58.12-3.13.49-4.7.66a3.91,3.91,0,0,0-2.25,1,143.08,143.08,0,0,0-12.37,11.62c-.3.31-.63.6-.94.9a72,72,0,0,1,12.4-13.13l-3.54-.46-7.18,8.63c1.65-3.2,4.11-5.82,6.55-8.77ZM12.78,82.14l.11.11c0,.85.79,1.19,1.24,1.75a2.78,2.78,0,0,0,3.13.89,24.27,24.27,0,0,0,10.21-5.2,57.85,57.85,0,0,1,9.81-7.3,12.5,12.5,0,0,0,2.67-2A12.16,12.16,0,0,1,45,67.6a5.1,5.1,0,0,1,2.2-.19c3.51.42,7,.79,10.51,1.41a37,37,0,0,1,13.38,5.33,13.13,13.13,0,0,1,5.41,6,8.5,8.5,0,0,0,2.85,3.5,5.5,5.5,0,0,0,3,1.19.61.61,0,0,0,0-.13l-6.12-9.6c-.1-.15-.19-.31-.28-.47a.23.23,0,0,1,0-.14.21.21,0,0,1,0-.11s.06,0,.18-.08c3.29,4,6.24,8.33,9.26,12.6a122.21,122.21,0,0,0-7.67-16.34,40.55,40.55,0,0,1,4.38,6.38c1.25,2.27,2.4,4.59,3.59,6.89l.22-.07c-1-3.8-2-7.6-3-11.61,1.38,2,1.54,4.36,3.18,6.17a3.82,3.82,0,0,0,0-.69c-.78-3.56-1.47-7.14-2.37-10.67s-2.09-7.28-3.16-10.91A46,46,0,0,0,74.35,43.4a48.35,48.35,0,0,0-6.82-7.67,15.28,15.28,0,0,0-3.6-2.58,39.08,39.08,0,0,0-15.31-3.9,5.49,5.49,0,0,0-.94.13l1.21,1.11c-.75-.25-1.35-.78-2-1a4.1,4.1,0,0,0-2.43.2,5.88,5.88,0,0,0,2.19,3.2A22.44,22.44,0,0,1,53,39.76a7.72,7.72,0,0,1,.41.93,1.27,1.27,0,0,1-.58-.47,31.94,31.94,0,0,0-10.63-9c-.61-.32-1.17-.75-1.79-1.07a3,3,0,0,0-1.28-.39c-1.26,0-2.52,0-3.77.11a6.89,6.89,0,0,0-1.17.31l5.48,3.31-.14.24c-.22-.11-.45-.21-.67-.34-1.57-.91-3.13-1.83-4.7-2.73a2.47,2.47,0,0,0-2.95.09,60.33,60.33,0,0,1,10.4,7.59c-3.61-2.38-7-5.12-10.81-7.1-1.7,1.2-3.8,1.65-5.13,3.4a20.51,20.51,0,0,1,9,3.83A79,79,0,0,1,46.52,48.92s0,.13-.09.33l-1.89-1.44c-3.34-2.58-6.65-5.21-10-7.74a23.26,23.26,0,0,0-9.67-4.42l-6.78,6.11c2.73.71,5.5,1.16,7.93,2.61a.65.65,0,0,1-.41,0c-2.64-.74-5.28-1.5-7.92-2.22a2.26,2.26,0,0,0-.82.13,43.56,43.56,0,0,1,10.29,4.61,5.72,5.72,0,0,1-1.31-.33l-9.17-3.34a1.24,1.24,0,0,0-1.3,0c-1.75,1.23-3.52,2.42-5.28,3.63-.06,0-.06.16-.1.29,8,1.29,15.83,2.91,23.1,6.56a.49.49,0,0,1-.42.08,82.17,82.17,0,0,0-12.3-3.61c-3.69-.76-7.42-1.3-11.14-1.95a1.68,1.68,0,0,0-1.45.28A14.87,14.87,0,0,0,4.4,52.19c3.34.92,6.65,1.62,9.86,2.62l-.08.32L3.86,53.08a21.72,21.72,0,0,0-2,5.28,6.32,6.32,0,0,0-.11,2.73c.62,2.46,1.44,4.86,2.19,7.29a1.1,1.1,0,0,0,.2.31c4.26-2.32,21.22-5.36,27.14-3.76A100.51,100.51,0,0,0,4.68,69.59L7.27,74.9a59.07,59.07,0,0,1,14.18-2.31c-4.64,1.07-9.34,1.86-13.88,3.33a6.06,6.06,0,0,0,2.16,3.66,36.88,36.88,0,0,1,8.17-3.26c-2.48,1.29-5.06,2.39-7.67,3.89Zm54.05,44.13,0,0c1.51,1.64,3.54,2,5.64,2.44,2.27-4.64,3.92-9.4,6.24-13.85a92.83,92.83,0,0,1-4.85,13.84,3.76,3.76,0,0,0,.68,0,21.65,21.65,0,0,0,5.49-2,45.31,45.31,0,0,0,7.89-6.15,32.62,32.62,0,0,1,9.66-6.24,3.61,3.61,0,0,0,.5-.31l.72-4.21c.82,1.22.37,2.53.69,3.72a7.08,7.08,0,0,0,3.46-1.49,3.66,3.66,0,0,0,1.83-3.75,3.64,3.64,0,0,1,.13-1.89c.63-1.39,0-2.39-.82-3.37a5,5,0,0,0-.42-.37,6.54,6.54,0,0,1-2.25-3.88c-.12-.72,0-1.6-1-2.09l.24,2.16h-.12l-2-4.42-2.26.16a11.08,11.08,0,0,1,.33,7.45c-.65-2.29-.25-4.78-1.35-7l-3.73.59a.74.74,0,0,0-.35.22,4.3,4.3,0,0,0-1.65,3.49,20.89,20.89,0,0,1-1,7.92,45.91,45.91,0,0,1-7.21,13.68s-.15,0-.38,0c.32-.71.62-1.36.9-2,1.5-3.48,3.08-6.93,4.45-10.46a21.35,21.35,0,0,0,1.54-9.91A8.44,8.44,0,0,0,87,95.1c-.57.15-1.1.32-1.64.43a1.44,1.44,0,0,0-1.08,1,60.18,60.18,0,0,1-7.92,12.84,4.09,4.09,0,0,1-.47.46,17.3,17.3,0,0,1,1.39-3.05q2.91-5.44,5.79-10.9a2.65,2.65,0,0,0,.46-1.15,4.14,4.14,0,0,0-.5-1.79c-.23-.39-1.19-.21-1.75.28A64.33,64.33,0,0,0,71.84,103L71,104.09l-.25-.2A37.18,37.18,0,0,1,81.75,91c-.28-.53-.51-.94-.71-1.34a1.24,1.24,0,0,0-1.7-.75h0c-1,.32-2,.59-2.92.95a55.76,55.76,0,0,0-15.93,9.31A2.73,2.73,0,0,1,59,100c5.31-6.59,12.1-10.43,19.79-12.83A3.59,3.59,0,0,0,76,84.73a31.19,31.19,0,0,0-5.46-1.07c-7.31-.4-14.52.16-21.41,2.91a7.62,7.62,0,0,1-.94.24c8.72-5.13,18.12-5.74,28-4.17-.41-.66-.73-1.21-1.07-1.75-.15-.23-.46-.43-.48-.66-.14-1.69-1.33-2.7-2.5-3.62a34.43,34.43,0,0,0-11.8-5.81,37.52,37.52,0,0,0-5.76-1c-2.26-.29-4.51-.62-6.76-1a8,8,0,0,0-6.43,2.08,35.74,35.74,0,0,1-4.52,3.23,28.17,28.17,0,0,0-6.24,4.65,46.33,46.33,0,0,0-5.8,7.44c-.47.77-.83,1.61-1.24,2.42,1,.41,1,.42,1.54.17.77-.34,1.52-.71,2.29-1a29.43,29.43,0,0,1,8.44-2.34,5.93,5.93,0,0,1,.84.06v.21l-1,.34a94.1,94.1,0,0,0-11.89,4.8,1.85,1.85,0,0,0-1.18,1.4c-.21,1.08-.55,2.14-.76,3.23a6.11,6.11,0,0,0-.23,2.33c1.8-.7,3.27-1.86,5.16-2a35.6,35.6,0,0,1-4.47,2.76,1.7,1.7,0,0,0-1.09,1.84c.08.92.14,1.84.23,2.76a8.53,8.53,0,0,0,3.61,6.36c1.68-1.29,3.28-2.64,5-3.81s3.61-2.28,5.48-3.31a19.07,19.07,0,0,1,5.67-2.19,78,78,0,0,0-15.53,10.37l2,3.21c1.92-2.2,7.85-6.27,10-6.76l-9.78,7.39c1.07,2.16,4.08,5.33,5.78,6.13A64.78,64.78,0,0,1,41.26,113a41.66,41.66,0,0,1,8.08-5.67c.43-.23.89-.4,1.33-.6a118.18,118.18,0,0,0-16,14.51l2.85,1.14A55.91,55.91,0,0,1,48,113.72a40.51,40.51,0,0,1-2.93,3.07c-1,1-2,1.95-3,2.94s-2.09,1.91-3.15,3.11a28.92,28.92,0,0,0,6.77.51c2-.15,4-.31,6-.38a1.57,1.57,0,0,0,1.37-.75c1.21-1.7,2.42-3.4,3.67-5.07q3-4,6.05-8a5.05,5.05,0,0,1,.63-.59,26.9,26.9,0,0,1-2.13,3.71c-.75,1.17-1.47,2.36-2.22,3.53s-1.56,2.41-2.37,3.59-1.63,2.27-2.57,3.58c1,.06,1.75,0,2.48.15a1.74,1.74,0,0,0,1.91-1c2.07-3.12,4.25-6.17,6.4-9.24a4.85,4.85,0,0,1,.59-.61,21.1,21.1,0,0,1-1.81,3.73c-.71,1.25-1.44,2.48-2.17,3.71l-2.12,3.53,3.85.93c.35-.69.67-1.35,1-2s.77-1.37,1.18-2,.78-1.26,1.2-1.87a5.55,5.55,0,0,1,1.38-1.63c-1.44,2.58-3,5.06-4.26,7.84l1,.53a75,75,0,0,1,3.93-6.49l.25.15-3.72,6.72ZM173.88,78.8l-8.2-3c2.79.15,5.32,1.21,8,1.9a4.07,4.07,0,0,0,.07-.61c-.18-3.77-2-6.86-4.17-9.79a1.86,1.86,0,0,0-.42-.37c-1.31-1-2.6-2-3.94-2.87a9.25,9.25,0,0,0-5.91-1.71,12.41,12.41,0,0,1-2.51-.16c-1.46-.25-2.92-.56-4.38-.88a11.59,11.59,0,0,0-4.15-.26,8.73,8.73,0,0,1-2.65.06,10.14,10.14,0,0,0-5,.7c-2.59.89-5.12,2-7.66,3a3,3,0,0,0-1.31,1,5.38,5.38,0,0,1-2.64,2c-.74.28-1.52.43-2.28.66l-2.54.8c1.08.11,2.1,0,3.11,0,4.1.08,8.21.11,12.3.35a25.85,25.85,0,0,1,5.17,1.08,8.24,8.24,0,0,1,3.66,2.24,5.86,5.86,0,0,1-.9-.28,12.44,12.44,0,0,0-5.34-1.49q-8-.27-16.06-.41a18,18,0,0,0-3.31.48,2.17,2.17,0,0,0-1.75,1.58,14.2,14.2,0,0,1-2.73,4.63c-.6.7-1.12,1.47-1.68,2.21.11.06.15.1.18.1a4.68,4.68,0,0,0,.54-.07,38.26,38.26,0,0,1,13.73-1,17.07,17.07,0,0,1,10.56,4.84c.17.18.32.38.49.59-.12.07-.18.12-.2.1-.4-.22-.81-.43-1.19-.68a19.29,19.29,0,0,0-7.46-3,40.25,40.25,0,0,0-13.63.21,18,18,0,0,0-6.78,2.44,4,4,0,0,0-1.54,1.41c1.23,0,2.26-.06,3.27,0a22.51,22.51,0,0,1,9.25,3.3,54.4,54.4,0,0,1,12.52,10.34c.06.07.05.21.13.58-1.33-1-2.47-1.9-3.59-2.79a76,76,0,0,0-9.95-6.9,21.79,21.79,0,0,0-11.42-3.18,4.25,4.25,0,0,0-3.65,2.57,26.33,26.33,0,0,1,5.9,4.82c2.4,2.63,4.75,5.32,7,8.07,2.75,3.32,5.38,6.73,8.06,10.1.05.07,0,.21,0,.43a23.45,23.45,0,0,1-4.39-4c-2.36-2.68-4.66-5.4-7-8.12a72.14,72.14,0,0,0-7.69-8c-.94-.81-2-1.53-3-2.29l-3,1.92,2.69,4.72-.27.16-3-4.62c-.77.19-.55.63-.37,1,.88,1.78,1.78,3.56,2.66,5.33.13.26.23.54.35.81a22.43,22.43,0,0,1-4.09-6.49l-1.11.21a1.8,1.8,0,0,0,.37,1.79,12.36,12.36,0,0,1,1.72,4.36,3.82,3.82,0,0,0,1.43,2.47,7.21,7.21,0,0,1,2.61,4,11.12,11.12,0,0,0,.47,1.15,9.91,9.91,0,0,0,3.3,4.38c.59.43,1,1,1.6,1.54a8.46,8.46,0,0,0,1.84,1.45,7.62,7.62,0,0,1,3.22,2.77,17.2,17.2,0,0,0,4.64,4.75,10.24,10.24,0,0,0,2.22,1.11,2,2,0,0,0,1.34,0,9.12,9.12,0,0,1,6.81.22c1.22.45,2.42,1,3.63,1.43a8.09,8.09,0,0,0,1,.22l-4.07-6.82a2.78,2.78,0,0,1,1.72,1.3c1.18,1.77,2.35,3.55,3.43,5.38a3.83,3.83,0,0,0,3.82,1.9,54.45,54.45,0,0,0-4.71-8.86,29.49,29.49,0,0,1,5.92,9.35c2.5-.39,4.54-1.62,6.68-2.79-.7-1-1.32-1.79-1.88-2.63a6.87,6.87,0,0,1-1.43-2.64l3.76,5,1.27-.81-5.6-6.36a33.72,33.72,0,0,1,6,6l1-1.26c-5-5.81-11-10.42-16.52-15.56,3.41,1.17,12.71,9,17.74,14.81l3.75-.56a36,36,0,0,0-3.57-5c-1.24-1.52-2.52-3-3.78-4.5l.21-.17c3.23,2.73,6.48,5.46,8.24,9.55l1.67-.54c-.81-1.11-1.51-2.13-2.28-3.1s-1.58-1.82-2.38-2.73a19.36,19.36,0,0,1,5.23,5.73l.93-.53-2.76-3.28.24-.21,3,3.22c.28-.19.53-.33.74-.5,1.65-1.42,3.32-2.83,5-4.26a9.94,9.94,0,0,0,2.85-4.84,1,1,0,0,0-.42-1.19c-1-.72-1.91-1.48-2.83-2.26a99.68,99.68,0,0,0-17.29-12.16,2.6,2.6,0,0,1-.36-.21,1.63,1.63,0,0,1-.27-.31,49.58,49.58,0,0,1,11.41,5.85c3.48,2.49,6.86,5.13,10.32,7.75.38-1.49.75-3,1.13-4.46-3.61-2.56-7.56-4.56-11.33-6.86,4.17,1.53,8.37,3,12,5.79A5.27,5.27,0,0,0,174.75,98a38.52,38.52,0,0,0,1.45-10.94A2,2,0,0,0,174.79,85c-.7-.24-1.37-.59-2.07-.84-2.32-.83-4.64-1.64-7-2.46-.35-.12-.7-.27-1-.41a68.43,68.43,0,0,1,10.64,3.25,3.16,3.16,0,0,0-2.59-2.88c-5-1.25-10.08-2.62-15.11-4a4.82,4.82,0,0,1-.78-.45c6,.22,11.51,1.71,17.09,3.32Zm-76.5,9.68c1.43-.89,1.39-.88,1.07-2.25-.69-3-1.4-6-2-9a59.34,59.34,0,0,1-.59-12.42c.1-5.35.33-10.7.48-16.05a97.12,97.12,0,0,0-.25-10.79,3.17,3.17,0,0,0-.23-.75,6.37,6.37,0,0,1-.56,2.1,3.12,3.12,0,0,0-.54,2.19c0,.87,0,1.75,0,2.63a6.81,6.81,0,0,1-.29,1.14l-.21,0V40.55H94l-.38,6.25h-.27V45.27c0-1.39,0-2.77,0-4.15A1,1,0,0,0,92.42,40a1.36,1.36,0,0,0-.08.28c0,3.83.08,7.66.06,11.49,0,2.91,0,5.82-.23,8.72a37.42,37.42,0,0,0,.19,6.35c.2,2.06.43,4.13.49,6.19.1,3.46.1,6.92.07,10.38,0,1.52-.13,3-.26,4.55-.16,1.92-.38,3.83-.59,5.9l1.48-.1L93,85.91l.32,0c.14,1.26.18,2.54.43,3.78s0,2.49.69,3.62c-.16-1.61-.32-3.22-.49-4.83l.26,0,.89,5,2.75-.26c-.48-.75-.93-1.43-1.34-2.13-.3-.5-.47-1.08,0-1.54s.47-1.1.31-1.76-.25-1.6-.37-2.4l.21,0ZM97.8,3.33,95.71,7c.77,1.54.73,1.82-.57,3.2l.64,1.64c.51-1,.93-1.74,1.32-2.54a1.6,1.6,0,0,0,.14-.78,7.26,7.26,0,0,1,.62-3.34A4.92,4.92,0,0,0,98.18,4C98.21,3.87,98,3.68,97.8,3.33Zm1.85,4.4c-.85.89-1.62,1.68-2.37,2.5a1.73,1.73,0,0,0-.53.78c-.2,1.22-.31,2.45-.45,3.68.78-1,1.29-2.16,1.94-3.19s1.52-2.07,2.33-3.15ZM92.27,22.48c.89.46,1.69,1,1.83,2.07,0,.2.52.34,1,.6,0-1.74.08-3.23-.64-4.52l-2.14.48ZM102.55,7.12a3,3,0,0,0-1.65-2.2c-.4-.24-.85-.31-1.1.1a1.26,1.26,0,0,0,0,1C100.14,6.92,101.24,7.33,102.55,7.12ZM94.94,8.57c-.3-1.24-1.29-1.6-2.32-2a9.55,9.55,0,0,1-.25,1c-.32.79-.19,1.23.57,1.39A2.1,2.1,0,0,0,94.94,8.57Zm-5.87-5a2.2,2.2,0,0,0-1.13,3,1.6,1.6,0,0,0,1.63-1C90,4.88,89.56,4.28,89.07,3.59ZM96.42,24.1c.2,1.2.41,1.48,1.12,1.53s1-.11,1.28-1.2C97.74,23.63,97.59,23.61,96.42,24.1Zm-9.7,7.63a7.67,7.67,0,0,0,.49,1.4.81.81,0,0,0,1.28.3.94.94,0,0,0,.1-1.44A1.45,1.45,0,0,0,86.72,31.73ZM94,34.14c-.15.42-.25.74-.38,1s-.31.61-.47,1l2.19.55C95.05,35.7,95,34.8,94,34.14Zm-5-3.79.65-2.49c-.13,0-.42,0-.47.1-.37.73-.76,1.35-1.72,1.34-.14,0-.27.42-.43.69ZM96.54.92A1.83,1.83,0,0,0,98.2,2.5a.83.83,0,0,0,.7-.24.81.81,0,0,0-.12-.72C98.25.81,97.46.84,96.54.92ZM94.67,29a1.72,1.72,0,0,0,.56-1.83.77.77,0,0,0-1.13-.45C93.62,28.16,93.64,28.24,94.67,29ZM90.88,2c1.42.64,1.79.62,2.63-.12-.59-.77-.59-.71-1.54-.73A.92.92,0,0,0,90.88,2Zm9.42,23.9c-.24.32-.47.5-.46.65.08,1.23.18,2.46.34,3.68a5.46,5.46,0,0,0,.43,1.21l.3-.08C100.71,29.63,100.52,27.88,100.3,25.92Zm-6.25,5.29c-.26.55-.49,1.12.09,1.59a.91.91,0,0,0,.85.11,1.11,1.11,0,0,0,.46-.87C95.33,31.36,94.81,31.1,94.05,31.21ZM96,21.07c.83-.34,1.15-.79,1-1.44s-.48-.83-1.25-.62Zm2.89-2.15-.28.18a5.45,5.45,0,0,0,0,1.07,1.56,1.56,0,0,0,.44.75c.07.06.49-.08.57-.23s.3-.66.19-.86A4.73,4.73,0,0,0,98.84,18.92ZM84.73,30.52c.94-.24,1.07-.76,1-1.3a.72.72,0,0,0-.52-.48c-.16,0-.46.27-.5.46A6.86,6.86,0,0,0,84.73,30.52Zm5.73-1A1,1,0,0,0,90.94,31C91.74,30.05,91.66,29.79,90.46,29.56Zm-.66,8.56c.14-.27.46-.6.39-.82-.12-.41-.54-.54-1.06-.33A.94.94,0,0,0,89.8,38.12Zm9-6.29c-.09.54-.26,1.06.42,1.37C99.69,32.34,99.69,32.34,98.77,31.83Zm-5.46,5.8-.23.2.49,1.2.65-.92Zm.43-32.08L94,5.47l-.48-1.75-.3.09ZM92.46,28.38c.15-.49.5-.94.19-1.69A1.8,1.8,0,0,0,92.46,28.38Zm1.15-9.2c-.25-.22-.42-.47-.52-.45a.9.9,0,0,0-.53.4c0,.07.22.45.32.44S93.28,19.37,93.61,19.18ZM89.8,23c.11-.93.11-.93-.58-.93ZM92.71,4,92.39,4c.29.42-.08,1,.58,1.62Zm.07,27.53c1-1,1-1,.34-1.49ZM98,28.75c.38-.52.61-.84,0-1.31a2.87,2.87,0,0,0-.14.54A6,6,0,0,0,98,28.75Zm-1.2-12.5-.25.23c.18.14.37.29.56.42a.8.8,0,0,0,.15-.17C97.07,16.56,96.92,16.41,96.76,16.25Z"/><path class="cls-1" d="M105.25,75.8c-.37-.64.21-1,.54-1.35l-.25,1.12Z"/><path class="cls-1" d="M122.73,73.41a34.86,34.86,0,0,1,15.06.29c-2.76-.14-5.26-.36-7.75-.36s-4.87.23-7.31.36Z"/><path class="cls-1" d="M121.14,81.38c4.22,0,8.43,0,12.52,1.24l-12.55-.94Z"/><path class="cls-1" d="M119.05,77.79c2.06-1.18,8.83-1.59,10.87-.73A63.57,63.57,0,0,0,119.05,77.79Z"/><path class="cls-1" d="M126.42,86.38a33.24,33.24,0,0,0-11-2.82c.17-.6.6-.46.92-.45a18.57,18.57,0,0,1,6,1.21c1.43.52,2.81,1.15,4.21,1.74Z"/><path class="cls-1" d="M162.18,105.18a69.9,69.9,0,0,1,7,5.66c.08.09,0,.32.07.82l-7.28-6.23Z"/><path class="cls-1" d="M117.26,93.81a49.4,49.4,0,0,0-8.2-5.8C111,88,115.69,91.38,117.26,93.81Z"/><path class="cls-1" d="M149.53,100.82c-1.18-.8-2.38-1.59-3.55-2.41-1.78-1.24-3.56-2.51-5.33-3.77a1.66,1.66,0,0,1-.65-.81,6,6,0,0,1,.79.43c2.84,2,5.67,4,8.5,6a3.42,3.42,0,0,1,.36.4Z"/><path class="cls-1" d="M120.59,107.13q-3.53-3.78-7-7.57C114.78,100,119.72,105.27,120.59,107.13Z"/><path class="cls-1" d="M141.42,68l-9.11-.24C133.63,66.91,138.67,67,141.42,68Z"/><path class="cls-1" d="M121.9,91.22l-7.79-3.36A14.68,14.68,0,0,1,121.9,91.22Z"/><path class="cls-1" d="M122.46,113.89a68.54,68.54,0,0,1,4.91,6.61l-.4.27-4.77-6.66Z"/><path class="cls-1" d="M129.08,104.09c2.3,2.35,4.7,4.6,6.84,7.1l-.22.21q-3.45-3.51-6.91-7Z"/><path class="cls-1" d="M117.77,114.06a15.55,15.55,0,0,1,1.74,1.9,9.88,9.88,0,0,0,3.91,3.46c.12.06.21.17.25.44a6.13,6.13,0,0,1-1.53-.62,15.56,15.56,0,0,1-2.22-2.07c-.82-.94-1.53-2-2.28-3Z"/><path class="cls-1" d="M162.08,71.74l-8.68-1.49.06-.32c2.93.27,5.79,1,8.67,1.51Z"/><path class="cls-1" d="M151.59,101.22l-6.21-4.77C146.64,96.58,149.86,99,151.59,101.22Z"/><path class="cls-1" d="M174.63,95.21l-5.27-3.16C170.59,92.09,173.86,93.89,174.63,95.21Z"/><path class="cls-1" d="M130.83,103.41l4.51,5.14-.22.18A22.53,22.53,0,0,1,130.83,103.41Z"/><path class="cls-1" d="M125.83,115.61c1.66,1.64,2.89,3.92,2.93,5.25Z"/><path class="cls-1" d="M170.81,85.19l5,2.56C174.67,87.81,173.28,87.14,170.81,85.19Z"/><path class="cls-1" d="M157.14,88.29c-2.09-.45-3.89-1.56-5.85-2.31l.09-.26a7.63,7.63,0,0,1,.81.26c1.48.64,3,1.28,4.44,1.93a2.37,2.37,0,0,1,.49.41Z"/><path class="cls-1" d="M155.33,69l5.64,1a13.4,13.4,0,0,1-5.65-.76Z"/><path class="cls-1" d="M152.84,84.45,158.11,87a14.56,14.56,0,0,1-5.45-2.33Z"/><path class="cls-1" d="M139.68,66.06h-5.79A13.78,13.78,0,0,1,139.68,66.06Z"/><path class="cls-1" d="M126.63,75.32l-5.1.7C122.69,75.27,124.11,75.09,126.63,75.32Z"/><path class="cls-1" d="M171.14,91a6.76,6.76,0,0,1,3.66,2c-1,0-1.31-.69-1.88-1A19,19,0,0,1,171.14,91Z"/><path class="cls-1" d="M166.87,112.48l-2.43-2.55.18-.2c.43.41.85.84,1.3,1.22s1,.73,1.43,1.09Z"/><path class="cls-1" d="M114.88,90l-3.24-1.78.15-.25a9.18,9.18,0,0,1,3.16,2Z"/><path class="cls-1" d="M113.79,110.75a3.25,3.25,0,0,1,1.84,1.6,5.91,5.91,0,0,1-1.82-1.63Z"/><path class="cls-1" d="M149.65,100.69l1.06.7-.19.24-1-.81Z"/><path class="cls-1" d="M116.27,104.48l.53.73-.12.09-.57-.64Z"/><path class="cls-1" d="M157.12,88.32l1.2.27-.1.29-1.08-.59Z"/><path class="cls-1" d="M110.7,107.7l-1-1.06c.77.28,1,.59,1,1.09Z"/><path class="cls-1" d="M121.23,107.44l.63.75-.15.15-.65-.72Z"/><path class="cls-1" d="M110.66,107.73l.79.55-.19.2-.56-.78Z"/><path class="cls-1" d="M115,89.91l1,.61a1,1,0,0,1-1.07-.53Z"/><path class="cls-1" d="M113.81,110.72l-1-.55c.48,0,.87.1,1,.58Z"/><path class="cls-1" d="M34.69,95a54.42,54.42,0,0,0-11.95,8.24c-.11-.81.39-1.06.72-1.35a42.3,42.3,0,0,1,9.15-6.24c.5-.25,1-.48,1.51-.7C34.19,95,34.3,95,34.69,95Z"/><path class="cls-1" d="M58.24,76.56a32.86,32.86,0,0,1,14.62,2.83l-.07.29c-1.53-.47-3-1-4.58-1.41s-3.33-.82-5-1.11S59.89,76.75,58.24,76.56Z"/><path class="cls-1" d="M79.33,98l.85-1.37L80,96.48,77.7,99.15,77.5,99c.16-.26.31-.53.49-.77,1-1.37,2.06-2.72,3.1-4.1l.83.59a12,12,0,0,1-2.38,3.48Z"/><path class="cls-1" d="M74.19,85,63.61,86.85C65.3,85.8,72.24,84.47,74.19,85Z"/><path class="cls-1" d="M86.72,119.59c.81-2.64,1.62-5.28,2.36-7.72C89.36,113.49,88.05,118.36,86.72,119.59Z"/><path class="cls-1" d="M91.49,97.32c.65,1.49.53,6.22,0,7.9Z"/><path class="cls-1" d="M66.2,91a37.33,37.33,0,0,1,8.72-4.15c.16,0,.32-.07.57-.13-.08.18-.09.24-.13.26l-8.79,4.09a1.17,1.17,0,0,1-.27,0Z"/><path class="cls-1" d="M36.25,82.78l-9.52,3.6C27.82,85.39,34,83.07,36.25,82.78Z"/><path class="cls-1" d="M31.25,89.3l-7.41,3.58C24.78,91.77,28.93,89.77,31.25,89.3Z"/><path class="cls-1" d="M37,81.19l-8.31,2.49C31.21,82.15,34.11,81.66,37,81.19Z"/><path class="cls-1" d="M102,110.85l-.69-6.65.33,0a29.72,29.72,0,0,1,.66,6.65Z"/><path class="cls-1" d="M90.78,110.48c.18,2-.79,5.84-1.92,7.14C89.54,115.1,90.14,112.87,90.78,110.48Z"/><path class="cls-1" d="M93.12,104.78v-8C93.62,98.16,93.65,101.65,93.12,104.78Z"/><path class="cls-1" d="M78.89,90.15,75.33,92a4.77,4.77,0,0,1-1.42.59A4.78,4.78,0,0,1,74.5,92c1.24-.78,2.51-1.54,3.75-2.32.38-.24.73-.53,1.09-.8h0c.33.61-.2.9-.49,1.28Z"/><path class="cls-1" d="M72.21,81l.68.46,0,.16-7-1a10.5,10.5,0,0,1,3.79,0c.6.06,1.2.17,1.79.25Z"/><path class="cls-1" d="M52,72.07H43.7l-.06-.14a6,6,0,0,1,1-.25A23,23,0,0,1,52,72.07Z"/><path class="cls-1" d="M62.45,105.16l-4.57,4.33A35.93,35.93,0,0,1,62.45,105.16Z"/><path class="cls-1" d="M29.93,102.47l-5.3,3.82C25,105.23,27.85,103.16,29.93,102.47Z"/><path class="cls-1" d="M41.67,73.42a29,29,0,0,1,8.77-.33v.33Z"/><path class="cls-1" d="M83.07,103.27A.54.54,0,0,1,83,103c.61-2,1.22-3.89,1.9-6A13.93,13.93,0,0,1,83,103.24Z"/><path class="cls-1" d="M69.15,76.66l-5.92-1.51a18.67,18.67,0,0,1,6,1.25Z"/><path class="cls-1" d="M28.44,101.25l-4.67,3.57C24.46,103.59,25.87,102.48,28.44,101.25Z"/><path class="cls-1" d="M23.08,94.36l4.61-2.22.14.27-4.57,2.3Z"/><path class="cls-1" d="M73.86,117.8l-1,1.43-.17-.08q1-2.31,2-4.62l.25.08-1.07,3.14Z"/><path class="cls-1" d="M57.5,108.16a12.2,12.2,0,0,1,3.39-3.58l.22.22Z"/><path class="cls-1" d="M66.83,126.27a5.9,5.9,0,0,1,.33-1.15A14.67,14.67,0,0,1,69,122.49a3.26,3.26,0,0,1-.18.63c-.45.9-.91,1.8-1.41,2.68-.11.19-.38.29-.58.44Z"/><path class="cls-1" d="M31.89,79.89a9.42,9.42,0,0,1,5.56-1Z"/><path class="cls-1" d="M73.86,117.8l0,0,1.75-3A9.36,9.36,0,0,1,74,118.52Z"/><path class="cls-1" d="M72.21,81l-.77-.13-2-.76,0-.16,3.29.64Z"/><path class="cls-1" d="M47.23,95l3.26-1.5.13.27L47.33,95.2Z"/><path class="cls-1" d="M85,102.4l.66-4A5.64,5.64,0,0,1,85,102.4Z"/><path class="cls-1" d="M48.61,93.25a7.2,7.2,0,0,1,3.87-1.56l-3.8,1.63Z"/><path class="cls-1" d="M103.28,108.29l-.45-3.36A4.23,4.23,0,0,1,103.28,108.29Z"/><path class="cls-1" d="M66.3,91.11l-1.77,1.11-.15-.29L66.2,91Z"/><path class="cls-1" d="M78.85,90.19l.51.07c-.42.73-.41.73-1.35,1l.88-1.14Z"/><path class="cls-1" d="M46.69,94.41a3,3,0,0,1,1.92-1.16l.07.07-2,1.06Z"/><path class="cls-1" d="M72.48,86.32l-1.21.33,0-.2,1.19-.37Z"/><path class="cls-1" d="M46.67,94.38l-1.09.84-.17-.28,1.28-.53Z"/><path class="cls-1" d="M83,103.24l-.31,1.11c0-.42-.13-.86.35-1.08Z"/><path class="cls-1" d="M57.07,111l-.48.56-.22-.21.5-.54Z"/><path class="cls-1" d="M81.73,70.26a76.33,76.33,0,0,0-5.48-10.71C78.67,61.51,82.28,68.47,81.73,70.26Z"/><path class="cls-1" d="M73.46,61.92l-10-9.21C65.69,53.36,72.37,59.5,73.46,61.92Z"/><path class="cls-1" d="M43.5,60.84a137.29,137.29,0,0,0-18.88-2.06A68,68,0,0,1,43.5,60.84Z"/><path class="cls-1" d="M63.26,58.25a26.49,26.49,0,0,1,9.59,9.45c-1.51-1.68-3-3.44-4.57-5S64.94,59.72,63.26,58.25Z"/><path class="cls-1" d="M72.49,44.93a31.26,31.26,0,0,1,5.4,9.29C76.18,51.07,74,48.2,72.49,44.93Z"/><path class="cls-1" d="M73,59.49,65.74,51.6C67.22,51.93,71.6,56.67,73,59.49Z"/><path class="cls-1" d="M49.83,65.72a16.26,16.26,0,0,1,8.88,1.89Z"/><path class="cls-1" d="M62.46,67.44c3.94,1.21,7.56,3.29,8.72,5.09C68.6,70.26,65.41,69,62.46,67.44Z"/><path class="cls-1" d="M7.27,63a28,28,0,0,1,10.27-.88Z"/><path class="cls-1" d="M65.35,64.52c-1.62-.89-3.21-1.82-4.85-2.66-1-.54-2.16-1-3.27-1.44.12-.12.19-.23.22-.22a21.45,21.45,0,0,1,8,4.18Z"/><path class="cls-1" d="M59.55,58.31a27.1,27.1,0,0,1,6.82,5c-1.13-.81-2.25-1.63-3.4-2.41s-2.39-1.57-3.59-2.36Z"/><path class="cls-1" d="M18.76,77.81c-2.39,1.2-4.45,2.34-6.58,3.35C12.71,80.14,16.36,78.3,18.76,77.81Z"/><path class="cls-1" d="M53.61,34.16a22.26,22.26,0,0,1,6,5l-6.12-4.78Z"/><path class="cls-1" d="M31.42,67.81l8.7-.64,0,.3c-2.89.43-5.82.36-8.72.65Z"/><path class="cls-1" d="M15.48,60.75A23.44,23.44,0,0,1,9.22,61,18,18,0,0,1,15.48,60.75Z"/><path class="cls-1" d="M41.63,63.32l-6.31-.77,0-.28c2.11.22,4.26.11,6.33.73Z"/><path class="cls-1" d="M60.69,38.65,56,34.72C57.18,35,59.18,36.61,60.69,38.65Z"/><path class="cls-1" d="M52,63l6,2.28-.11.3L51.8,63.39Z"/><path class="cls-1" d="M44.15,53.1a6.27,6.27,0,0,1,1.17.3c1.28.61,2.54,1.27,3.78,2a17,17,0,0,1-4.94-2.28Z"/><path class="cls-1" d="M12.78,82.14a6.49,6.49,0,0,1,3.88-1.73l-3.77,1.84Z"/><path class="cls-1" d="M49.27,41.63l2.44,2.83L48.94,42Z"/><path class="cls-1" d="M37.69,68.55l-3.23.27,0-.12c.54-.1,1.08-.25,1.62-.3s1.08,0,1.63,0Z"/><path class="cls-1" d="M46.71,39.54l2,1.72-.22.24-2-1.73Z"/><path class="cls-1" d="M50.56,44.87l.9,1-.05,0Z"/><path class="cls-1" d="M48.75,43.45l-1.3-1.22C48.3,42.44,48.3,42.44,48.75,43.45Z"/><path class="cls-1" d="M49.72,29.84l1.07.87-.14.18-1.11-.82Z"/><path class="cls-1" d="M45.4,55.56l1.1.37-.06.22-1.18-.37Z"/><path class="cls-1" d="M44.16,53.09l-1.24-.3c.51-.19.95-.17,1.23.31Z"/><path class="cls-1" d="M65.48,64.38l1,.65a1.09,1.09,0,0,1-1.11-.51Z"/><path class="cls-1" d="M148.6,34.38a47.17,47.17,0,0,1,6.41-5.9c.12-.09.34,0,.57-.06A44.13,44.13,0,0,1,148.6,34.38Z"/><path class="cls-1" d="M128.44,60.35c-2.85,2.68-7.41,6.14-8.39,6.46A52,52,0,0,1,128.44,60.35Z"/><path class="cls-1" d="M116.51,44.32c-1.58,3.42-3.16,6.84-4.82,10.41C111.83,53.29,115.05,46.05,116.51,44.32Z"/><path class="cls-1" d="M118.24,24.89a6.94,6.94,0,0,0-2.52,2.9,30.89,30.89,0,0,1-2,3.13,11.51,11.51,0,0,1,.58-1.65q1-1.95,2.19-3.84A1.22,1.22,0,0,1,118.24,24.89Z"/><path class="cls-1" d="M155.33,37.42l-7.85,5.66C148.32,41.54,153.52,37.75,155.33,37.42Z"/><path class="cls-1" d="M161,37.51a34.22,34.22,0,0,1,8.15-3.92l.16.35Z"/><path class="cls-1" d="M126.68,23.16a2.13,2.13,0,0,1-.06.68c-1.06,2.19-2.15,4.37-3.22,6.56a.31.31,0,0,1-.36.19c1.06-2.33,2.12-4.66,3.2-7,.08-.17.31-.28.48-.41Z"/><path class="cls-1" d="M127.42,59.73l-7.2,5.62C120.72,64.31,125.71,60.42,127.42,59.73Z"/><path class="cls-1" d="M160.74,46.67c1.52-.65,3-1.31,4.57-1.93,1.13-.47,2.29-.88,3.45-1.25-.73.74-5.67,2.73-7.93,3.28Z"/><path class="cls-1" d="M147.71,27.1l-5.24,4.81a22.74,22.74,0,0,1,5-5.05Z"/><path class="cls-1" d="M166.09,42.88l-7.23,3-.13-.29,7.17-3.17Z"/><path class="cls-1" d="M136.54,57.42a34.89,34.89,0,0,1,6.78-3.65A49.7,49.7,0,0,1,136.54,57.42Z"/><path class="cls-1" d="M107.69,54.59l-1.23,6.69C106.06,60.22,106.65,57,107.69,54.59Z"/><path class="cls-1" d="M136.24,58.86l6.35-3.63.18.29-6.3,3.64Z"/><path class="cls-1" d="M125.41,42.22a18.67,18.67,0,0,1-3,6.75Z"/><path class="cls-1" d="M117.56,27.33c0,.12.07.26,0,.36-.7,1.74-1.42,3.49-2.25,5.19a28.22,28.22,0,0,1,2-5.63Z"/><path class="cls-1" d="M139.07,38.53l-4.36,5a25.68,25.68,0,0,1,4.08-5.25Z"/><path class="cls-1" d="M117,46.6a33.54,33.54,0,0,1-2.81,6A27,27,0,0,1,117,46.6Z"/><path class="cls-1" d="M134.16,42a45.33,45.33,0,0,1,4.31-5.26l.28.23-4.47,5.14Z"/><path class="cls-1" d="M149.39,31.42a9.15,9.15,0,0,1,3-3A11,11,0,0,1,149.39,31.42Z"/><path class="cls-1" d="M124.69,47.93l2.13-4.65C127,44.39,126.21,46.2,124.69,47.93Z"/><path class="cls-1" d="M164.38,39.28A9.14,9.14,0,0,1,168,36.8l.14.24Z"/><path class="cls-1" d="M119.07,28.1l-1.69,4.26A9,9,0,0,1,119.07,28.1Z"/><path class="cls-1" d="M136.52,26.26l-2.32,3a4.24,4.24,0,0,1,2.36-3Z"/><path class="cls-1" d="M152.72,41.21l2.56-2,.19.25-2.55,2Z"/><path class="cls-1" d="M132.76,50.82l1.39-1.67.13.12-1.41,1.66Z"/><path class="cls-1" d="M134.15,49.15l1.21-1.63a2.68,2.68,0,0,1-1.08,1.75Z"/><path class="cls-1" d="M113.24,39.31l-.63,1.62-.21-.07L113,39.2Z"/><path class="cls-1" d="M158.94,47.66c.31-.84,1.13-.78,1.8-1l.09.1-1.92.86Z"/><path class="cls-1" d="M114.48,40.18l-.75,1.64c.16-.59-.1-1.41.78-1.61Z"/><path class="cls-1" d="M132.87,50.93l-1,1.28a1.69,1.69,0,0,1,.85-1.39Z"/><path class="cls-1" d="M134.28,42.06l-.92,1,0,0,.77-1.18Z"/><path class="cls-1" d="M158.91,47.63l-1.14.47-.1-.17a2.51,2.51,0,0,1,.61-.31,3,3,0,0,1,.66,0Z"/><path class="cls-1" d="M132.62,44.31l-.73.83c.16-.57.29-.89.77-.8Z"/><path class="cls-1" d="M114.51,40.21c-.35-.51,0-.88.37-1.22l-.4,1.19Z"/><path class="cls-1" d="M113,43.74l-.37.75-.13-.05.32-.81Z"/><path class="cls-1" d="M132.66,44.34c-.16-.64.21-1,.73-1.21l0,0-.74,1.21Z"/><path class="cls-1" d="M88.94,15.06a1.7,1.7,0,0,1,2,1.66,2.4,2.4,0,0,1-1.65,2.55,1.34,1.34,0,0,1-1.51-.93,10.74,10.74,0,0,1-.45-1.84C87.18,15.71,88,15.07,88.94,15.06Zm.6,1.39c-.83.32-1,.62-.71,1.13,0,.06.15.08.3.15Z"/><path class="cls-1" d="M65.55,28.85a9.55,9.55,0,0,1-1.5-1.14,29.7,29.7,0,0,0-6.52-5.57,2.47,2.47,0,0,1-.5-.47c-.05-.06-.05-.17-.1-.39a22.24,22.24,0,0,1,8.83,7.35Z"/><path class="cls-1" d="M85.31,17.54c2.34.56,3,2.57,1.7,4.12a1.71,1.71,0,0,1-2.11.51,1.6,1.6,0,0,1-.91-2A24.6,24.6,0,0,1,85.31,17.54Zm.29.79a2.68,2.68,0,0,0-.92,2.26.81.81,0,0,0,.73.86,1.31,1.31,0,0,0,.94-.41C87.08,20.23,86.81,19.2,85.6,18.33Z"/><path class="cls-1" d="M79.5,35.18c2,5.13,4,10.25,4.59,15.79C83.09,45.56,80.72,40.53,79.5,35.18Z"/><path class="cls-1" d="M89.53,71.3a103.06,103.06,0,0,1-3.28-13.73A115.65,115.65,0,0,1,89.53,71.3Z"/><path class="cls-1" d="M82.17,37.09a57.71,57.71,0,0,1,3.09,11.53q-1.73-5.7-3.46-11.39Z"/><path class="cls-1" d="M59.89,21.15A14.63,14.63,0,0,1,64.62,26l-5-4.58Z"/><path class="cls-1" d="M89.87,67.11c-.4-2.43-.79-4.86-1.19-7.29a26,26,0,0,1,1.51,7.28Z"/><path class="cls-1" d="M80.11,7.48l1.36,5A7.4,7.4,0,0,1,80.11,7.48Z"/><path class="cls-1" d="M67.15,16.55a11.44,11.44,0,0,1,2,4.25l-2.25-4.06Z"/><path class="cls-1" d="M97.77,36.63c.94-1.26,1.76-1.53,3.06-1a2,2,0,0,1,.75.58,2.28,2.28,0,0,1-.4,2.55,1.85,1.85,0,0,1-2.17.77,1.78,1.78,0,0,1-1.26-2c0-.31,0-.63,0-1Zm1.2.07c-.06.67-.27,1.27.41,1.4s.72-.41.75-1Z"/><path class="cls-1" d="M106.08,31.18c.77,6.74-.44,13.32-1.7,19.9C105.11,44.46,106,37.86,106.08,31.18Z"/><path class="cls-1" d="M101.83,19.84c-.18-2.89-.37-5.79-.56-8.81.73.31.72.92.75,1.39.13,2.2.2,4.41.26,6.61a3.18,3.18,0,0,1-.19.84Z"/><path class="cls-1" d="M103.34,19.89c-.11-2.68-.71-5.33-.48-8.22A15.67,15.67,0,0,1,103.34,19.89Z"/><path class="cls-1" d="M106.26,22.73a16.28,16.28,0,0,1,1.55,6.82A21.11,21.11,0,0,1,106.26,22.73Z"/><path class="cls-1" d="M99.73,46.48c-.16,2.91-.33,5.81-.49,8.72C98.75,53.44,99.06,47.66,99.73,46.48Z"/><path class="cls-1" d="M103.9,38.86a20.73,20.73,0,0,1-.53,6.52A24.58,24.58,0,0,1,103.9,38.86Z"/><path class="cls-1" d="M100.78,47.85a9.73,9.73,0,0,1-.59,5.16l.21-5.19Z"/><path class="cls-1" d="M105.85,26.89c-.16-1.31-.92-2.5-.59-3.86A7.42,7.42,0,0,1,105.85,26.89Z"/><path class="cls-1" d="M93.67,53.51,94,59.27C93.22,57.39,93.49,55.45,93.67,53.51Z"/><path class="cls-1" d="M94.27,56.55l.27-3.77A6,6,0,0,1,94.27,56.55Z"/><path class="cls-1" d="M94.69,68.15c.68.57.26,1.43.57,2.12a1.94,1.94,0,0,1-.1,1.22l-.44-3.37Z"/><path class="cls-1" d="M95.13,84.35c.13.05.36.07.37.14a7.19,7.19,0,0,1,.24,2.13l-.6-2.28Z"/><path class="cls-1" d="M94.72,68.12l-.27-1.51.24,0v1.57Z"/><path class="cls-1" d="M95.14,84.34V82.9l.2,0-.21,1.43Z"/></g></g></svg>