<svg xmlns="http://www.w3.org/2000/svg" viewBox="0 0 150.56 134.31"><defs><style>.cls-1{fill:#dbdbdb;}</style></defs><g id="Layer_2" data-name="Layer 2"><g id="OBJECTS"><path class="cls-1" d="M88.25,118.41c1.17,1.85,4.41,9.51,4.45,10.52C91.91,128.35,88.44,120.15,88.25,118.41Z"/><path class="cls-1" d="M74.28,124.28c-.7-2.18-.33-4.49-.83-6.7A20.29,20.29,0,0,1,74.28,124.28Z"/><path class="cls-1" d="M88.8,125.6l2,5.31c-.72-.54-.73-.54-1.37-2.48-.3-.9-.55-1.81-.83-2.71Z"/><path class="cls-1" d="M68.25,114.64c.29,1.73.59,3.46.92,5.36-.27-.2-.43-.26-.44-.34-.21-1.64-.4-3.29-.6-4.94Z"/><path class="cls-1" d="M75.42,124.42c-.38-.62-.57-2-.57-4.24A7.24,7.24,0,0,1,75.42,124.42Z"/><path class="cls-1" d="M91,130q-.9-2.33-1.81-4.65a15.68,15.68,0,0,1,2.06,4.55Z"/><path class="cls-1" d="M71,122.52l-.31-2.64a5.4,5.4,0,0,1,.6,2.6Z"/><path class="cls-1" d="M69.89,118.41l.38,3.22-.12,0-.38-3.23Z"/><path class="cls-1" d="M109.55,126.74l-1.25-2.19.21-.12,1.28,2.17Z"/><path class="cls-1" d="M112.62,123.77c-.63-.16-.76-.76-1.18-1.1l.24-.2.92,1.32Z"/><path class="cls-1" d="M72,123l-.14-1.24.12,0,.14,1.26Z"/><path class="cls-1" d="M110.29,120.76l.62.83-.17.13-.66-.83Z"/><path class="cls-1" d="M133,45.33c.13.27.19.62.39.79a27.76,27.76,0,0,1,4,4.63,46.7,46.7,0,0,0,8.16,8.58,14.47,14.47,0,0,1,4.06,4.36,7.69,7.69,0,0,1,.7,6,38,38,0,0,0-1.6,10.23A7.78,7.78,0,0,1,145.6,86a5.24,5.24,0,0,1-3,1.16c-.8.07-1.6.09-2.4.15a3.25,3.25,0,0,0-2.42,1.16,3.48,3.48,0,0,1-3,1.24c-.68,0-1.36-.12-2-.2a7.56,7.56,0,0,0-3.94.52c0,.29,0,.56,0,.83-.11,1.06-.17,2.14-.38,3.18s-.62,2.31-1,3.45a8.87,8.87,0,0,0,.09,5.3,5.14,5.14,0,0,1-.63,4.57c-1,1.41-2.16,2.67-3.26,4a3.5,3.5,0,0,1-.53.49,3.32,3.32,0,0,0-1.35,3.1,7.49,7.49,0,0,1-2.92,6.27,2.45,2.45,0,0,1-.82.49,3.51,3.51,0,0,0-2,1.67,14.71,14.71,0,0,1-4.4,4.69,9.6,9.6,0,0,1-1.34.79c-2,.79-4,1.58-6,2.28a6.61,6.61,0,0,1-3.22.06c-1.19-.17-2.39-.27-3.59-.39a2.11,2.11,0,0,0-1.46.44,10.8,10.8,0,0,1-1.26.67,5.45,5.45,0,0,0-1.16.64c-2.26,2-4.88,2-7.61,1.44a13.08,13.08,0,0,1-6.5-3.46,15.24,15.24,0,0,0-5.5-3.34,20.28,20.28,0,0,1-3.48-1.6,18.13,18.13,0,0,1-4.6-4.35,14.47,14.47,0,0,1-3.37-6.39c-.23-1.17-.34-2.36-.51-3.55-.07-.49-.16-1-.27-1.67-.3.35-.46.51-.6.68-.87,1.1-1.73,2.2-2.61,3.29a3.76,3.76,0,0,1-.85.84c-2.07,1.3-4.14,2.61-6.66,2.92-.23,0-.47.07-.71.09a15.42,15.42,0,0,0-7.3,2.18,11.52,11.52,0,0,1-5.3,1.49,22.5,22.5,0,0,1-8.49-.49,7.05,7.05,0,0,1-2-.81,50.34,50.34,0,0,1-4.21-3.17A13.27,13.27,0,0,0,18.2,114a13.6,13.6,0,0,1-5.62-3.34,7.7,7.7,0,0,0-1.79-1.39,9.74,9.74,0,0,1-4.74-5.78,11.54,11.54,0,0,0-2.24-4A15.43,15.43,0,0,1,.08,90.64a10.8,10.8,0,0,1,.37-4.38c.29-1,.56-2,.91-3a4.9,4.9,0,0,0,.12-3.05A12.45,12.45,0,0,1,3.59,68.92a16.07,16.07,0,0,0,2.59-5.08,15.87,15.87,0,0,1,8.32-9.91,26.16,26.16,0,0,1,7.13-2.49.78.78,0,0,0,.52-.33l-2.56-.43a15.23,15.23,0,0,1-7.39-3c-1.48-1.22-2.92-2.5-4.28-3.85a5.56,5.56,0,0,1-1.67-4,26,26,0,0,1,.87-7.8c.67-2.34,1.26-4.69,1.91-7,.2-.7.12-1.42.29-2.15.61-2.67,1-5.39,1.48-8.1.37-2.1,1.24-2.93,3.39-3a10.7,10.7,0,0,1,5,.71,2.93,2.93,0,0,0,3.18-.5c1.74-1.46,3.52-3,4.43-5.12,1.08-2.55,3.13-3.63,5.71-4a11.54,11.54,0,0,0,4.41-1.49A7.13,7.13,0,0,1,39,.73C40.11.49,41.23.35,42.35.19a21.34,21.34,0,0,1,6.23.09,18.42,18.42,0,0,1,4.34,1.43,29.3,29.3,0,0,1,4.16,1.86A12.68,12.68,0,0,1,62.89,10a4.91,4.91,0,0,0,.26.53c.13-.35.24-.6.31-.86a5.35,5.35,0,0,1,4.07-4,15.93,15.93,0,0,1,5.37-.59,11.59,11.59,0,0,0,7.25-1.74A28,28,0,0,1,82.8,2a6.65,6.65,0,0,1,4.8-.44A7,7,0,0,1,89,1.93a6.69,6.69,0,0,0,3.6.43c2.86-.1,5.52.55,7.29,3.1.59.85,1.21,1.68,1.82,2.52a3.44,3.44,0,0,0,2.12,1.25,20.72,20.72,0,0,0,5.15.4,13,13,0,0,1,4.52.5,10.26,10.26,0,0,1,6.21,5.12,14.44,14.44,0,0,1,1.45,3.25,17,17,0,0,1,0,8.74,5.31,5.31,0,0,0-.12,3.5,3.74,3.74,0,0,1,0,1.88,27.66,27.66,0,0,1-.77,2.76,4.69,4.69,0,0,1-1.55,2.36c-.74.6-.64,1,.25,1.32,1.57.61,3.15,1.2,4.68,1.88a7,7,0,0,1,1.9,1.23,6.59,6.59,0,0,0,2.95,1.53,8.73,8.73,0,0,1,3.66,1.47C132.34,45.31,132.66,45.28,133,45.33ZM110,17.25l.05-1.19c-.58,0-.66.36-.78.82l.76.34,1.38,1.24c.85-1,.55-1.73-.93-2.26ZM101.05,34.1c-.32.13-.73.17-.93.4A13,13,0,0,0,99,36.25c-.08.14,0,.37,0,.69l2-2.5-.11,1,.72-.78c.22.66-.86,1.12-.15,1.72,1.47-2.4,2.91-4.77,4.34-7.12l-.57-1.13-2.1.11-.17,1.52-.12.27a1.88,1.88,0,0,0-.32.31A7.1,7.1,0,0,0,101.05,34.1ZM88.48,50l1.27-1.66-.23-.16c-.57.46-1.22.85-1,1.81l-.41.44-.28-.54-.94.62c.56-1.08,1.81-1.69,1.85-3.36l-1.79,1.7c-1,.94-1.89,2-2.94,2.83-2.07,1.7-4.23,3.3-6.32,5q-4.94,3.93-9.82,7.92a39.43,39.43,0,0,1-5.95,4.24,2.69,2.69,0,0,1-.76.34c-.4.06-.84,0-1,.42a4.58,4.58,0,0,0-.41,1.1c-.26,1.74.35,2.56,2.13,2.66a10.82,10.82,0,0,1,2.79.58c.71.24,1.4.56,2.24.89.2-.6.43-1.14.56-1.7a4.45,4.45,0,0,1,1.19-2.29c.84-.85,1.53-1.84,2.3-2.76a22.29,22.29,0,0,1,1.52-1.69c1.68-1.6,3.4-3.16,5.09-4.75,2.1-2,4.2-4,6.27-6,1.88-1.8,3.73-3.63,5.59-5.46a3,3,0,0,0,1.06-1.84ZM98.83,33.32l.14-.13c.23-.1.62-.15.67-.31a1,1,0,0,1,1-.85c.12,0,.27-.17.34-.3A10.19,10.19,0,0,0,102.5,28c-.2-.1-.34-.16-.47-.24-1-.53-1.07-.95-.46-1.8a4.75,4.75,0,0,1,.78-.7C101,23.47,99,23,97.81,21.34c-.29.27-.48.46-.69.64a1.15,1.15,0,0,1-1.89-.34,2.05,2.05,0,0,1-.21-1.5c.2-1.05,1-1.68,1.61-2.48.09-.13.44-.14.65-.11a2.3,2.3,0,0,1,2,1.91,2,2,0,0,0,.3.88,9.38,9.38,0,0,0,2.84,2.19L101,17.67c-.55,0-1,0-1.43,0-.87,0-1.2-.53-1-1.37a2.73,2.73,0,0,1,2.69-2,2.15,2.15,0,0,1,1.89,1.28,1.46,1.46,0,0,1-.49,1.81c0,.05,0,.14,0,.16l1.17,3.51c.78-1.39,1.44-2.59,2.11-3.79-.36,1.63-1.4,3-1.83,4.55.54.48,1,1.08,1.71.82a3.57,3.57,0,0,0,1.77-1.08,27.94,27.94,0,0,0,1.68-3.49c-1.07-1-1-1.92,0-2.59.56-.37,1.12-.1,1.63,0a2.23,2.23,0,0,1,1.48,3.17,1.39,1.39,0,0,1-1.7.72l-2.17,4a1,1,0,0,1,0-.83c.49-1.09,1-2.17,1.5-3.25.13-.27.34-.55,0-.84l-2.62,4.93a7.7,7.7,0,0,1-1.68.18A5.85,5.85,0,0,1,104,23c-.42-.2-.4-.62-.3-1,0-.16-.12-.36-.19-.54-.28-.79-.55-1.58-.84-2.36-.18-.46-.39-.91-.64-1.47-.12.21-.16.25-.15.28q.83,2.91,1.64,5.83a2.65,2.65,0,0,1,0,.69,18.33,18.33,0,0,1-4.62-3.82l-.63.44c.17.17.26.29.38.39,1.07.9,2.09,1.86,3.23,2.66a2.9,2.9,0,0,0,1.93.75,1.93,1.93,0,0,1,1.85,1.46c.09.25.13.51.2.78.4-.15.9-.19,1-.43.57-1,1.63-1.05,2.53-1.42.25-.11.48-.24.73-.36-.83,0-1.64.39-2.51-.1l.65-1.11c.26.18.46.43.64.42a3.5,3.5,0,0,0,2.16-.54c1.05-.85,2.14-.42,2.57.87a3,3,0,0,1-.55,2.82,1.63,1.63,0,0,1-1.74.76c-.89-.21-1.1-.45-1.27-1.49,0-.26-.09-.52-.14-.81l-.89.21-.77.25c1.28,1.09,1.12,2.45-.29,3.18a1.72,1.72,0,0,1-.68.23,1.36,1.36,0,0,0-1.06.66,38.42,38.42,0,0,0-4.91,7.73c.88,1,.88,1,.26,2.14.27.41.72.8.71,1.18s-.42.83-.67,1.26c.64.78.62,1.31-.09,1.86s-1.13.43-1.77-.39l1.28-1.37-1-1-1,.83L99.84,44c-.82,1-.81.94.17,1.6a.71.71,0,0,1,.28.34,1.14,1.14,0,0,1-.51,1.24.74.74,0,0,1-1.06-.47c0-.08-.17-.12-.26-.18a8.79,8.79,0,0,1-2.71,2.91,5.35,5.35,0,0,1,.14.8,1.14,1.14,0,0,1-1.79,1.1,1.32,1.32,0,0,1-.64-1.64c.11-.47-.16-.53-.53-.67-.13.78-.57,1.39-1.38,1.36a1.75,1.75,0,0,0-1.42.68l-6.24,6.31-.6.64.11.14,1-.6a9.89,9.89,0,0,1-1.86,1.63c-.8.6-1.62,1.17-2.4,1.8-1.3,1.07-2.59,2.15-3.85,3.26-.93.81-1.83,1.67-2.71,2.54a4.39,4.39,0,0,0-1,2.27c1.43-1.09,2.4-2.39,4-3l-1,1.38-.78.7.16.17.75-.76c.31-.19.62-.37.91-.57a61.36,61.36,0,0,1,7.62-4.59c.72-.36,1.39-.81,2.08-1.21,2.07-1.21,4.09-2.53,6.23-3.62a51,51,0,0,0,14.13-10.86,29.65,29.65,0,0,0,4.44-5.95,4.33,4.33,0,0,1,1-1.16,13.22,13.22,0,0,1,4.51-2.19,4.23,4.23,0,0,0,1.18-.54,5.21,5.21,0,0,0,1.48-4l-3.48,3-.17-.17c.25-.28.48-.57.74-.83.89-.92,1.79-1.83,2.69-2.75.7-.73.7-.73.15-1.77-1.32,1.17-2.65,2.32-3.94,3.51s-2.58,2.45-3.86,3.67a.32.32,0,0,1,0-.35c1.36-1.57,2.69-3.17,4.1-4.69,1-1.05,2.12-2,3.14-3a3.16,3.16,0,0,0,.63-1.1,11.09,11.09,0,0,0,.37-1.51c.35-1.59.8-3.17.19-4.8a3.23,3.23,0,0,1,0-.83c0-.25,0-.5-.09-.85l-4.55,4-.17-.19a19.33,19.33,0,0,1,4.61-4.45l-.43-1-4.84,3.91c1-2.1,3-3.2,4.74-4.58a7.82,7.82,0,0,0-1.43-2.94,23.52,23.52,0,0,1-3.36,3.9l3.08-4.59-.75-.55-2.52,3-.22-.17,2.27-3.36a7.38,7.38,0,0,0-2.52-1.48c-.21.38-.39.73-.6,1.07s-.36.72-.83.84l.79-2.15-.9-.23c-.22.38-.42.72-.63,1.06s-.36.58-.66,1.06c0-1,.72-1.48.66-2.26l-6.76-.12a9,9,0,0,1-1.83,2.73,6.75,6.75,0,0,1,.86-2.93c-.61-.39-1-.29-1.24.27-.14.29-.3.56-.47.84a4.2,4.2,0,0,1-1.15,1.51c-.46-1.36.58-2.25.82-3.24-.71-.81-1.39-1.53-2-2.31s-.92-1.72-1.83-2.31l-1.3,2.86-.24-.09c.41-1.08.81-2.17,1.25-3.32L96.32,4.6C95.4,6.84,94.53,9,93.65,11.14A29.54,29.54,0,0,1,95.84,4.5,6.73,6.73,0,0,0,92.77,4c-.27.76-.53,1.51-.81,2.25s-.56,1.5-.84,2.24l-.9,2.35c-.28.75-.56,1.49-.83,2.24s-.53,1.51-.78,2.27-.48,1.52-.69,2.28-.41,1.63-.63,2.43a6.54,6.54,0,0,1-.62,2.13A27.34,27.34,0,0,1,88.09,13c1-2.93,2.11-5.81,3.17-8.7l-2-.34c-.94,2.54-1.86,5-2.77,7.51,0-2.79,1.1-5.31,1.79-8a5.3,5.3,0,0,0-4.51-.23c-1.31.6-2.57,1.31-3.82,2,0,.67,0,1.23-.1,1.78-.28,2.93-.54,5.86-.87,8.79a5.78,5.78,0,0,1-1.21,2.92,113.21,113.21,0,0,1,1-12.81l-2.17.59c-.09.49-.18.91-.25,1.34s-.13.85-.2,1.27l-.21,0,.28-2.52L75,6.72l-.52,7.08a34.68,34.68,0,0,1,.13-7A14.05,14.05,0,0,0,70,6.8c-.15,3.84-.3,7.65-.45,11.46-1.06-3.73-.45-7.53-.35-11.29a4.56,4.56,0,0,0-4.31,2.4c-.85,1.87-1.62,3.76-1.18,5.93a19.16,19.16,0,0,1,.11,3.22c0,1.95,0,3.9,0,5.85.06,1.75.22,3.5.33,5.25.23,3.73.08,7.49.66,11.21.07.43.05.87.09,1.31.12,1.26.23,2.53.38,3.8.3,2.65.66,5.29.93,7.94a8.25,8.25,0,0,1-.6,4,3.29,3.29,0,0,0-.16.67c.82-.05.85-.05,1.07-.84.42-1.5.8-3,1.21-4.5.06-.22.15-.42.23-.63a34.23,34.23,0,0,1-1,7.61c1.21-1.56,1.3-3.61,2.41-5.21a1.34,1.34,0,0,1,0,.57c-.24.89-.48,1.77-.7,2.66-.09.33-.25.72.44.9l3.22-5.69a5.51,5.51,0,0,1-.75,3c-.59,1.3-1.1,2.63-1.67,4l.9.42,2.78-3c-.26.93-1,1.54-1.27,2.44.57-.4,1.07-.85,1.59-1.29,1.8-1.53,3.65-3,5.4-4.6A89.76,89.76,0,0,1,87,48a2.46,2.46,0,0,0,1.22-1.55c.1-.62.25-1.23.4-1.92A4.46,4.46,0,0,1,88.1,44a1,1,0,0,1,.07-1.4,2.89,2.89,0,0,0,1.09-1.9,1.23,1.23,0,0,1,1.09-1c.59-.08.8.09.84.7a2.26,2.26,0,0,1-.69,1.72,4.63,4.63,0,0,0-.62,1c-.23.45-.42.92-.64,1.38l.69.58a11.16,11.16,0,0,1,.12-1.62c.11-.47.22-1.09,1-.79.38-1.38.45-1.43,1.82-1.4a2.92,2.92,0,0,0-.6-.43,1.36,1.36,0,0,1-.55-2.39A4.07,4.07,0,0,0,92.86,37a2.35,2.35,0,0,1,1.47.57,4,4,0,0,0,1.5.25l.2-.29c-1-1.19-1-1.5-.11-3.17-1.48-.87-1.44-1.83.13-2.81a1.4,1.4,0,0,1,1.18,1c0,.49-.34,1-.49,1.42l1.39,1.06Zm13.77,90.47.74.38.4-.61a14.19,14.19,0,0,1-2.28-2.75l2.6,2.38,1.49-2.09c-.28-.36-.53-.72-.82-1q-3.87-4.17-7.76-8.33l-8.43-9a5.91,5.91,0,0,1-.46-.69.87.87,0,0,1,.6.27c2.77,2.6,5.58,5.17,8.3,7.82s5.23,5.28,7.81,8c.69.71,1.24,1.54,1.87,2.33a3.17,3.17,0,0,0,2.3-2L110,110.78a40.57,40.57,0,0,1,9.38,6.67,3.68,3.68,0,0,0,.65-2.38,2,2,0,0,0-.89-1.8c-2-1.5-3.9-3.07-5.83-4.62-.23-.18-.42-.41-.63-.61a52.62,52.62,0,0,1,7.35,4.49c.74-.77,1.42-1.44,2.06-2.15,1-1.1,2-2.2,2.9-3.36a3.86,3.86,0,0,0,.77-1.59,6.1,6.1,0,0,0,0-1.76c-.1-1.06-.38-2.11-.6-3.25-5.91-2.54-11.68-5.49-17.86-7.55a3.59,3.59,0,0,1,1.18,0c.86.18,1.73.37,2.57.61a103.73,103.73,0,0,1,13.09,5.16c.31.14.64.27,1,.43l.6-2.75-12.6-3,.06-.25a55.8,55.8,0,0,1,12.83,2.5l.73-2.64a113.82,113.82,0,0,0-14-4.44c4.88.12,9.45,1.55,14.15,3.18a6.94,6.94,0,0,0-.16-1.27c-.41-1.24-.88-2.47-1.29-3.72a5.28,5.28,0,0,0-1.91-2.53c-.89-.68-1.7-1.45-2.58-2.15a1.66,1.66,0,0,0-.85-.32c-1.24-.11-2.48-.17-3.72-.24l-2.85-.17V81l6.66,0c-.05-.18-.06-.31-.09-.32l-5.16-.91v-.14l4.55.29c-1.81-2.89-3.78-5.34-6.89-6.64-.41-.17-.79-.39-1.19-.58a7.55,7.55,0,0,0-6.64.1c-1.56.74-3.15,1.39-4.77,2a3.89,3.89,0,0,1-3,0,24.26,24.26,0,0,0-7.77-2,9,9,0,0,0-5.38.78,3.07,3.07,0,0,1-3,.08,4.19,4.19,0,0,0-3-.19,6.47,6.47,0,0,0-1.3.69c2,.45,3.74.77,5.15,2l-5.62-1.5a4.38,4.38,0,0,0-1.4,1.74c2.57.92,6.8,3.76,7.54,5.13l-5.17-3c-.66-.38-1.32-.75-2-1.11-.32-.17-.66-.29-1,.06-.11.69.33,1.06.81,1.47,1.93,1.62,3.9,3.2,5.73,4.92,3.86,3.63,7,7.89,10.28,12a2.69,2.69,0,0,1,.19.58c-.55-.47-.92-.75-1.24-1.07-1.36-1.36-2.7-2.73-4-4.1-2.75-2.78-5.44-5.64-8.29-8.33a58.76,58.76,0,0,0-5.19-4.06,6.83,6.83,0,0,0-1.45-.67,8.16,8.16,0,0,0-.61,5,20.7,20.7,0,0,1,.83,5.3c0,1.39.08,2.79.1,4.18a15.78,15.78,0,0,1-2.27,9,30.32,30.32,0,0,1-3.14,3.77c-.84.91-1.79,1.71-2.7,2.55a1.09,1.09,0,0,0-.28,1.29,15.5,15.5,0,0,1,.73,2.89,15.39,15.39,0,0,0,4.5,9A14.74,14.74,0,0,0,71.31,124c2,1.13,4.17,1.94,6.5,3l-1.07-11.45s.09,0,.11.06c.16.36.33.72.46,1.1a43.37,43.37,0,0,1,1.57,10.13,2.09,2.09,0,0,0,1.76,2c0-1.76-.09-3.49-.14-5.23h.24a16,16,0,0,1,.66,6.21,10.52,10.52,0,0,0,5.9,2.66,6.26,6.26,0,0,0,5.41-1.36,8.86,8.86,0,0,1,1.58-.86c.36-.2.72-.43,1.11-.66l-7.89-18.83c1.08.78,2.86,3.73,5.06,8.67,1.4,3.16,2.69,6.37,4,9.59l1.7,0c-1-4.57-2.07-9-3.09-13.41,2.49,4.16,3.51,8.79,4.49,13.51,1.63.28,3.31,1,5.05,0a14.83,14.83,0,0,1-1.72-3.42l2.22,3.26,3.15-1.22c-1.22-2.13-2.38-4.13-3.54-6.14l.18-.1,3.79,6.15a11.8,11.8,0,0,0,4.16-3l-.38-.86ZM56,113.35l.26.14a7.6,7.6,0,0,0,1-.92c.94-1.14,1.84-2.32,2.76-3.48A19.12,19.12,0,0,1,62,106.71c1.49-1.39,3-2.8,4.36-4.29a11.08,11.08,0,0,0,2.67-5,16.59,16.59,0,0,0,.57-5.2c-.13-2.1,0-4.24-.35-6.31-.35-2.36-1.15-4.64-1.27-7a1.08,1.08,0,0,0-.35-.71c-.6-.46-1.25-.85-1.88-1.28a2,2,0,0,0-2.26.08,3.68,3.68,0,0,0-1.81,2.29A87.34,87.34,0,0,0,59.13,94.9C59.06,96,59,97,59,98.06a18.3,18.3,0,0,1-.57-6.28,79.86,79.86,0,0,1,2.12-13.31A8,8,0,0,0,60.78,76a1.83,1.83,0,0,0-1.66-1.78,2,2,0,0,0-2.28,1.1c-1.26,2.4-2.49,4.82-3.73,7.24l-.53,1a.79.79,0,0,1,0-.68,53.06,53.06,0,0,1,3.59-8.35A4.5,4.5,0,0,0,56.61,73a.85.85,0,0,0-.39-.75,1.19,1.19,0,0,0-.88.15,1.56,1.56,0,0,0-.47.54,95.86,95.86,0,0,0-8.45,13.22c-.12.23-.28.45-.42.68a3.27,3.27,0,0,1,.23-1.37,51.08,51.08,0,0,1,8.11-13.64,9.74,9.74,0,0,0,.73-1.08.94.94,0,0,0,0-1.22,1.07,1.07,0,0,0-1.31-.25c-.74.31-1.51.55-2.25.86-4.57,1.85-9.21,3.57-13.36,6.3-.07,0-.2,0-.49,0,5-4.64,11.06-6.78,17.13-9,.08-1.58-.19-2-1.71-2.06a22.4,22.4,0,0,0-9.82,1.42c-.4.16-.8.3-1.21.45a4.2,4.2,0,0,1,1.28-.83,23,23,0,0,1,9.64-1.78,2,2,0,0,0,.82-.08C55,64,55.4,62.82,55,61.22c-.27-1-.87-1.36-2.31-1.27-.48,0-1,.12-1.44.16-1,.08-2.08.2-3.12.2a8,8,0,0,1-4.54-1,37.83,37.83,0,0,1-4.36-3.16,13.43,13.43,0,0,0-5.33-2.9,72.47,72.47,0,0,0-8.38-1.62,2.71,2.71,0,0,0-2,.3,6.05,6.05,0,0,1-1.57.59,36.38,36.38,0,0,0-7,2.74,15.93,15.93,0,0,0-6.67,7,5,5,0,0,0-.27.91c4.86-.84,9.5-2.1,14.51-2.26a4.07,4.07,0,0,1-.38.22L8.63,63.78c-.59.11-1,.29-1.19,1a11.7,11.7,0,0,1-2.36,4.66c-.14.18-.24.39-.47.75a19.8,19.8,0,0,1,4.06-1c-.76.36-1.58.58-2.34.91s-1.65.38-2.24,1.07c2.09-.48,4.09-1.32,6.48-1.46-2.25.72-4.27,1.36-6.27,2a1.66,1.66,0,0,0-.88.56,6.45,6.45,0,0,0-.86,3,7.06,7.06,0,0,0,.68-.2,75.23,75.23,0,0,1,13.43-4.2,47.33,47.33,0,0,1,10.26-1.36,3.87,3.87,0,0,1,1.72.25A114.2,114.2,0,0,0,2.57,76.61l.32,2.75a18.09,18.09,0,0,1,6-1.82,38.24,38.24,0,0,1-5.7,2.65,15.48,15.48,0,0,1,.06,1.91,16,16,0,0,1-.36,2L8,81.6c0,.23-.1.31-.21.36-1.09.6-2.18,1.2-3.27,1.78C2.36,84.9,2.36,84.9,1.85,87.3A5.69,5.69,0,0,0,1.76,90a56.19,56.19,0,0,1,10.29-7.22c4-2.27,10.08-4.65,11.55-4.55a.75.75,0,0,1-.16.15c-.47.22-1,.44-1.43.64A80.68,80.68,0,0,0,5.29,88.7c-1,.75-1.93,1.56-2.92,2.33A.89.89,0,0,0,2,92.17c.11.29.23.57.38,1a26.08,26.08,0,0,1,6.47-4c-2,1.84-4.06,3.53-6.29,5.26l1.21,2.29c1.5-1,2.7-2.17,4.37-2.67L4.5,97.59l2.12,2.61A15.39,15.39,0,0,1,9.15,97a15.41,15.41,0,0,1-1.33,2.12,2.66,2.66,0,0,0-.33,3.36,3.74,3.74,0,0,1,.17.57A8.12,8.12,0,0,0,9,105.36c.12-.09.2-.12.24-.18a4.39,4.39,0,0,0,.32-.51,77.81,77.81,0,0,1,9.69-12.79c1.68-1.82,3.6-3.41,5.43-5.1a3.27,3.27,0,0,1,.61-.36A127.57,127.57,0,0,0,9.6,106.3l1.34,1.13c2.94-4.33,6.79-8.79,8-9.32l-7.19,9.69c2,1.44,3.51,3.58,6,4.25l.54-.52c.05.75.05.75.83.79a15.37,15.37,0,0,1,2.16-3.87l-1.85,4.24c2.46.69,4.2,2.35,6.07,3.94.09-.28.14-.39.17-.5a107.34,107.34,0,0,1,5.35-16,54.35,54.35,0,0,1,3.81-7.73c.15-.23.34-.44.51-.66a193.66,193.66,0,0,0-8.89,25.6l1.56,1a46,46,0,0,1,3.82-12.18c-.45,2.1-1,4.16-1.52,6.24s-.94,4.25-1.39,6.35c2.09,1,6.92,1.1,8.89.52a6.18,6.18,0,0,1-.18-1,41.26,41.26,0,0,1,.61-8.45,8.27,8.27,0,0,1,.26-.8c.13,3.42-.17,6.81.21,10.23.21-.13.4-.29.4-.45a20.68,20.68,0,0,1,.72-5.07,6.13,6.13,0,0,1,.24-.68c.12,2-.44,3.94-.24,6.09.69-.26,1.26-.41,1.78-.67,1-.5,2-1.1,3-1.56a1.12,1.12,0,0,0,.74-1.08c.2-2.14.44-4.28.68-6.41a80.31,80.31,0,0,1,2.29-13c.12-.39.26-.78.39-1.18-.4,3.54-.9,7-1.32,10.54s-.73,7-1.11,10.66l1.5-.37c.16-1.5.29-2.88.45-4.26s.32-2.77.55-4.15a12.47,12.47,0,0,1,.93-3.92q-.45,6-.91,12.13a10.59,10.59,0,0,0,6.45-1.86,26.32,26.32,0,0,1,.39-6.76ZM8.11,33.58a13.24,13.24,0,0,0-.26,1.36c-.11,1.51-.2,3-.29,4.53A4.43,4.43,0,0,0,9,43c1.29,1.25,2.66,2.41,4,3.58a12.22,12.22,0,0,0,5.8,2.47c2.88.57,5.78,1,8.68,1.4a52.23,52.23,0,0,1,7.65,1.6A13.41,13.41,0,0,1,40,54.85c1.16,1,2.46,1.91,3.72,2.82a5.6,5.6,0,0,0,3.52,1c1.72-.07,3.44-.28,5.16-.31,2.15,0,4.17.32,5.46,2.33a3.44,3.44,0,0,0,2.26,1.48c1.17.24,1.93-.06,2.31-1a7.81,7.81,0,0,1,.87-1.43A8.84,8.84,0,0,0,65,53c-.42-2.64-.78-5.28-1.17-7.92-.08-.55-.14-1.11-.18-1.66-.13-1.51-.24-3-.35-4.53-.07-.91-.15-1.82-.19-2.74-.12-2.7-.21-5.41-.35-8.11a74.57,74.57,0,0,1-.3-8.71,23.84,23.84,0,0,0-.26-5.6c-.13-.83-.33-1.64-.45-2.47a5.8,5.8,0,0,0-1.36-3c-.57-.66-1.2-1.28-1.81-1.91A3.27,3.27,0,0,0,57.86,6l.24,2a4,4,0,0,1-.38-1.24A2.64,2.64,0,0,0,56,4.57c-.71-.26-1.37-.65-2.08-.94-1-.39-2-.74-3.09-1.17C51.24,4.2,52,5.62,52.08,7.22a1.62,1.62,0,0,1-.42-.58c-.52-1.26-1-2.51-1.54-3.76-.12-.28-.26-.69-.48-.76a5.64,5.64,0,0,0-2.27-.4,59.26,59.26,0,0,1,3.45,10.54,84.11,84.11,0,0,1,2.07,10.83.88.88,0,0,1-.32-.44c-.65-2.09-1.32-4.18-2-6.27C49.4,12.29,48.22,8.2,47,4.12c-.27-.9-.66-1.78-1-2.69a7.91,7.91,0,0,0-3.17.35c.16.44.31.81.43,1.19s.2.65.3,1c-1.16-2-1.16-2-1.7-2.06.29,1.09,1,2,1.09,3.42L41.23,1.92C39.59,2.08,38,2,36.82,3.27c.55,1.07,1.33,2,1.34,3.24L36,3.6l-1.47.49a23.13,23.13,0,0,1,4.23,7.09C37,8.88,35.41,6.42,33.47,4.27c-2.53.21-4.62,1-5.6,3.5a6.92,6.92,0,0,1-1.69,2.44c-.66.64-1.25,1.34-1.92,2.07.36.29.65.55,1,.78a52.78,52.78,0,0,1,8.73,8c.19.22.58.4.44.95a127.36,127.36,0,0,0-10.66-8.85,16.71,16.71,0,0,1-3.35.88,16.85,16.85,0,0,1-3.44-.65A18.81,18.81,0,0,1,20.88,17L20,16.35c-1.26-.92-2.51-1.85-3.78-2.76-.72-.51-.75-.5-1.75-.18a48.44,48.44,0,0,1,8.07,6.42A9.46,9.46,0,0,1,21.15,19c-2.38-1.7-4.75-3.41-7.14-5.1-1.06-.74-1.52-.56-1.85.69-.11.42-.14.86-.21,1.29-.12.71-.24,1.41-.37,2.12-.29,1.68-.6,3.37-.89,5.05a5.17,5.17,0,0,0,0,.88c1.38.75,2.7,1.44,4,2.17s2.5,1.45,3.71,2.23,2.47,1.64,3.66,2.52,2.29,1.75,3.4,2.67a20.85,20.85,0,0,1,3.21,2.88c-6-3.78-11.88-7.83-18.27-11.26l-1,3.53a17.66,17.66,0,0,1,5.68,3.74l-.13.22L9.23,29.46l-.78,3L12.28,34a7.7,7.7,0,0,1-2-.37c-.65-.16-1.24-.63-2-.47a12.74,12.74,0,0,0,1.75.74l1.74.71-.09.22ZM128.36,81.49a5.47,5.47,0,0,1,.7,0c1.14.23,2.29.41,3.41.73,3,.85,6,1.5,8.67,3.14a1.44,1.44,0,0,0,.45.17,4,4,0,0,0,4.14-2.44l-3-1.21.09-.25,1.67.55c1.06.36,1.06.37,1.66.26l-4.41-1.58.08-.22,4.61,1.27a5.93,5.93,0,0,0,.48-3.64c-1.6-.36-3.15-.75-4.72-1.07s-3.23-.61-4.85-.88-3.06-.47-4.59-.7l0-.28c2.35.24,4.71.4,7,.73s4.71.86,7.17,1.32l.2-1.92-6.48-1.31a29.16,29.16,0,0,1,6.57.58l1.08-5.12-3.05-.19-2.89-.13c-1,0-2-.11-3-.14s-1.93,0-2.89-.09-1.85.25-2.74-.17c5-.93,10-.62,15.05-.45l-.05-1.2c-3.69-.09-7.11-1-10.61-1.24a35.16,35.16,0,0,1,10.65.56,8.11,8.11,0,0,0-2.13-4,2.46,2.46,0,0,0-1.89-.88c-.65,0-1.3-.09-2-.13v-.21l2.21-.26c-1-.79-1.8-1.42-2.57-2.1a1.84,1.84,0,0,0-1.41-.5c-1.17.06-2.33,0-3.5.06-3.85.09-7.71.15-11.56.31-1.8.07-3.6.33-5.4.49-.27,0-.61.22-.85-.22,6.78-1.8,13.69-1.75,20.77-2L139,55.52c-1.64,0-3.24,0-4.85,0s-3.12.08-4.68.13c2.77-1,5.64-1,8.69-1.18L137,53.1a22.72,22.72,0,0,1-7.06-.56,32.6,32.6,0,0,1,6.46-.21c-.77-1-1.44-1.89-2-2.78a1.49,1.49,0,0,0-1.63-.69c-1.59.23-3.2.39-4.8.57l0-.23,5.06-1,0-.35c-1.28-.39-2.61,0-3.94-.17l3.12-.36a6.25,6.25,0,0,0-3-1.82,10.77,10.77,0,0,1-3.6-1.32c-.36-.25-.66-.11-1,0-1.52.61-3,1.22-4.59,1.79s-2.82,1-4.23,1.48c2.64-1.83,5.67-2.83,8.59-4.19a12.43,12.43,0,0,0-3.34-1.81,23.74,23.74,0,0,0-2.38-.27,9,9,0,0,0-2.26.08,11.1,11.1,0,0,0-6.43,4.14A51.07,51.07,0,0,1,95,58c-1.38.75-2.77,1.46-4.12,2.24-2.71,1.55-5.42,3.11-8.1,4.72-1.92,1.15-3.83,2.35-5.67,3.61a9.91,9.91,0,0,0-1.73,1.81c-.11.12,0,.4,0,.66l2.56-1.22L78,70,75.8,71.57l.1.24c.88,0,1.76,0,2.63-.12a5.12,5.12,0,0,1,2.94.44,2,2,0,0,0,2-.12,9.45,9.45,0,0,1,5.73-.94,24.76,24.76,0,0,1,8.47,2.14,2.08,2.08,0,0,0,1.64.08,23.32,23.32,0,0,0,3.81-1.48,10.87,10.87,0,0,1,4.92-1.38,7.7,7.7,0,0,1,4.32.83c.56.31,1.18.51,1.73.83a23,23,0,0,1,2.41,1.54,25.51,25.51,0,0,1,5.36,6.4,7.43,7.43,0,0,0,1.87,2c.42.3.82.64,1.23,1a6,6,0,0,1,2.12,2.83c.36,1,.83,2,1.28,3,.66-.4,1.45-.33,1.73-.93l1.62,0c-.39-.74-1.17-.9-1.46-1.71.75.54,1.31,1,1.92,1.38a4.42,4.42,0,0,0,3.48.43,1.57,1.57,0,0,0,1.14-1.12c-.56-.25-1.08-.46-1.58-.71s-1.08-.53-1.61-.82-.88-.54-1.32-.81l.12-.2,4.94,2.15,2.2-.91C135.86,84,132,83.11,128.36,81.49ZM95.69,43.3l-1.2-1.44-1.3.31-1.32,1.69c.46,1.11-.64,1.48-1.42,2.12.62.45,1.2.83,1,1.66,0,.13.3.43.52.52s.36-.19.57-.32c-1.21-.93-1.17-2,.07-2.91.8.26,1.11,1,1.38,1.82l.76-1-.31-1c-1.32.16-1.37.05-1.18-2.14,1,.06,1.45.73,1.63,1.66a2.56,2.56,0,0,0,.39-.29C95.43,43.67,95.58,43.44,95.69,43.3Zm1.19-25.1c-1.4,1.3-1.57,2.46-.46,3.26l2.26-1.67C98.55,18.65,97.75,18.38,96.88,18.2Zm2.33-1.34c1,0,1.82,0,2.63-.05a1,1,0,0,0,.66-.57c.06-.17-.15-.52-.33-.69a1.54,1.54,0,0,0-2.7.43A6.89,6.89,0,0,0,99.21,16.86Zm12,10c.91.19,1.26-.28,1.53-.91a1.79,1.79,0,0,0-.22-1.88,1,1,0,0,0-.83-.28c-.19,0-.43.36-.46.59A4.54,4.54,0,0,0,111.2,26.86ZM99.43,40.15l1.17-2.26-1-.17c-.24.89-.55,1.6-1.63,1.45-.15,0-.32.18-.49.24s-.6.31-.75.22c-.55-.33-.79,0-1.11.33l1.17,1.14C97.77,39.48,98.07,39.36,99.43,40.15ZM102,26.81a16.07,16.07,0,0,0,1.94.48.92.92,0,0,0,.77-.37.93.93,0,0,0-.17-.82C103.56,25,102.59,25.27,102,26.81ZM97.42,43.66l1.24-.93L97,41.94l-.51,1c.16.11.29.19.42.29Zm8.81-15.49c1,.43,1.74.22,2-.57,0-.13-.19-.34-.3-.51C107.4,27.5,106.41,27.11,106.23,28.17Zm-9.67,6.34a6.84,6.84,0,0,0-.45,1.08,1.14,1.14,0,0,0,.13.75.66.66,0,0,0,.61,0,1.17,1.17,0,0,0,.34-.8C97.16,35.25,96.88,35,96.56,34.51Zm1.13,10.32-.19-.19c-.25.24-.51.47-.74.72s-.7.23-.6.8C97.12,46.11,97.28,45.33,97.69,44.83Zm.42-7.93c-.08.59-.41,1,.11,1.43C98.78,37.86,98.78,37.86,98.11,36.9ZM95.26,45c.65.17,1-.13,1.34-.61C95.92,44.22,95.48,44.29,95.26,45Zm-1.67-3.42c.56-.49.56-.85.12-1.3C93.22,40.64,93.24,41,93.59,41.58Zm-1.32-1.64c.53-.48.53-.48-.11-1A.69.69,0,0,0,92.27,39.94Zm-2.38,1.59a1.09,1.09,0,0,0,.5-1.34C89.82,40.52,89.88,41,89.89,41.53Zm5.74-8.23c.69-.21.85-.45.59-.86,0-.09-.19-.12-.38-.24ZM99,35.09c.47-.34.53-.69.24-1.25C98.92,34.27,98.65,34.57,99,35.09ZM90,46.58c-.35.56-.24.81.26.84.11,0,.23-.15.41-.28ZM98.19,44c.49,0,.74-.09.72-.51a.22.22,0,0,0-.16-.15C98.3,43.33,98.25,43.65,98.19,44Zm-1.85,3.82-.25-.24-.63.65.18.19ZM94.46,40l.25,1,.58-.94Zm5.78,1.13.54-.65-.74-.2Zm-11,4.37c-.18.25-.58.51,0,.85ZM99,41c-.34-.06-.49-.1-.64-.11a4.5,4.5,0,0,0-.52.08C98.23,41.46,98.51,41.44,99,41Zm-5.67-2.37.28-.14c.1-.39,0-.65-.66-.74Zm-.71,8.18c.27-.47.55-.72-.1-.89Zm9.13-5.73c-.19-.07-.33-.17-.38-.13a2,2,0,0,0-.34.36c.09,0,.2.16.25.14A2.72,2.72,0,0,0,101.77,41.11Zm-6.25-2-.62-.8-.21.79ZM73.79,69.1l.22.18.52-.61-.15-.14Z"/><path class="cls-1" d="M98.83,33.32c-.48.16-1,.22-1.29-.28a1.31,1.31,0,0,1,.24-1.44c.27-.31.57-.58,1-.38a.85.85,0,0,1,.53,1,4.76,4.76,0,0,1-.37,1Z"/><path class="cls-1" d="M102.9,29.77l.55-.57a1.64,1.64,0,0,1-.64,1.34l0,0-.06-.52Z"/><path class="cls-1" d="M40.65,97.29c.44-3.54,2.32-9.48,3.41-10.58C43,90.43,41.93,93.88,40.65,97.29Z"/><path class="cls-1" d="M62.2,92.32c-.63-2.11-.29-8.9.54-10.3a47.52,47.52,0,0,1-.25,5.23C62.4,88.94,62.29,90.63,62.2,92.32Z"/><path class="cls-1" d="M24.08,57.75c-3.9.32-7.85.37-11.69,1.43C16.14,57.61,20.1,57.67,24.08,57.75Z"/><path class="cls-1" d="M41.31,58.66l-10.83,0C32.21,58.05,39.94,58,41.31,58.66Z"/><path class="cls-1" d="M28,80.65c-.19.17-.35.41-.57.5a94.77,94.77,0,0,0-11.7,5.77,1.8,1.8,0,0,1-.44.09c.13-.15.17-.25.25-.29a71.44,71.44,0,0,1,12.48-6Z"/><path class="cls-1" d="M28.71,64.7a25.75,25.75,0,0,1,8.8.15Z"/><path class="cls-1" d="M57.3,87.66,57,96.15C56.57,94.92,56.69,89.05,57.3,87.66Z"/><path class="cls-1" d="M64.27,78.31a16.46,16.46,0,0,1,.93,7.84Z"/><path class="cls-1" d="M44.51,84.62a14.17,14.17,0,0,1,3.23-6.49c-.05.62-.06.61-.51,1.22-.3.42-.57.87-.83,1.31s-.48.83-.7,1.25-.46.92-.67,1.39S44.68,84.18,44.51,84.62Z"/><path class="cls-1" d="M32.65,86.54c.48-2,1.87-4,3-4.46a8.25,8.25,0,0,1-1.49,2.28C33.64,85.1,33.14,85.81,32.65,86.54Z"/><path class="cls-1" d="M65.59,101c.84-2,1.69-4.06,2.58-6.2C68,97.21,66.8,99.11,65.59,101Z"/><path class="cls-1" d="M53,66.93l-6.65,2.43A18.25,18.25,0,0,1,53,66.93Z"/><path class="cls-1" d="M53.58,63.6a34.63,34.63,0,0,0-7.3.67c.6-.49,1.21-.66,3.57-.87A8,8,0,0,1,53.58,63.6Z"/><path class="cls-1" d="M57,82.87a4.64,4.64,0,0,1,.13-.92c.59-1.72,1.19-3.43,1.8-5.15a5.37,5.37,0,0,1,.32-.63c.05.16.11.24.09.3l-2.13,6.16c0,.09-.16.15-.24.22Z"/><path class="cls-1" d="M32.9,57.45a15.91,15.91,0,0,1,6.15-.07c-.64.34-1.32.08-2,.11s-1.36,0-2,0S33.61,57.45,32.9,57.45Z"/><path class="cls-1" d="M43.49,93.71a21,21,0,0,1,.9-4.44C44.84,90.26,44.43,92.19,43.49,93.71Z"/><path class="cls-1" d="M37.55,55.88l-5.24-.25A9.64,9.64,0,0,1,37.55,55.88Z"/><path class="cls-1" d="M12.3,64.5,7.7,65.88C8.3,65.09,8.58,65,12.3,64.5Z"/><path class="cls-1" d="M35.13,65.93,30,65.51A10.73,10.73,0,0,1,35.13,65.93Z"/><path class="cls-1" d="M66,96.4a7,7,0,0,1-1.8,4Z"/><path class="cls-1" d="M55.85,89.5l-.09,4.22a11.87,11.87,0,0,1-.18-4.24Z"/><path class="cls-1" d="M65.71,80c.25,1.43.51,2.85.76,4.28l-.2,0L65.37,80Z"/><path class="cls-1" d="M50.59,74.18a12.15,12.15,0,0,1,3-2.92l.16.17-3.09,2.83Z"/><path class="cls-1" d="M34.32,85.47a3.88,3.88,0,0,1,2.21-2.39l-1.1,1.21Z"/><path class="cls-1" d="M57.11,77.55l-.46.3h0A5.39,5.39,0,0,1,57.9,75.2l-.22,1.34Z"/><path class="cls-1" d="M16.7,57.7a7.68,7.68,0,0,1,4-.47Z"/><path class="cls-1" d="M52.82,62.6l-2.19.14v-.27l2.19,0Z"/><path class="cls-1" d="M52.17,66.29l-2.27.58,0-.15c.37-.13.73-.29,1.11-.39s.76-.17,1.14-.25Z"/><path class="cls-1" d="M56.65,77.85l-.58,2-.23-.08a4.14,4.14,0,0,1,.82-1.9Z"/><path class="cls-1" d="M52.8,61.63l-1.71.2V61.7l1.71-.2Z"/><path class="cls-1" d="M57.11,77.55l.57-1L57.42,78H57.2Z"/><path class="cls-1" d="M50.68,74.26l-1,1.13a2.34,2.34,0,0,1,.9-1.21Z"/><path class="cls-1" d="M57,82.85l-.28,1.48-.28-.08L57,82.87Z"/><path class="cls-1" d="M58.82,109.09,58,110,58,110l.69-1Z"/><path class="cls-1" d="M28,80.68l1.28-.6a1.51,1.51,0,0,1-1.3.57Z"/><path class="cls-1" d="M52,71.22l.85-.46L53,71l-.83.51Z"/><path class="cls-1" d="M17.37,87.71l-.81.6-.11-.15.83-.57Z"/><path class="cls-1" d="M60.3,106.57l.42-1,.24.14-.69.83Z"/><path class="cls-1" d="M45.65,79.16l-.44,1L45,80l.63-.84Z"/><path class="cls-1" d="M45.6,79.13l.43-.92a.74.74,0,0,1-.38,1Z"/><path class="cls-1" d="M59.16,79a.84.84,0,0,1,0,.34,3.89,3.89,0,0,1-.25.5s-.08-.07-.07-.09q.08-.33.18-.66S59.1,79,59.16,79Z"/><path class="cls-1" d="M59.68,107.6l-.41,1c-.1-.44-.07-.82.44-.93Z"/><path class="cls-1" d="M60.27,106.55l-.59,1,0,0a.9.9,0,0,1,.59-1.05Z"/><path class="cls-1" d="M103.71,94.86C99.06,90,93.38,86.46,87.27,83.22,90.51,83.29,101.58,91.18,103.71,94.86Z"/><path class="cls-1" d="M70.77,79.44c.23,0,.48-.17.63-.09a1.56,1.56,0,0,1,.6.57,19.53,19.53,0,0,1,2.53,5.68C73.43,85.13,71.69,82.23,70.77,79.44Z"/><path class="cls-1" d="M110.61,83.44a69.4,69.4,0,0,0-10.67-1.29A18.68,18.68,0,0,1,110.61,83.44Z"/><path class="cls-1" d="M76.54,90.68c1.64,2.3,4.43,12,4.48,15.11-.64-2.46-1.24-5-2-7.56S77.38,93.2,76.54,90.68Z"/><path class="cls-1" d="M119.64,101.81c.41.36.81.74,1.24,1.08a12.74,12.74,0,0,1,1.74,1.48l-9-5.42,0-.09a4.84,4.84,0,0,1,.84.27c1.31.69,2.6,1.41,3.91,2.11.41.22.85.4,1.28.59Z"/><path class="cls-1" d="M108.17,80.69c-2.74.25-6.06,0-7-.61A23.52,23.52,0,0,1,108.17,80.69Z"/><path class="cls-1" d="M71.64,97.35a43.66,43.66,0,0,1,.82,11Q72.06,102.85,71.64,97.35Z"/><path class="cls-1" d="M120.76,107.23c-2.49-1.64-5.12-3-7.46-4.87A39.71,39.71,0,0,1,120.76,107.23Z"/><path class="cls-1" d="M80.84,88c2.43,2.06,3.93,4.8,5.41,7.57-.86-1.26-1.69-2.54-2.58-3.78S81.78,89.27,80.84,88Z"/><path class="cls-1" d="M94.06,108.34a1.82,1.82,0,0,1-.42-.36c-1.44-2.09-2.87-4.19-4.31-6.29a.81.81,0,0,1-.17-.61,1.94,1.94,0,0,1,.26.23c1.44,2.1,2.88,4.19,4.31,6.3a3.65,3.65,0,0,1,.3.76Z"/><path class="cls-1" d="M81.54,101.33l-2-6.28c.54.37.54.38,1,1.83.22.76.45,1.52.68,2.27l.63,2.11Z"/><path class="cls-1" d="M87.73,75.6a23.52,23.52,0,0,1,6,1.55l-6-1.26Z"/><path class="cls-1" d="M66.56,114.85a10,10,0,0,1-.26-4.53,1.83,1.83,0,0,1,.28,1.35c0,.55,0,1.11.07,1.67s.12,1,.17,1.49Z"/><path class="cls-1" d="M80.07,77.18c-1.11-.39-2.22-.77-3.32-1.18-.07,0-.08-.18-.17-.4A6.46,6.46,0,0,1,80.18,77Z"/><path class="cls-1" d="M70.56,100.8a24.58,24.58,0,0,1,0,6.12l-.24-6.11Z"/><path class="cls-1" d="M97,86.38a9.94,9.94,0,0,1-4-2.67l4,2.6Z"/><path class="cls-1" d="M89.45,89.62l2.79,2.9A5.73,5.73,0,0,1,89.45,89.62Z"/><path class="cls-1" d="M73.2,80.74c1.17.18,1.58.78,1.75,2.35Z"/><path class="cls-1" d="M88.42,89.78l2.83,2.84A7.36,7.36,0,0,1,88.42,89.78Z"/><path class="cls-1" d="M119.64,101.81l0,0-.55-.53.13-.18,2.68,1.59C121,102.75,120.39,102.14,119.64,101.81Z"/><path class="cls-1" d="M91.91,75.72l-3.17-.66.07-.28,3.16.68Z"/><path class="cls-1" d="M69.3,102.32l-.37,3.47A5.6,5.6,0,0,1,69.3,102.32Z"/><path class="cls-1" d="M91.86,102.93,93,104.28a2.46,2.46,0,0,1-1.14-1.38Z"/><path class="cls-1" d="M97.05,86.31l1,.46-.13.22L97,86.38Z"/><path class="cls-1" d="M91.88,102.9l-.55-.87a.71.71,0,0,1,.53.9Z"/><path class="cls-1" d="M94,108.37l.61.8c-.41-.14-.66-.39-.58-.83Z"/><path class="cls-1" d="M118.31,104.37l.69.41,0,.13-.78-.37Z"/><path class="cls-1" d="M60,60.25a3.64,3.64,0,0,1-.41-.72c-.14-.58-.26-1.16-.36-1.75q-.87-5.06-1.73-10.11a1.27,1.27,0,0,1,0-.67,54.51,54.51,0,0,1,2.77,12.49C60.29,59.68,60.13,59.88,60,60.25Z"/><path class="cls-1" d="M54.1,48.42a9,9,0,0,1-2.41-2c-.8-.65-1.54-1.37-2.32-2.05S47.81,43,47,42.39s-1.64-1.26-2.57-2C46.16,40.66,53.22,46.52,54.1,48.42Z"/><path class="cls-1" d="M55.3,12.38c1.34,1.7,3.14,7.91,3.06,10.29Z"/><path class="cls-1" d="M50.27,21.52a66.47,66.47,0,0,1-3.78-9.83A10.35,10.35,0,0,1,48,14.8c.43,1.11.8,2.24,1.18,3.37S49.89,20.4,50.27,21.52Z"/><path class="cls-1" d="M27.36,43.9A87.77,87.77,0,0,1,16.44,42,68.33,68.33,0,0,1,27.36,43.9Z"/><path class="cls-1" d="M46.87,53.32l6.64,2.58c-.25.2-.41.44-.54.43A3.72,3.72,0,0,1,51.83,56c-1.69-.79-3.37-1.6-5-2.4Z"/><path class="cls-1" d="M17.52,19l8.39,6.58c-1-.26-6.29-4.27-8.56-6.37Z"/><path class="cls-1" d="M49.19,33a1.34,1.34,0,0,1-.34-.28l-5.67-8.58A2.3,2.3,0,0,1,42.79,23c.16.2.34.39.48.6,1.79,2.73,3.59,5.46,5.37,8.2A8.78,8.78,0,0,1,49.18,33Z"/><path class="cls-1" d="M53,50.24a15,15,0,0,1,4.14,6,.18.18,0,0,1-.08.07s-.09,0-.11,0a.46.46,0,0,1-.18-.16C55.49,54.18,54.24,52.21,53,50.24Z"/><path class="cls-1" d="M32.25,25.53c1.3.29,6.6,4.26,7.41,5.38Z"/><path class="cls-1" d="M57.91,40.15c1,3.47,2.48,6.63,3.26,10C60.51,49.33,57.94,41.39,57.91,40.15Z"/><path class="cls-1" d="M60.15,53.26a14.46,14.46,0,0,1,.83,6c-.57-.1-.52-.45-.53-.74C60.34,56.74,60.25,55,60.15,53.26Z"/><path class="cls-1" d="M58.19,13.91a14.42,14.42,0,0,1,1,6.55L57.91,14Z"/><path class="cls-1" d="M33.12,12.72l.94,1.59A16.23,16.23,0,0,1,30,10.23L32.34,12C32.27,12.56,32.81,12.53,33.12,12.72Z"/><path class="cls-1" d="M25.27,42.44a24.94,24.94,0,0,1-6.52-.94C19.52,41.28,23.51,41.86,25.27,42.44Z"/><path class="cls-1" d="M54.06,46.51c-.07,0-.17.05-.2,0L49.7,42.11A13.8,13.8,0,0,1,54.06,46.51Z"/><path class="cls-1" d="M34.67,25.62a22,22,0,0,1,5.16,4.25l-5.34-4Z"/><path class="cls-1" d="M61.34,48.65,59.8,41.87C60.5,42.57,61.45,46.72,61.34,48.65Z"/><path class="cls-1" d="M23,15.53l4.42,3.67A13.41,13.41,0,0,1,23,15.53Z"/><path class="cls-1" d="M33.26,50.73c2,0,4.08-.33,6.1.26l-6.08,0Z"/><path class="cls-1" d="M16.68,23,12,19.81s0-.12-.17-.4A21.08,21.08,0,0,1,16.68,23Z"/><path class="cls-1" d="M60.41,29.11l.43,3.59.41,3.54-.19,0-.83-7.12Z"/><path class="cls-1" d="M63.47,51.71a7.34,7.34,0,0,1,.09.82c0,1.45,0,2.91,0,4.51-.42-.6-.43-.6-.37-2.62,0-.9.1-1.81.16-2.71Z"/><path class="cls-1" d="M62.29,54.25a8,8,0,0,1-.07,4.38A10.66,10.66,0,0,1,62.29,54.25Z"/><path class="cls-1" d="M36.17,15.11c-1.12-1.28-2.25-2.56-3.37-3.85,0,0,0-.14,0-.42A21.52,21.52,0,0,1,36.17,15.11Z"/><path class="cls-1" d="M56.68,52.31a10.7,10.7,0,0,1,1.7,3.93C57.79,55.79,57.1,54.19,56.68,52.31Z"/><path class="cls-1" d="M56.75,9.3,55.14,4.74A7.84,7.84,0,0,1,56.75,9.3Z"/><path class="cls-1" d="M45.62,13.13a12,12,0,0,1,1.31,4.23L45.36,13.2Z"/><path class="cls-1" d="M51.66,54.27c-1.49,0-2.51-1-3.59-1.84Z"/><path class="cls-1" d="M48.47,30.52l-2.25-3.69.24-.14A13.88,13.88,0,0,1,48.47,30.52Z"/><path class="cls-1" d="M49.18,33a12,12,0,0,1,1.89,3.29l-.22.11L49.19,33Z"/><path class="cls-1" d="M58.84,30.71,59,34.33A6.65,6.65,0,0,1,58.84,30.71Z"/><path class="cls-1" d="M35.44,49.45a3.52,3.52,0,0,1,2.91.19Z"/><path class="cls-1" d="M10.94,42.81a4,4,0,0,1-1.53-2.26L11,42.73Z"/><path class="cls-1" d="M49.21,57.34H46.64v-.18c.4,0,.81,0,1.21,0s.94,0,1.41-.05Z"/><path class="cls-1" d="M15.73,21.25,14.2,20.2l.16-.22,1.51,1.07Z"/><path class="cls-1" d="M26.19,17.36,25,16.55a2.23,2.23,0,0,1,1.36.62Z"/><path class="cls-1" d="M11,42.73l1.18.89a1.56,1.56,0,0,1-1.25-.81Z"/><path class="cls-1" d="M40.16,53.3l-1.24-.41.13-.27,1.09.71Z"/><path class="cls-1" d="M33.12,12.72c-.31-.19-.85-.16-.78-.75C32.88,11.94,33,12.3,33.12,12.72Z"/><path class="cls-1" d="M40.14,53.33l1,.37-.14.24-.81-.64Z"/><path class="cls-1" d="M44.36,56.22l.76.44-.07.13-.83-.37Z"/><path class="cls-1" d="M73,53.54c0-.08,0-.18,0-.23a82.75,82.75,0,0,0,6.82-11.6,37.94,37.94,0,0,1-5.78,11.15,7.76,7.76,0,0,1-.86.86Z"/><path class="cls-1" d="M106.39,33.67l.76-.24a.89.89,0,0,1,.17.09c-.16.84.8,1.25.76,2a1,1,0,0,1-.69.89.94.94,0,0,1-1.16-.4,5.81,5.81,0,0,1-.45-1.19c-.39,0-1,.19-1.24-.45a1.3,1.3,0,0,1,.67-1.58Z"/><path class="cls-1" d="M104.28,41.17c1.23.94,1.37,2.07.37,2.95a1.38,1.38,0,0,1-1.76.14,1.21,1.21,0,0,1-.35-1.59c.33-.8.74-1.51,1.78-1.48Z"/><path class="cls-1" d="M104.32,41.19c-.94-1-.89-1.59.18-2.43a7,7,0,0,0,.7-.73c1,.28,1.59.92,1.49,1.78A1.67,1.67,0,0,1,105,41.2a5.7,5.7,0,0,1-.71,0Zm1.29-1.66-.27-.27-.49.54.2.2Z"/><path class="cls-1" d="M94.71,34A2.12,2.12,0,0,1,94,35.89a.94.94,0,0,1-1.59-.51,2.46,2.46,0,0,1,.91-2.32.58.58,0,0,1,.86.08A5.79,5.79,0,0,1,94.71,34Zm-1.32.75.27,0,.08-.71-.18,0Z"/><path class="cls-1" d="M103.11,35.63a2.06,2.06,0,0,1,1.32,1.23,1,1,0,0,1-.2,1.4,1.16,1.16,0,0,1-1.35.13,1.1,1.1,0,0,1-.57-1.31A10.45,10.45,0,0,1,103.11,35.63Z"/><path class="cls-1" d="M90.81,23.65c-.54,2.78-2.13,5.06-3.56,7.56C87.31,30.2,90,24.41,90.81,23.65Z"/><path class="cls-1" d="M70.31,50.89c0-.12-.13-.24-.11-.34.67-3,1.36-5.94,2-8.77C72.46,44,71.32,49.63,70.31,50.89Z"/><path class="cls-1" d="M71.25,8.75c.48,1.88.06,3.79.24,5.89A8.83,8.83,0,0,1,71.25,8.75Z"/><path class="cls-1" d="M83.48,45.59a.78.78,0,0,1,0-.34c1.15-2.39,2.32-4.78,3.49-7.17.15-.3.37-.56.6-.92,0,.19.09.28.07.32-1.29,2.6-2.57,5.2-3.87,7.79-.06.12-.22.2-.33.3Z"/><path class="cls-1" d="M68,35a47.42,47.42,0,0,1,.1-9.53h.26Z"/><path class="cls-1" d="M74.15,54.39c0-.07-.08-.17-.05-.21l4.33-6.49C78.28,48.86,75.15,53.73,74.15,54.39Z"/><path class="cls-1" d="M67.17,50.12c-.06-.12-.19-.25-.18-.36.12-2.09.26-4.18.52-6.26a32.25,32.25,0,0,1-.1,6.59Z"/><path class="cls-1" d="M89.34,58l5.81-4.18C94.61,54.89,90.88,57.59,89.34,58Z"/><path class="cls-1" d="M89.08,29.76c.61-1.15,1.21-2.3,1.84-3.44a9.85,9.85,0,0,1,.72-1C91.72,26.28,90.49,28.58,89.08,29.76Z"/><path class="cls-1" d="M106.94,13.86c-.94,1.91-1.87,3.81-2.76,5.64C104.15,18.45,105.56,15.29,106.94,13.86Z"/><path class="cls-1" d="M87.26,40.43a19.29,19.29,0,0,1-3.37,6.39Z"/><path class="cls-1" d="M73.82,34.13c.31-2.35.61-4.69,1-7.25C75.08,28,74.72,31,73.82,34.13Z"/><path class="cls-1" d="M73.15,45.84A12.47,12.47,0,0,1,71.61,51,22.24,22.24,0,0,1,73.15,45.84Z"/><path class="cls-1" d="M75,34.73a17.57,17.57,0,0,1,1.06-6.5Z"/><path class="cls-1" d="M81.48,10.79c-.23,1.43-.45,2.87-.7,4.42A7.44,7.44,0,0,1,81.48,10.79Z"/><path class="cls-1" d="M69.56,28.13,69,33A10.31,10.31,0,0,1,69.56,28.13Z"/><path class="cls-1" d="M113.16,30a13.18,13.18,0,0,1,2.75-2.83,8.39,8.39,0,0,1-2.64,2.91Z"/><path class="cls-1" d="M108.06,43.17l-2.53,3.39a8.33,8.33,0,0,1,2.33-3.51Z"/><path class="cls-1" d="M90.27,55.82a7.77,7.77,0,0,1,3.27-2.36,2.5,2.5,0,0,1-.31.34C92.25,54.48,91.26,55.15,90.27,55.82Z"/><path class="cls-1" d="M66.37,18.42a13.92,13.92,0,0,1,.19-4.94c0,.61,0,1.23,0,1.85,0,.91,0,1.82,0,2.72,0,.12-.14.23-.21.35Z"/><path class="cls-1" d="M67.62,15.73c0,1.39-.07,2.77-.1,4.16H67.3l0-4.17Z"/><path class="cls-1" d="M76.21,53.81l1.91-2.47A9.79,9.79,0,0,1,76.48,54Z"/><path class="cls-1" d="M68.36,49.43l.45-3A3.57,3.57,0,0,1,68.36,49.43Z"/><path class="cls-1" d="M78.6,52.81l-1.46,1.8-.08-.06,1.5-1.81Z"/><path class="cls-1" d="M81.49,61.72l1.74-1.46.18.24a6.14,6.14,0,0,1-1.94,1.2Z"/><path class="cls-1" d="M82.06,13l-.32,2A2.15,2.15,0,0,1,82.06,13Z"/><path class="cls-1" d="M81.47,61.7,80,63a2.1,2.1,0,0,1,1.46-1.23Z"/><path class="cls-1" d="M83.66,47.49l-.76.93-.11-.08.69-1Z"/><path class="cls-1" d="M106.41,24.11l-1.28.27c.33-.54.85-.33,1.24-.62Z"/><path class="cls-1" d="M66.34,18.4l.22,1.31-.23,0,0-1.31Z"/><path class="cls-1" d="M73.92,57.34l.51-.72.11.07c-.14.24-.28.48-.43.72a.08.08,0,0,1-.08,0S74,57.39,73.92,57.34Z"/><path class="cls-1" d="M83.45,45.57l-.38.94c-.06-.4,0-.75.41-.92Z"/><path class="cls-1" d="M113.27,30.1l-.67.74-.16-.16.72-.66Z"/><path class="cls-1" d="M107,57.75a6.88,6.88,0,0,1,.82-.8,8.22,8.22,0,0,1,1.53-.93c2.71-1.18,5.43-2.32,8.17-3.46a2.9,2.9,0,0,1,1.34-.17,4.56,4.56,0,0,1-.59.42l-7,3.22c-1.2.56-2.38,1.13-3.58,1.68a4.39,4.39,0,0,1-.61.21Z"/><path class="cls-1" d="M108.28,66.7a1.85,1.85,0,0,1,1.67-.81c1.12-.11,2.24-.14,3.36-.21l7.07-.47a4.2,4.2,0,0,1-.86.36c-2.15.27-4.3.54-6.45.77-1.4.15-2.8.23-4.2.35Z"/><path class="cls-1" d="M88.91,67.61,78.59,70.75C79.78,69.62,82.86,68.66,88.91,67.61Z"/><path class="cls-1" d="M97.06,58.3a51.49,51.49,0,0,0,9.81-8C106.1,52.3,100.16,57.13,97.06,58.3Z"/><path class="cls-1" d="M137.36,61.31l-5.51,0a29,29,0,0,1-3.95-.1c.77-.06,1.55-.15,2.32-.17,2.24,0,4.48,0,6.72-.06.14,0,.28.2.41.3Z"/><path class="cls-1" d="M109,54.53a11.92,11.92,0,0,1,5.29-2.61l-5.16,2.81Z"/><path class="cls-1" d="M121.54,74.25a7.87,7.87,0,0,1,5.45.86Z"/><path class="cls-1" d="M100.85,57.48a17.87,17.87,0,0,1,4.9-3.39A22,22,0,0,1,100.85,57.48Z"/><path class="cls-1" d="M93.09,66.58l5.74-1.45.07.26c-1.91.55-3.8,1.16-5.74,1.57Z"/><path class="cls-1" d="M111.56,64.37a8.76,8.76,0,0,1,5.26-.79c-.57.09-1.14.16-1.71.26s-1.16.29-1.75.38S112.19,64.68,111.56,64.37Z"/><path class="cls-1" d="M120.75,42.24c-.45.78-1.14,1.07-4,1.7A9.54,9.54,0,0,1,120.75,42.24Z"/><path class="cls-1" d="M128.5,62.86l6.94-.24v.21l-6.94.33Z"/><path class="cls-1" d="M83.54,66.71a27.81,27.81,0,0,1-4,1.6l-.09-.23,4-1.62Z"/><path class="cls-1" d="M97.45,64.18a9.06,9.06,0,0,1-3.79,1.56A17.46,17.46,0,0,1,97.45,64.18Z"/><path class="cls-1" d="M121.53,72.87a5,5,0,0,1,3.07.4l-3.11-.15Z"/><path class="cls-1" d="M137.35,61.31l1-.27,0,.15-1,.12Z"/><path class="cls-1" d="M68.56,67.79,64.81,72.7c0,.06-.21,0-.32.06.12-.8,2.17-3.5,3.88-5.11Z"/><path class="cls-1" d="M74.18,63.64,71,67.05l-.2-.19,3.17-3.45Z"/><path class="cls-1" d="M64.34,68.39a7.32,7.32,0,0,1-3.43,2.5A15.29,15.29,0,0,1,64.34,68.39Z"/><path class="cls-1" d="M63.6,70.19l-2,1.66c0-.66,0-.67.72-1.17.37-.26.77-.46,1.15-.69Z"/><path class="cls-1" d="M66.62,71.59l-1.25,2c-.06-1,.63-1.5,1-2.21Z"/><path class="cls-1" d="M63.69,71l-1.46,1.54C62.39,71.63,62.41,71.6,63.69,71Z"/><path class="cls-1" d="M67,72.47l-.56,1-.28-.16.61-.94Z"/><path class="cls-1" d="M77.9,58.26l-.65.83-.19-.2.86-.6Z"/><path class="cls-1" d="M79.66,58.12l.66-.57.12.15-.67.54Z"/><path class="cls-1" d="M77.92,58.29l.63-.82.19.19-.84.6Z"/><path class="cls-1" d="M102.81,30.54l-.29,1.06-.23-.08.55-1Z"/></g></g></svg>