<svg xmlns="http://www.w3.org/2000/svg" viewBox="0 0 101.53 223.18"><defs><style>.cls-1{fill:#dbdbdb;}</style></defs><g id="Layer_2" data-name="Layer 2"><g id="OBJECTS"><path class="cls-1" d="M97.35,71.68c-1.47-2.43-2.8-5-4-7.5a17,17,0,0,1-1.6-7.28c0-1.87.27-3.75.2-5.61-.19-5.08-.41-10.17-.79-15.24-.3-4.11-.86-8.2-1.26-12.3a59.68,59.68,0,0,0-3.11-13.51,9.57,9.57,0,0,1-.44-2.06c-.08-.84,0-1.69-.07-2.53a29.93,29.93,0,0,0-.46-3.29c-.15-.8-.45-1.57-.68-2.36a2.17,2.17,0,0,0-.58.91,26.87,26.87,0,0,1-2.27,5.3,34.5,34.5,0,0,1-5.09,6.62c-4.45,4.52-9,9-13.34,13.55s-8.61,9.18-13.54,13.14c-.13.16-.25.34-.39.48a4.92,4.92,0,0,1-1.84,1.14,4.16,4.16,0,0,1-.94,1.23,54.15,54.15,0,0,0-9.31,10.8c-1.68,2.77-3,5.72-4.57,8.59a3.39,3.39,0,0,1-.65.67c-.34.88-.66,1.86-1.09,2.8-.61,1.32-1.31,2.59-1.94,3.9a11.29,11.29,0,0,1-3.86,4.48,13.53,13.53,0,0,0-2.61,2.2,28.35,28.35,0,0,0-5.85,10.52c-.68,2.47-1.35,4.94-2,7.4a30.81,30.81,0,0,0-1.08,8.43,20.59,20.59,0,0,1-2.84,11.49,18.75,18.75,0,0,0-2.6,9.95c0,3-.24,6-.23,9,0,3.69-1.92,6.51-3.93,9.33a14.21,14.21,0,0,0-2.12,3.55,39.88,39.88,0,0,0-1.47,6.29c-.59,3.77-1,7.59-.07,11.35a16.47,16.47,0,0,1,.1,7.09c-.26,1.34-.44,2.69-.64,4A17.46,17.46,0,0,0,.56,182c.84,2.8,1.74,5.59,2.8,8.32,1.73,4.42,3.69,8.75,5.39,13.18a34.06,34.06,0,0,0,7,11.14,15.18,15.18,0,0,0,2.39,2.07,5.92,5.92,0,0,0,5.24.88l3.52-1c-.36,1.27-.73,2.43-1,3.61s.06,2.27.79,2.49a15.07,15.07,0,0,0,3,.43c.14,0,.42-.27.46-.45.38-2,.73-4,1.12-6.16.66.22,1.25.41,1.83.62a13.6,13.6,0,0,0,2.25.84c2.32.44,4.66.82,7,1.12a18.85,18.85,0,0,0,6.53,0,82.67,82.67,0,0,0,10.18-2.76,17.72,17.72,0,0,0,5.35-2.43,28.76,28.76,0,0,0,9.28-13.28c.55-1.61,1.15-3.21,1.68-4.83a15.57,15.57,0,0,1,4.36-6.74c.67-.63,1.3-1.29,2-1.88a8.54,8.54,0,0,0,2.94-4.7c.51-2.38,1-4.78,1.36-7.19.54-3.73.57-7.52,1.58-11.2,1.28-4.62,2.61-9.18,5.18-13.31a18.4,18.4,0,0,0,1.63-3.65c1.93-5.42,1.9-11,1.06-16.59-.42-2.86-1-5.71-1.31-8.59-.55-6.13.73-12,2.6-17.84,1.18-3.68,2.41-7.35,3.56-11C102.72,85.5,101.42,78.42,97.35,71.68ZM92,66.44,87.18,70.9l.22.27,5-3.91c.45.89.94,1.78,1.33,2.7.08.2-.16.62-.38.82-2.24,2-4.53,4-6.78,6-2.56,2.31-5.1,4.64-7.66,7a1.55,1.55,0,0,1-.39.18l.34.33c5.44-4,10.6-8.35,15.71-12.9l1,1.6c-4.3,5.78-9.74,10.34-15.32,14.75,5.92-3.86,11.62-8,15.74-13.84,1,1,1.06,1.56.17,2.8a85.89,85.89,0,0,1-9,10.09c-.53.53-1.08,1-1.71,1.65,1.64-.23,9.08-7.85,11.9-12.12.45,1.35.86,2.57,1.24,3.79a.66.66,0,0,1-.15.53,51.47,51.47,0,0,1-6.7,6.83c-6.29,4.9-12.57,9.77-19.61,13.63a66.37,66.37,0,0,0-16.93,13.41l-.58.61c.19-1.11.34-2,.5-2.85,0-.08.12-.16.11-.22-.27-1.46.87-2.1,1.7-2.92l4.77-4.67c.14-.14.31-.25.33-.51a44.58,44.58,0,0,0-6.33,5.2,3.24,3.24,0,0,1,1-2.5c3.19-2.71,6.35-5.46,9.51-8.2a1.21,1.21,0,0,0,.39-.52c-3.65,2.16-6.78,5-10.18,7.61a14.76,14.76,0,0,0,.69-1.65c.67-2.14,2.7-2.94,4.23-4.2,3.29-2.72,6.68-5.32,10-8,.19-.15.36-.32.54-.48l-.2-.25-14,10.2-.18-.09a4.42,4.42,0,0,1,.73-1.12q7-5.89,13.94-11.74l.66-.55-.15-.2a51.69,51.69,0,0,0-7.47,5.12c-2.4,1.9-4.72,3.87-7.12,5.86A3.8,3.8,0,0,1,59,95.87a59.14,59.14,0,0,1,10.07-8.61c2.08-1.5,4.22-2.9,6.34-4.35l.5-.38-.14-.26c-1.14.59-2.3,1.16-3.43,1.79S70,85.41,68.83,86.15s-2.24,1.48-3.32,2.28S63.33,90.1,62.29,91s-2,1.79-3.11,2.79a7.5,7.5,0,0,1,1.56-3.64A67.46,67.46,0,0,1,70.83,80.9,137.12,137.12,0,0,0,86.05,68.41c1.66-1.58,3-3.44,4.55-5.17C91,64.18,91.48,65.28,92,66.44Zm-3.1-33c.19,3.32.4,6.64.54,10a1.75,1.75,0,0,1-.65,1.1c-2.61,2.29-5.26,4.55-7.89,6.83l-.53.46.15.19a53,53,0,0,0,9-6.94,2,2,0,0,1-.65,2.53c-2.56,2-5.07,4-7.6,6.09-.25.2-.52.4-.78.59l.16.24c1-.64,2-1.26,3-1.94s2.11-1.46,3.12-2.25,1.92-1.58,3-2.43c.21,1.27.25,2.31-.91,3.21-2.69,2.1-5.28,4.33-7.91,6.5a1.13,1.13,0,0,0-.41.52,64.63,64.63,0,0,0,9.2-6.88c.22,1.1.13,1.41-.63,2.07l-11.46,10a1.39,1.39,0,0,0-.41.58A134.49,134.49,0,0,0,89.68,53.55c-.15,1.56.17,2.83-1.22,4-3.92,3.21-7.67,6.62-11.49,9.95,0,0,0,.1,0,.25A153.84,153.84,0,0,0,89.5,57.39c.21,1.23.41,2.36.59,3.5a.73.73,0,0,1-.14.46,33.06,33.06,0,0,1-5.74,6.75c-4.93,4.44-10.11,8.56-15.44,12.52A83.33,83.33,0,0,0,62,86.87l-.73.73c.57-2,1-3.87,1.59-5.69.09-.29.43-.51.65-.76l5.74-6.56c.08-.09.1-.22,0-.43l-5.57,6-.23-.18c.78-2.51,1.25-5.12,3.46-7,1.92-1.63,3.67-3.47,5.45-5.27-2.58,1.39-4.5,3.57-6.57,5.57l-.24-.12a9.59,9.59,0,0,1,1.21-2.56C68.39,68.71,70.21,67,72,65.28A.3.3,0,0,0,72,65c-2,1.09-3.41,2.75-5.21,4.42A5.2,5.2,0,0,1,68,66.78c1.87-1.67,3.69-3.38,5.53-5.09a6.41,6.41,0,0,0,.49-.55l-.18-.2L68.1,65.78l-.13,0a7,7,0,0,1,.75-1.21c2.65-2.74,5.33-5.46,8-8.19a.6.6,0,0,0,.21-.39c-2.94,1.79-5.24,4.29-7.65,6.71.55-1.34.84-2.75,1.94-3.87,2.62-2.63,5.13-5.36,7.68-8.05a.41.41,0,0,0,.11-.37c-2.85,1.71-5,4.25-7.3,6.52l-.25-.12c.74-2.13,1.47-4.26,2.24-6.39.09-.25.41-.46.67-.63A51,51,0,0,0,86.22,38a37.18,37.18,0,0,0,2.6-4.67A.21.21,0,0,1,88.87,33.43ZM84.58,9.28c.78,2.92,1.58,5.84,2.33,8.77a1.25,1.25,0,0,1-.25.92c-.82,1.16-1.7,2.28-2.67,3.57a15.81,15.81,0,0,0,3.09-2.94,1.81,1.81,0,0,1-.16,2.48c-.84,1-1.67,2-2.5,3a3.35,3.35,0,0,0-.27.45l.2.17,3.21-3.45c.75,1.34-.14,2.25-.84,3.2l.19.15,1-.82q.39,3.25.76,6.29c-.28.18-.6.25-.69.44-2.66,5.47-6.7,9.87-11,14.08-.61.59-1.24,1.17-2,1.84a1.6,1.6,0,0,1,0-.41c.65-1.94,1.3-3.88,2-5.81a3,3,0,0,1,.55-.94,63.38,63.38,0,0,0,7-9.52c0-.06,0-.15-.12-.36l-6.33,7.89c.48-1.85.57-3.78,2.07-5.26a47.08,47.08,0,0,0,3.52-4.3,5.7,5.7,0,0,0,.52-.9l-.22-.16-4.29,4.64a7.27,7.27,0,0,1,1-3.52c.74-1,1.46-2,2.19-3l-.24-.2L80.69,28c1.26-6.3,2.5-12.47,3.73-18.64Zm-19,18c2.16-2.27,4.34-4.53,6.6-6.87.6,1.53.56,3.18,1.73,4.39-.26-1.16-.5-2.32-.79-3.48-.36-1.47-.29-1.73,1-2.66.51,1.85.6,3.84,2,5.35-.22-.84-.46-1.68-.65-2.53a25.12,25.12,0,0,1-.59-3.09c0-.39.31-.83.62-1.21.41,1.65.64,3.27,1.92,4.54-.15-.74-.29-1.48-.47-2.22-.7-2.94-.69-2.92,1.35-5.11,1.28-1.37,2.51-2.79,4-4.15L76.86,35l-.35,0q-.83-3.48-1.63-7l-.28,0c.07.54.1,1.08.2,1.61.41,2.17.92,4.33,1.22,6.52a10.22,10.22,0,0,1-.38,2.7l-.23-.07q-1.09-4.71-2.2-9.42l-.29.06a4.16,4.16,0,0,0,0,.61c.67,3.48,1.42,7,2,10.46.14.92-.44,2-.68,2.94l-.27,0L71.76,32.69l-.34,0c.1.8.16,1.59.29,2.38a67.87,67.87,0,0,0,1.5,8.45c.52,1.76-.31,2.89-.74,4.27h-.24Q71,41.27,69.76,34.68l-.23,0a11.29,11.29,0,0,0,0,1.3c.33,4.14.55,8.31,1.81,12.29.46,1.45-.06,2.48-.57,3.89-.58-1.78-1.14-3.34-1.59-4.94C68,43.12,66.76,39,65.83,34.83A45.9,45.9,0,0,1,65.26,28,1,1,0,0,1,65.56,27.3ZM49.3,42.86c.59-.58,1.22-1.11,2-1.79a22.2,22.2,0,0,0,2.17,7l.23-.07c-.3-.91-.64-1.82-.88-2.74-.35-1.35-.65-2.7-.92-4.06-.19-1,.82-1.06,1.34-1.77a14.05,14.05,0,0,0,1.34,6.42l.23,0c0-.31-.07-.61-.11-.92C54.46,43.23,54.2,41.6,54,40a2,2,0,0,1,1.22-2.12q1,3.28,2.06,6.6l.4-.11c-.19-.75-.41-1.5-.58-2.25-.33-1.5-.66-3-1-4.49a1,1,0,0,1,.18-.77c.66-.71,1.37-1.35,2.2-2.15.4,4.28,1.09,8.34,3.17,12l.24-.06c-.23-.79-.52-1.56-.69-2.35-.69-3.24-1.35-6.49-2-9.75a1,1,0,0,1,.19-.77c1.38-1.48,2.79-2.93,4.34-4.55,0,.62,0,1.05,0,1.47a30.28,30.28,0,0,0,1.81,10c1.39,4.41,2.87,8.8,4.3,13.2a1.41,1.41,0,0,1,.06.81c-.58,1.69-1.21,3.36-1.81,5h-.26q-2.34-5-4.7-10.06l-.27.13c1.49,3.56,2.71,7.26,4.8,10.88l-1.39,3.48-4.7-11.53-.24.08c.24.83.42,1.68.72,2.49,1.18,3.16,2.4,6.29,3.58,9.44a1.67,1.67,0,0,1,.09,1c-.26.92-.6,1.82-1,2.94a85.28,85.28,0,0,1-5.71-17.39l-.26,0c.13,1,.18,2.1.39,3.12a62.65,62.65,0,0,0,3.69,12.18,11.65,11.65,0,0,0,.91,1.92A2.51,2.51,0,0,1,64,71.12c-.3.67-.48,1.39-.79,2.31-3-6.6-4.75-13.4-6.52-20.19l-.25.06c.08.65.11,1.31.24,2,.59,2.69,1.12,5.38,1.82,8a51,51,0,0,0,4,11.1.92.92,0,0,1,.13.63c-.54,1.78-1.12,3.54-1.74,5.48-.84-2.15-1.59-4.14-2.38-6.1-2.27-5.57-4.65-11.09-6.82-16.7A46.35,46.35,0,0,1,49,43.52.9.9,0,0,1,49.3,42.86ZM33.69,65.09C34.42,63.52,35.21,62,36,60.3c.32,1.11.6,2.09.87,3.07h.31c-.46-2.26-1.3-4.57.77-6.54.44,1.86.87,3.73,1.31,5.6l.32,0c0-.22,0-.44,0-.65-.26-1.74-.48-3.49-.82-5.22a2.86,2.86,0,0,1,.54-2.39c.39-.51.73-1.07,1.24-1.83.74,4.12,1.14,8.08,2.89,11.69l.24,0c-.16-.74-.36-1.48-.48-2.22q-.87-5.09-1.71-10.17a.77.77,0,0,1,.11-.56c.54-.68,1.11-1.34,1.76-2.1.88,8.23,3,15.91,7.34,22.85l.31-.11c-.12-.26-.23-.52-.36-.77a49.52,49.52,0,0,1-4.28-12.23c-.75-3.41-1.21-6.88-1.75-10.33A1.69,1.69,0,0,1,45,47.1c.81-.94,1.71-1.8,2.73-2.83,0,.87,0,1.52.06,2.16A44.38,44.38,0,0,0,51.62,62q4.26,10,8.49,19.95a1.81,1.81,0,0,1,.12,1.14c-1,3.48-2.15,6.94-3.31,10.66-1.76-4-3.41-7.73-5.07-11.47l-.24.07c.23.8.41,1.61.71,2.39,1.3,3.38,2.64,6.75,4,10.13a1.69,1.69,0,0,1,.13.8,24.93,24.93,0,0,1-.58,2.8C52.57,91,48.06,84,45.24,76.26a11.2,11.2,0,0,0,.34,2.55c1.24,3.23,2.5,6.45,3.91,9.61,1.78,4,3.7,7.94,5.58,11.89a2.28,2.28,0,0,1,.16,1.79c-.38,1.2-.7,2.42-1.09,3.8-.73-1.75-1.34-3.37-2.06-4.92a172.29,172.29,0,0,0-11-19.14A59,59,0,0,1,33.7,66.06,1.47,1.47,0,0,1,33.69,65.09ZM20.94,82.23c1.23-1.87,2.45-3.75,3.8-5.81a85.63,85.63,0,0,0,9.47,16.7l-9-16.89,2.38-1.74c.82,4.22,2.9,7.91,4.86,11.65a25.32,25.32,0,0,0,2.2,3.54,4.18,4.18,0,0,0-.2-.69c-1.63-3.63-3.32-7.25-4.88-10.91a27.28,27.28,0,0,1-1.1-3.91.57.57,0,0,1,.09-.5C30.28,72.09,31.16,70,32.21,68c.08-.15.17-.29.3-.52.43,1.41.77,2.74,1.23,4a56.86,56.86,0,0,0,5.5,11c4.13,6.61,8.37,13.16,11.75,20.2.81,1.69,1.55,3.41,2.24,5.15a3.12,3.12,0,0,1,.14,1.55c-.17,1.28-.44,2.55-.69,3.93l-6.33-9.69-.26.16c.14.25.26.51.41.76,1.77,2.92,3.5,5.88,5.36,8.75a3.5,3.5,0,0,1,.21,3.24,111.8,111.8,0,0,0-8-11.09l-.2.13c.11.2.22.4.34.6q3.45,5.27,6.88,10.54a7.46,7.46,0,0,1,.46,1l.46-.48c-.24,1-.48,1.91-.73,2.88L40.62,105.73l-.2.09a3.49,3.49,0,0,0,.26.66c2.37,3.5,4.73,7,7.11,10.5.93,1.36,1.89,2.7,2.81,4.07a1.13,1.13,0,0,1,.17.78c-.11.6-.31,1.18-.47,1.76L33.67,102.75l-.21.12a4.78,4.78,0,0,0,.38.79c2,2.73,3.92,5.49,5.95,8.18,3.26,4.34,6.58,8.62,9.86,12.94a1.05,1.05,0,0,1,.2.78c-.45,2.19-1,4.38-1.43,6.56h-.18c-.32-1.06-.62-2.12-1-3.17a22.07,22.07,0,0,0-4-6.74c-3.69-4.6-7.49-9.12-11.1-13.78-2.23-2.88-4.25-5.93-6.27-9-1.26-1.89-2.33-3.91-3.5-5.86a19.1,19.1,0,0,1-2.3-7.52A5.39,5.39,0,0,1,20.94,82.23Zm-8.86,34.23c.34-.76.7-1.5,1.07-2.24.81-1.62,1.63-3.23,2.46-4.87,3.12,5,6,10.33,10.66,14.35l.22-.15c-.1-.16-.19-.33-.3-.48-2.47-3.47-5-6.92-7.4-10.4-.93-1.33-1.72-2.75-2.62-4.1a2,2,0,0,1-.35-1.58c.14-.72.17-1.46.26-2.34a66.3,66.3,0,0,0,8,11.44l.21-.14c-.15-.25-.29-.5-.45-.75q-3.54-5.57-7.08-11.13a4.08,4.08,0,0,1-.7-2.72c.18-1.6.25-3.22.39-5.07,1.17,2,2.14,3.73,3.23,5.42s2.23,3.36,3.44,5,2.53,3.15,3.8,4.71l.27-.2c-.15-.21-.29-.43-.45-.63a105.28,105.28,0,0,1-9.56-15c-.13-.24-.31-.55-.25-.78.51-2,1.06-4,1.62-6.14,1.32,5.76,4.54,10.48,7.68,15.2a176.67,176.67,0,0,0,14.45,18.54,32.56,32.56,0,0,1,5.86,9.45,10.85,10.85,0,0,1,.87,6.41,51.38,51.38,0,0,0-.46,6.1c-3.63-2.89-6.48-6.31-9.78-9.27,3,3.49,5.78,7.2,9.72,10.1l-.86,3.67a85.14,85.14,0,0,1-13.6-17.6l-.21.11c.1.25.19.51.31.75a61.73,61.73,0,0,0,12.68,17.07.85.85,0,0,1,.25,1.14,17.32,17.32,0,0,0-.59,2.45C37.05,144.54,30.06,136,26,125.36l-.22,0c.16.66.27,1.34.48,2,2,6.31,5.52,11.8,9.59,17,2.57,3.25,5.46,6.26,8.19,9.39.17.18.36.5.3.7-.49,1.74-1,3.46-1.56,5.16-.85-1.83-1.57-3.71-2.58-5.42a37,37,0,0,0-3.78-5.36C31.34,142.91,26,137.2,21,131.22c-2.84-3.4-5.27-7.14-7.78-10.8A13.44,13.44,0,0,1,12,117.19,1.11,1.11,0,0,1,12.08,116.46ZM5.19,144c1.56-2.1,3-4.26,4.54-6.38a64.16,64.16,0,0,0,13.44,15.76l.24-.21c-.4-.4-.8-.79-1.19-1.19a82.4,82.4,0,0,1-12-15.31,1,1,0,0,1-.19-.61c.13-.86.32-1.72.49-2.62,4,5.38,7.74,10.91,12.62,15.52a.47.47,0,0,0,.49.07c-.26-.29-.55-.55-.79-.85-2.59-3.23-5.2-6.45-7.73-9.72-1.43-1.85-2.68-3.82-4.06-5.69a2.43,2.43,0,0,1-.32-2.31,50.43,50.43,0,0,0,6.53,7.76l.21-.17c-.31-.38-.62-.76-.92-1.15q-2.69-3.56-5.38-7.12a1.49,1.49,0,0,1-.34-.76c0-2.92.11-5.84.18-8.76a2.09,2.09,0,0,1,.11-.43c.63,1.09,1.26,2.14,1.86,3.2a69.06,69.06,0,0,0,9.79,13.12c4,4.31,7.78,8.88,11.78,13.22A36.42,36.42,0,0,1,41,159.19c.4.9.73,1.82,1.08,2.74a.71.71,0,0,1,0,.4c-.71,2.51-1.43,5-2.16,7.59a128.22,128.22,0,0,1-13.5-14.08l-.21.13a7.33,7.33,0,0,0,.39.73,69.47,69.47,0,0,0,8.66,10.18c1.32,1.31,2.68,2.57,4,3.89a1.35,1.35,0,0,1,.33,1c-.11.78-.34,1.54-.58,2.53-4.89-5.24-9.52-10.44-13.08-16.53.09.25.16.5.26.74a44.06,44.06,0,0,0,7.19,10.67c1.62,1.91,3.38,3.7,5,5.56a1.07,1.07,0,0,1,.23.8c-.24,1.11-.55,2.2-.87,3.44-3.23-3.43-6.15-7-9-10.58a47.4,47.4,0,0,1-7.23-11.6l-.28.12c.24.67.47,1.33.73,2A41.28,41.28,0,0,0,28.1,169c2.92,3.64,6,7.15,9,10.72a.87.87,0,0,1,.24.57c-.43,1.82-.88,3.63-1.37,5.61-.19-.36-.31-.55-.39-.75a36,36,0,0,0-7.32-10.54c-3.85-3.9-7.75-7.76-11.53-11.72-2-2.14-4-4.42-5.82-6.72C9.16,154,7.54,151.8,6,149.55a14.59,14.59,0,0,1-1.21-2.44A2.82,2.82,0,0,1,5.19,144Zm24.39,63.41L13,195.58l-.22.3a162.61,162.61,0,0,0,16.72,12.58c-.1.3-.25.81-.43,1.41L18.37,204.8l-.16.23c.79.49,1.58,1,2.38,1.47s1.74,1,2.62,1.45,1.71.9,2.58,1.33,1.81.83,2.78,1.27c-.13.57-.26,1.13-.4,1.78-2.68-.81-5.19-2-8-2.14L27.87,213a7.94,7.94,0,0,1-.31,1.32,1,1,0,0,1-.62.55c-1.45.34-2.9.65-4.37.91a4.6,4.6,0,0,1-4.38-1.68,71.17,71.17,0,0,1-4.7-5.85c-1.9-2.64-2.75-5.78-4.08-8.92l4.1,2.92.16-.21c-1.95-2-4.78-3.23-5.63-6.28l3.43,2.82.22-.21a3.28,3.28,0,0,0-.39-.56c-1.13-1-2.3-2.06-3.39-3.14A5.19,5.19,0,0,1,6.62,193c-1.45-3.89-2.82-7.81-4.19-11.72a3.71,3.71,0,0,1-.14-1.61c.65.77,1.27,1.57,2,2.3,2.42,2.54,4.82,5.09,7.28,7.59a65.09,65.09,0,0,0,9.72,7.85c2.4,1.64,4.56,3.63,6.82,5.46a4.26,4.26,0,0,1,.38.35C29.7,204.37,30.72,205.6,29.58,207.44Zm1.12-3.72c-3.35-4.29-7.8-7.16-12.07-10.3a89.52,89.52,0,0,1-8.13-7.09c-2.1-2-4-4.13-6-6.21-.26-.26-.48-.56-.74-.83A4.68,4.68,0,0,1,2.5,173.8c1.23,1.56,2.37,3.24,4.21,4.27-.09-.14-.16-.29-.26-.42-1-1.29-2-2.62-3.07-3.87a3,3,0,0,1-.44-3.24l4.3,5.06.17-.08a6.54,6.54,0,0,0-.41-.79c-1-1.39-2-2.8-3.13-4.15a2.5,2.5,0,0,1-.68-2.4A7.34,7.34,0,0,0,3.33,167a40,40,0,0,0,7.14,7.1l.19-.18c-.47-.5-1-1-1.41-1.49-1.91-2.18-3.85-4.35-5.69-6.6a4.65,4.65,0,0,1-.6-2c-.29-1.43-.52-2.88-.67-4.35,4.87,5.86,9.87,11.52,16,16.12l.2-.2c-.43-.41-.86-.82-1.3-1.22A151.66,151.66,0,0,1,4.59,160.76a18,18,0,0,0-1.39-1.62,2.66,2.66,0,0,1-.89-2.5c.36-2.7.65-5.4,1-8.1h.25c.36.74.67,1.51,1.08,2.21a66.75,66.75,0,0,0,8.27,10.87c3.48,3.81,7.24,7.37,10.84,11.07,2.75,2.82,5.71,5.46,7.89,8.77,1.26,1.92,2.32,4,3.48,6,.6,1-.07,1.92-.18,2.94l-7.13-6.87c.18.95,4.76,5.92,6.87,7.67l-1,3c-2.13-2.11-4.22-4-6.13-6.13s-3.64-4.32-5.56-6.47c.13.26.26.53.4.79a51.79,51.79,0,0,0,8.82,10.71,16.72,16.72,0,0,0,1.7,1.56c.67.52.46,1,.08,1.54a8.91,8.91,0,0,1-.88.87L17.34,182.88l-.21.15a5.53,5.53,0,0,0,.48.68c3,3.24,5.91,6.48,8.91,9.69,1.65,1.77,3.37,3.48,5.07,5.21a1,1,0,0,1,.23,1.14C31.41,201,31.08,202.36,30.7,203.72Zm52-22.62c0,.15-.18.28-.3.39a151.85,151.85,0,0,1-16.47,11.8c-2,1.27-4,2.52-6,3.78a1.77,1.77,0,0,0-.62.54,85.26,85.26,0,0,0,11.88-6.74,66.61,66.61,0,0,0,11-8.4,5.94,5.94,0,0,1-1.81,2.83c-1.34,1.29-2.68,2.57-3.94,3.93-.7.78-1.21,1.72-1.85,2.56a6.26,6.26,0,0,1-1.4,1.54c-3.14,2-6.32,4-9.49,6a2,2,0,0,0-.63.54A88.61,88.61,0,0,0,73.5,194s.1.11.09.14c-1.39,3.44-2.15,7.13-4.1,10.37a30.25,30.25,0,0,1-6.36,7.66,6.87,6.87,0,0,1-2.25,1.2c-3.21,1.06-6.43,2.1-9.67,3-1.56.45-3.19.67-4.79,1a1.31,1.31,0,0,1-.34,0c-2-.23-4-.48-6-.68a22.12,22.12,0,0,1-7.19-1.9,8.66,8.66,0,0,0-1.56-.38l9.29-2.73-.09-.3-8.83,2.26a1.28,1.28,0,0,1,.85-1.53l6.79-2.48a.39.39,0,0,0,.25-.24,18,18,0,0,0-7.51,2.22c-.18-.63.21-.85.69-1l8.94-3.12a.31.31,0,0,0,.19-.21c-3.37.2-6.4,1.62-9.53,2.72a1.48,1.48,0,0,1,1-1.85,88.1,88.1,0,0,1,14-5.82,1.69,1.69,0,0,0,.73-.44c-5.4,1.07-10.35,3.35-15.33,5.79a4.28,4.28,0,0,1,1.43-3,49.51,49.51,0,0,1,14.95-9.4c3.74-1.56,7.62-2.81,11.32-4.48a75.33,75.33,0,0,0,20-13.29,25.58,25.58,0,0,0,3-4c.16-.22.28-.46.42-.69l.33.09C83.72,175.65,83.23,178.38,82.71,181.1Zm6.65-28.47c-.94,2.47-1.91,4.92-2.79,7.41a4.14,4.14,0,0,1-1.18,1.81,121,121,0,0,1-16.56,11.66c-3.54,2.17-7,4.41-10.57,6.62a1.84,1.84,0,0,0-.63.64c9.56-5.7,19.62-10.61,28.13-18.18-.33,1.34-.6,2.55-.93,3.74-.06.22-.31.39-.51.55C76.86,172.7,69,178,61.14,183.2a1.67,1.67,0,0,0-.56.59,206.78,206.78,0,0,0,24-16.25c-.12,1.08-.21,2.05-.34,3,0,.17-.19.33-.32.47-.91.94-1.91,1.8-2.73,2.81a39.77,39.77,0,0,1-7.48,6.65A79,79,0,0,1,52.58,191.8a52.64,52.64,0,0,0-15.78,8.54c-.93.75-1.81,1.55-2.87,2.47.39-1.82.73-3.45,1.12-5.06.05-.21.33-.38.54-.52,1.09-.72,2.19-1.43,3.29-2.14.24-.16.45-.35.68-.53l-.13-.19-4.15,2.47a3.09,3.09,0,0,1,1.62-2.73c3.39-2,6.74-4.12,10.1-6.2.16-.1.31-.22.46-.32l-.2-.33-11.13,6.47a25.37,25.37,0,0,1,1-2.87,3.24,3.24,0,0,1,1.12-1,126.59,126.59,0,0,1,16.69-9.67,1.88,1.88,0,0,0,.73-.53,81.6,81.6,0,0,0-18.11,9.56c.29-1.7.65-3.1,2.08-4.21a76.72,76.72,0,0,1,12.21-7.62c8.35-4.21,16-9.53,24-14.38a78.9,78.9,0,0,0,7.14-4.88c2.25-1.75,4.3-3.74,6.44-5.63A.37.37,0,0,1,89.36,152.63Zm4.2-10.81a16.45,16.45,0,0,1-.3,1.68,9.2,9.2,0,0,1-2.65,5c-4,3.75-7.94,7.65-12.55,10.73-3.49,2.33-7.2,4.35-10.65,6.73-6.93,4.8-14.49,8.51-21.7,12.82-1.69,1-3.29,2.17-4.94,3.27-1.06-.54-1.16-1.34-.92-2.55a8.83,8.83,0,0,1,3.24-5.4c1.7-1.38,3.29-2.89,4.93-4.34.14-.12.27-.26.4-.39l-.17-.17a43.31,43.31,0,0,0-7,5.43c.32-1.18.21-2.45,1.41-3.34,3.48-2.58,6.89-5.25,10.32-7.89a.7.7,0,0,0,.31-.38,24.48,24.48,0,0,0-5.71,3.32c-1.81,1.33-3.56,2.74-5.38,4.05a105.43,105.43,0,0,1,11.58-9.59c-4.22,2-7.65,5-11.2,8A5,5,0,0,1,44,165.73a67.23,67.23,0,0,1,16.69-11.34,14.85,14.85,0,0,0,2-1.13,46.05,46.05,0,0,0-9.91,4.67,59,59,0,0,0-9,6.62c.65-1.73.41-3.83,2.33-5,3.18-2,6.34-4,9.52-5.95,5.18-3.24,10.53-6.25,15.52-9.77a118.6,118.6,0,0,0,14.69-11.66c1.62-1.59,3.09-3.34,4.64-5,.55-.6,1.12-1.18,1.69-1.77l.34.06c.14,1.15.32,2.29.39,3.45a1.44,1.44,0,0,1-.55.89q-4.77,4.23-9.57,8.44c-1.92,1.69-3.87,3.37-5.81,5a3.62,3.62,0,0,1-.56.37l.35.32c5.57-4.29,11.42-8.26,16.46-13.5.12,1,.29,2,.32,2.88,0,.25-.35.57-.6.77q-5.69,4.62-11.37,9.21l-1.91,1.53.21.27c2.36-1.62,4.77-3.17,7.07-4.87s4.5-3.57,6.8-5.4c0,.88,0,1.8,0,2.72a1,1,0,0,1-.37.6q-5.3,4.59-10.61,9.15c-.9.77-1.86,1.48-2.87,2.28,1.3-.08,10.51-7.36,13.88-10.92C93.74,139.82,93.67,140.82,93.56,141.82ZM93.21,109c0,.19-.27.35-.45.48a191.17,191.17,0,0,0-22.69,18.2,25,25,0,0,0-2.5,2.73c8.08-6.84,16.42-13.32,25.16-19.58-.25,1.2-.22,2.18-1.33,3-5.35,4.16-10.59,8.48-15.87,12.73-.08.08-.21.1-.16.31,5.76-4,11.35-8.18,16.83-12.64-.07.86-.1,1.68-.23,2.49a1.42,1.42,0,0,1-.53.7c-2.43,2.07-4.88,4.13-7.32,6.19a2.4,2.4,0,0,0-.27.28l.19.25,7.82-5.78c0,1.23.1,2.38,0,3.53,0,.39-.45.76-.71,1.13-.9,1.29-1.79,2.58-2.74,3.84a47,47,0,0,1-8.23,7.83,198.15,198.15,0,0,1-25.34,17.41C51.76,154,48.79,156,45.69,158c.2-.67.41-1.34.61-2,1-.13.92-.12.62-1a1.73,1.73,0,0,1,.37-1.5q5.63-5.44,11.37-10.78c1.47-1.39,3-2.7,4.53-4a1.48,1.48,0,0,0,.47-.65,95.17,95.17,0,0,0-15.82,13.26c.28-1.36.49-2.63,1.77-3.59,3.78-2.8,7.44-5.76,11.14-8.66a7.8,7.8,0,0,0,.58-.57l-.2-.25L49,146.82a2.83,2.83,0,0,1,.85-2.26c3.37-3,6.57-6.23,10.38-8.73,0,0,0-.11.13-.41-4.23,2.24-7.48,5.42-11,8.43a18.68,18.68,0,0,1,.11-2.08,2,2,0,0,1,.6-1c4.14-3.88,8.28-7.75,13.18-10.72,0,0,.06-.08.23-.32a4.89,4.89,0,0,0-1,.29c-2,1.26-4.15,2.4-6,3.84-2.2,1.67-4.2,3.6-6.28,5.42l-.67.59c.25-1.84.21-3.45,1.39-4.92a45.05,45.05,0,0,1,12.2-10.26c5.79-3.47,11.62-6.86,17.37-10.38,3.22-2,6.42-4,9.44-6.23a34,34,0,0,0,4.23-4.33,7.6,7.6,0,0,1,.66-.74C94.29,105,93.77,107,93.21,109Zm6.2-21.84c-.22,1.14-.42,2.29-.66,3.43,0,.15-.19.28-.31.39L83.23,105.25a.48.48,0,0,0-.14.39A173.69,173.69,0,0,0,98.46,92.09c-.34,1.22-.6,2.26-.93,3.28A1.67,1.67,0,0,1,97,96l-6.15,5.15a.83.83,0,0,0-.17.27l.16.17,6.36-5-1.28,3.67a.39.39,0,0,1-.18.18c-2,.87-3,2.78-4.44,4.19a24.42,24.42,0,0,1-3.33,2.78c-4,2.61-8,5.18-12,7.67-4.79,3-9.68,5.76-14.47,8.71a39.18,39.18,0,0,0-10.82,9.3c.46-1.66.21-3.51,1.78-4.81,2.55-2.1,5-4.28,7.55-6.42l.28-.26-.18-.26c-1.26.89-2.55,1.75-3.78,2.68s-2.48,2-3.72,3c-.49-.58-.33-1,.23-1.46,3.48-2.86,6.93-5.75,10.39-8.62l.53-.46-.14-.18a66,66,0,0,0-11.06,8.23,4.31,4.31,0,0,1,1.23-2.82,74.35,74.35,0,0,1,9.82-7.86c1.68-1.18,3.39-2.31,5.09-3.47a1.85,1.85,0,0,0,.59-.62,52,52,0,0,0-15.43,10.2l-.24-.11a11.44,11.44,0,0,1,1.22-2.45A62.71,62.71,0,0,1,68,106c2.68-1.84,5.53-3.43,8.36-5,5.52-3.14,10.44-7.11,15.4-11a76.35,76.35,0,0,0,5.8-5.45c.55-.54.93-1.26,1.5-1.85.31,1.24.69,2.39-.35,3.45-2.89,3-5.66,6-8.64,8.91-3.31,3.21-6.8,6.25-10.21,9.36-.14.13-.33.21-.4.39C81.77,104.25,93,94.17,99.41,87.17Z"/><path class="cls-1" d="M30.62,154.65c.35.39.71.77,1,1.17,2.72,3.31,5.45,6.61,8.15,9.93a2.74,2.74,0,0,1,.29.93c-.33-.14-.78-.19-1-.43-2-2.51-4-5.05-5.9-7.59-.79-1-1.56-2.08-2.33-3.12-.18-.24-.33-.49-.49-.74Z"/><path class="cls-1" d="M36.71,130.28l10,11.49,0,.14a5,5,0,0,1-1-.68c-1.45-1.52-2.93-3-4.27-4.62-1.54-1.85-2.95-3.8-4.41-5.7a5,5,0,0,1-.33-.55Z"/><path class="cls-1" d="M73.32,157.71a7,7,0,0,1-1,1c-2.73,1.87-5.44,3.74-8.21,5.55-2,1.27-4,2.43-6,3.64a6.77,6.77,0,0,1-.82.36l-.1-.18,15.89-10.51Z"/><path class="cls-1" d="M60.1,163.47c1.76-1.67,8.4-6,9.32-6a3.83,3.83,0,0,1-.54.76,47,47,0,0,1-8.43,5.32C60.39,163.54,60.29,163.49,60.1,163.47Z"/><path class="cls-1" d="M58.5,209.5c-2.07,2.23-18.19,7.64-19.63,6.62,3.28-1,6.63-1.9,9.92-3S55.3,210.7,58.5,209.5Z"/><path class="cls-1" d="M59.56,207.63c-1.44,1.16-9.27,3.86-10.72,3.64l10.62-3.93Z"/></g></g></svg>