<?xml version="1.0" encoding="utf-8"?>
<!-- Generator: Adobe Illustrator 17.0.0, SVG Export Plug-In . SVG Version: 6.00 Build 0)  -->
<!DOCTYPE svg PUBLIC "-//W3C//DTD SVG 1.1//EN" "http://www.w3.org/Graphics/SVG/1.1/DTD/svg11.dtd">
<svg version="1.1" id="Capa_1" xmlns="http://www.w3.org/2000/svg" xmlns:xlink="http://www.w3.org/1999/xlink" x="0px" y="0px"
	 width="17.021px" height="15.717px" viewBox="0 0 17.021 15.717" enable-background="new 0 0 17.021 15.717" xml:space="preserve">
<path fill-rule="evenodd" clip-rule="evenodd" fill="#FFFFFF" d="M16.165,11.155c-0.436-0.204-2.475-1.223-2.854-1.369
	c-0.409-0.116-0.67-0.204-0.961,0.233c-0.263,0.407-1.078,1.34-1.311,1.602c-0.263,0.292-0.495,0.321-0.903,0.117
	c-0.438-0.204-1.777-0.641-3.378-2.068C5.505,8.563,4.661,7.223,4.428,6.815C4.194,6.378,4.398,6.174,4.603,5.941
	c0.204-0.175,0.437-0.466,0.64-0.729C5.301,5.155,5.36,5.096,5.388,5.038c0.117-0.175,0.175-0.32,0.263-0.495
	c0.145-0.291,0.088-0.524-0.029-0.728C5.534,3.612,4.691,1.544,4.34,0.728C3.991-0.117,3.642,0.029,3.408,0.029
	C3.146,0.029,2.884,0,2.593,0C2.301,0,1.865,0.088,1.486,0.524C1.078,0.932,0,1.922,0,3.99c0,0.466,0.088,0.961,0.235,1.398
	c0.407,1.485,1.339,2.68,1.485,2.883c0.203,0.291,2.883,4.602,7.135,6.262c4.282,1.66,4.282,1.107,5.039,1.048
	c0.758-0.059,2.476-0.99,2.826-1.981c0.349-0.961,0.349-1.806,0.233-1.981C16.864,11.475,16.573,11.359,16.165,11.155L16.165,11.155
	z"/>
</svg>
